<svg width="83" height="102" viewBox="0 0 83 102" fill="none" xmlns="http://www.w3.org/2000/svg">
<g clip-path="url(#clip0_295_1674)">
<path fill-rule="evenodd" clip-rule="evenodd" d="M55.7179 36.0079C55.449 36.2318 55.5463 35.9964 55.1785 36.0079C55.0713 35.4909 55.8218 35.4909 55.7179 36.0079Z" fill="#A46CEA"/>
<path fill-rule="evenodd" clip-rule="evenodd" d="M26.3823 52.9331H26.92C26.8986 53.0895 26.9514 53.1719 27.0553 53.2015C26.9959 53.465 26.1117 53.4436 26.3839 52.9331H26.3823Z" fill="#A46CEA"/>
<path fill-rule="evenodd" clip-rule="evenodd" d="M25.8429 53.4697C26.1596 53.6426 26.092 53.4516 26.5159 53.6031C26.3609 53.8863 26.5984 54.1267 26.2454 54.4099C26.0409 54.1679 25.7604 53.9983 25.8429 53.4697Z" fill="#A46CEA"/>
<path fill-rule="evenodd" clip-rule="evenodd" d="M25.0365 54.6787C25.4044 54.9389 25.6551 55.3143 25.8432 55.7523C25.2064 56.7748 24.6934 57.9176 24.7676 59.6481C23.9032 61.5664 23.6971 63.511 22.6133 65.021C22.1415 65.0457 22.1712 64.5665 21.8066 64.4842C22.4945 60.3595 22.9646 57.687 25.0365 54.6787Z" fill="#A46CEA"/>
<path fill-rule="evenodd" clip-rule="evenodd" d="M38.4907 55.7539H38.8948V56.2923C38.4461 56.4274 38.4527 56.1063 38.4907 55.7539Z" fill="#A46CEA"/>
<path fill-rule="evenodd" clip-rule="evenodd" d="M37.2816 58.0376C37.821 58.2154 37.3278 59.0947 36.7422 58.9778C37.1117 58.8543 37.1364 58.3867 37.2816 58.0376Z" fill="#A46CEA"/>
<path fill-rule="evenodd" clip-rule="evenodd" d="M41.989 65.426C42.6191 65.5593 43.1173 67.443 42.1226 67.5748C42.1572 67.1829 41.8191 67.1615 41.8537 66.7696C41.339 66.6593 41.6954 67.4183 41.1807 67.3064C41.1362 67.9798 41.4958 68.2466 41.4512 68.9184C41.9115 68.9744 42.2183 68.8772 42.1226 68.3816C42.7379 68.7076 42.9441 69.442 43.335 69.9936C42.2216 69.9146 41.7514 70.4728 41.316 71.0688C40.318 70.8597 40.0375 71.5068 39.4321 72.0091C38.9373 72.0091 38.8251 71.632 38.4902 71.4706C38.8861 70.7988 39.3563 70.4069 39.9716 70.262C40.0672 69.8504 39.8346 69.773 39.8379 69.4552C40.0936 69.2033 40.0804 69.5342 40.5093 69.4552C40.2701 69.2016 40.1464 68.8328 39.8379 68.6484C40.7848 68.1758 39.4371 67.1697 40.1068 66.4979C40.6429 66.6148 41.1015 66.2987 41.3176 66.4979C41.6178 66.4403 41.3737 65.836 41.4529 65.5577C41.664 65.5462 41.9659 65.6219 41.9906 65.4243L41.989 65.426ZM40.6446 66.9046C40.3394 66.8387 39.8363 67.2422 40.2404 67.4414C40.3295 67.2619 40.5275 67.1928 40.7798 67.173C40.8953 66.8997 40.567 66.432 40.5093 66.7696C40.5918 66.7778 40.6693 66.7893 40.6446 66.9046Z" fill="#A46CEA"/>
<path fill-rule="evenodd" clip-rule="evenodd" d="M38.4909 67.978C38.7565 68.0719 38.8505 68.337 38.895 68.6498C39.3041 68.6877 39.4179 68.2184 39.7017 68.5165C38.9478 68.6614 39.8006 70.005 39.4328 70.2635C39.1952 70.1417 39.187 69.7926 39.0303 69.5917C38.9214 69.707 38.6608 69.6724 38.6261 69.8601C38.1742 69.2311 37.6991 68.3765 38.4925 67.9797L38.4909 67.978Z" fill="#A46CEA"/>
<path fill-rule="evenodd" clip-rule="evenodd" d="M43.2023 68.5146C43.6675 68.6118 43.2914 68.9181 43.2023 69.1848C42.7388 69.0877 43.1116 68.7814 43.2023 68.5146Z" fill="#A46CEA"/>
<path fill-rule="evenodd" clip-rule="evenodd" d="M47.3742 73.7541C46.7325 73.7096 47.295 72.9868 47.5078 72.9473C47.8905 73.1267 47.4039 73.545 47.3742 73.7541Z" fill="#A46CEA"/>
<path fill-rule="evenodd" clip-rule="evenodd" d="M49.5273 72.9473C49.1529 73.5351 49.4713 74.0982 49.1248 74.5593C49.0176 74.4885 48.9055 74.4193 48.7207 74.4259C49.3162 73.983 48.5623 73.0214 49.5273 72.9473Z" fill="#A46CEA"/>
<path fill-rule="evenodd" clip-rule="evenodd" d="M38.2225 73.0823C38.4403 73.0444 38.4534 73.2091 38.625 73.2157C38.5838 74.039 38.2604 73.9089 37.8184 74.1559C37.8382 73.6817 38.2044 73.5549 38.2225 73.0823Z" fill="#A46CEA"/>
<path fill-rule="evenodd" clip-rule="evenodd" d="M47.3742 73.7541C47.5722 73.8677 47.6629 74.0916 47.6431 74.4259C47.4023 74.4078 47.361 74.5906 47.1037 74.5593C46.9965 74.0949 47.2538 73.9928 47.3742 73.7524V73.7541Z" fill="#A46CEA"/>
<path fill-rule="evenodd" clip-rule="evenodd" d="M27.5906 78.0521C27.9684 78.0323 27.9799 78.3814 27.9964 78.7239C27.7968 78.6547 27.6566 78.5246 27.457 78.4555C27.528 78.3468 27.5972 78.2381 27.5906 78.0521Z" fill="#A46CEA"/>
<path fill-rule="evenodd" clip-rule="evenodd" d="M46.8353 78.1868C47.0531 78.1489 47.0679 78.3136 47.2395 78.3202C46.9524 78.796 46.8023 79.4069 46.1623 79.5304C46.0419 78.7384 46.743 78.7664 46.8353 78.1868Z" fill="#A46CEA"/>
<path fill-rule="evenodd" clip-rule="evenodd" d="M49.2586 78.9922H49.6611C49.5209 79.4335 49.7469 79.585 49.3922 79.9324C49.092 79.8748 49.3378 79.2705 49.2586 78.9922Z" fill="#A46CEA"/>
<path fill-rule="evenodd" clip-rule="evenodd" d="M47.2394 79.5308C47.6864 79.9408 46.7924 80.1499 46.9705 80.7394C46.7346 80.6159 46.6736 80.3195 46.7016 79.9342C46.8798 79.8008 47.2031 79.8074 47.2394 79.5324V79.5308Z" fill="#A46CEA"/>
<path fill-rule="evenodd" clip-rule="evenodd" d="M26.5146 80.8726H26.9171V81.5444C26.4964 81.6053 26.4882 81.2579 26.5146 80.8726Z" fill="#A46CEA"/>
<path fill-rule="evenodd" clip-rule="evenodd" d="M46.4306 82.3511H47.1036C47.1217 82.682 47.1234 82.9982 46.97 83.1563C46.6384 83.0393 46.3877 82.8434 46.4306 82.3511Z" fill="#A46CEA"/>
<path fill-rule="evenodd" clip-rule="evenodd" d="M51.1427 89.3359C53.2162 89.3722 55.486 89.9584 58.1402 90.2761C57.0267 90.9183 54.6827 90.9924 52.7576 91.2163C52.1918 90.9315 52.0863 90.1839 51.0091 90.4112C50.8111 89.9995 50.9728 89.7114 51.1427 89.3359Z" fill="#A46CEA"/>
<path fill-rule="evenodd" clip-rule="evenodd" d="M19.7869 31.0366C20.1581 30.979 19.9123 31.5372 20.1894 31.5734C21.0934 30.4998 20.6233 29.0278 21.938 27.8126C21.3854 25.4481 23.7773 23.268 23.8234 21.4995C23.9323 21.5242 23.9571 21.6346 24.0923 21.6329C23.929 21.1455 24.3612 20.5725 24.0923 20.4243C24.4965 20.4276 24.5938 20.0209 25.0342 19.7525C25.506 17.6432 26.7745 16.8578 27.1869 14.9164C28.0595 14.8934 28.2525 14.1887 28.5313 13.5728H29.2043C29.4386 12.8664 29.9549 12.4416 29.8774 11.424C30.7764 10.8922 31.5418 10.8131 31.4923 9.5436C34.0244 7.83444 34.6644 3.82992 38.4898 3.63397C39.4499 3.06919 39.9084 2.00549 40.6441 1.21677C41.1258 1.39296 40.687 1.65806 40.913 2.02196C42.4999 0.431347 45.7182 -1.01436 46.8334 0.948378C47.0099 0.992836 47.2754 1.05047 47.64 1.21677C48.7172 3.50225 47.513 6.7164 49.1213 8.87344C50.5334 9.51232 50.4707 12.2243 52.3512 11.9625C52.6085 12.1518 52.5937 12.6145 52.7537 12.9027C53.4399 12.5124 54.0271 12.0234 54.3686 11.2906C54.7233 11.2511 54.809 11.4767 54.7711 11.8274C55.84 10.9926 56.9832 11.6364 58.1346 11.1556C58.5354 11.1589 58.3078 11.7896 58.5387 11.9625C60.0811 10.3504 62.8441 11.042 64.1918 11.6941C64.8599 11.3022 65.4109 11.6167 65.942 11.1556C66.6348 11.6117 67.1677 11.3993 67.2864 12.3642C67.8539 12.3922 67.8522 11.8538 68.3636 11.8274C69.7756 12.5684 72.5865 11.3071 71.7287 13.8429C70.9732 13.6272 70.9864 14.1771 70.5163 14.2463C70.3645 14.0405 70.1286 13.9153 69.9769 13.7095C69.8416 13.7968 69.8383 14.0191 69.5744 13.9779C69.4325 13.5646 68.2382 13.6963 68.6325 13.1727C68.357 13.2106 68.3636 13.5317 68.2283 13.7095C67.9281 13.6519 68.1739 13.0476 68.0947 12.7693C67.2089 12.9685 67.2419 12.8664 66.0773 13.0377C65.8002 12.7759 65.5989 12.4416 65.4043 12.0975C64.9061 12.0942 64.916 12.5947 64.5976 12.7693C64.1638 12.8895 64.4096 12.3313 64.1951 12.2325C64.0153 12.4564 63.6739 12.519 63.791 13.0377C63.334 12.7841 62.1596 12.7923 62.3113 13.5745C61.9286 13.5514 61.8709 13.3407 61.503 13.0377C60.0448 13.2287 59.0551 13.856 58.2748 12.2325C57.2422 12.463 58.42 13.614 57.6018 14.1129C57.0129 14.2084 56.6846 14.0437 56.5246 13.7095C56.584 13.4987 56.9485 13.5942 56.7951 13.1727C56.6153 12.7594 56.1963 13.423 55.9885 13.0377C56.2722 13.5597 56.0116 14.0602 55.7196 14.3813C54.8305 14.2315 54.4494 14.4011 53.9694 13.8445C54.0338 14.2743 53.1826 14.569 52.7586 14.9197C52.818 14.7995 52.8774 14.6793 53.0275 14.6513C52.9698 14.5163 52.0444 14.6464 52.2209 15.1881C50.1028 15.7282 48.313 17.7272 45.6292 18.1438C41.1902 20.3848 37.2543 23.128 34.1894 26.7406H33.7852C31.8701 28.6342 30.8886 31.4614 29.0757 33.4571C29.0757 34.0417 28.66 34.2063 28.8068 34.9358C27.5086 36.7305 26.7415 39.0539 25.7106 41.1154C25.4285 41.0578 25.3542 41.2076 25.1711 41.2504C25.252 42.9942 24.0247 44.3905 23.8267 46.0865C23.3946 45.5283 23.2296 46.233 22.4807 46.0865C22.4972 46.429 22.677 46.6068 23.0201 46.6233C22.4774 47.4219 23.2692 48.2485 22.3471 48.5037C22.6918 49.1837 22.1706 49.7386 22.0782 50.3841C21.9413 50.2968 21.938 50.0745 21.674 50.1157C21.5635 50.1421 21.5404 50.2507 21.4052 50.2491C21.2551 50.8913 21.8242 50.8155 21.674 51.4577C20.9367 51.3029 21.1115 52.062 20.5969 52.1295C20.4682 52.6169 21.1775 52.2662 21.2699 52.5329C20.9136 53.9243 20.8559 55.612 19.3844 55.892C18.5003 56.5325 19.4884 57.5699 19.2492 58.3092C18.8863 58.4014 18.9902 58.0309 18.8467 57.9058C18.3732 57.8827 18.4046 58.3586 18.04 58.4425C17.9988 58.6056 18.4277 58.9052 18.4425 58.5759C18.398 59.1423 17.8338 60.3263 18.1736 61.1281C17.9856 61.3126 17.5089 61.4179 17.367 61.2632C17.5518 62.2412 16.8325 62.8455 16.9629 63.682C17.0222 64.0558 17.6309 64.1529 17.2334 64.6222C17.8437 64.0212 18.0796 64.9071 19.2508 64.7556C19.523 65.2463 20.0393 65.4916 20.0591 66.2342C20.6563 66.31 21.2452 66.394 21.5404 66.771C21.7021 66.6195 21.7846 66.3874 22.2135 66.5026C22.3867 66.6788 22.3867 66.9983 22.2135 67.1744C22.5764 66.4631 24.1121 66.7233 23.9637 67.7129C24.2622 67.4017 24.4882 67.7573 24.9056 67.7129C24.8528 68.3468 25.1019 68.6811 25.7139 68.6531C26.217 68.0027 24.9303 67.3671 25.7139 66.7727C25.5324 66.5504 25.3691 66.31 25.0408 66.2359C25.2256 65.8012 25.4318 65.5328 24.7719 65.429C25.0062 64.7375 25.4631 64.0904 25.445 63.4136C25.44 63.2144 25.1151 63.1073 25.1744 62.8768C25.3559 62.1918 26.2203 61.7687 26.3869 60.9964C26.5304 60.3328 25.8986 59.8043 26.25 58.981C27.248 58.7669 26.7696 57.0808 27.3288 56.4288C27.408 55.9019 26.5898 56.2707 26.7894 55.6219C28.1057 56.2147 27.5927 54.1943 28.2707 53.7415C28.2113 53.5423 28.0991 53.7942 27.8665 53.7415C27.883 53.3546 27.794 52.8622 28.0035 52.6663C28.3647 52.7058 28.2443 53.2311 28.5412 53.3381C28.5577 53.0038 29.4633 52.2036 28.9454 51.8611C29.5871 51.3819 30.1182 50.7925 30.0209 49.5773C31.3307 47.6837 31.9492 45.9317 32.5777 43.3976C33.3448 43.1885 33.2755 43.526 33.9238 43.666C32.9918 48.6535 30.7418 51.354 30.0209 56.2937C30.3475 56.4123 31.5814 56.1999 32.0383 56.8305C32.4276 56.4123 32.5711 55.7504 33.1155 55.4869C33.4438 55.8557 34.6908 56.2608 34.0574 56.9639C34.163 57.2603 34.6892 57.1384 34.7304 57.5007C34.8657 57.3953 34.6793 57.0314 34.9993 56.8289C35.2616 56.9343 35.8142 57.4365 35.4018 57.7691C35.6872 58.2466 36.0369 58.0523 36.2084 58.4409C35.7944 58.408 35.448 58.3042 35.1329 58.1725C34.5473 58.5315 33.9485 59.5836 33.3844 59.5161C32.9159 59.582 33.2343 58.8608 32.845 58.8443C31.9509 59.5919 30.6461 60.2406 30.8275 61.6649C31.169 61.6485 31.3488 61.469 31.3669 61.1281C31.6144 61.6369 31.9196 61.2121 32.3088 61.1281C32.4276 61.7407 31.8668 61.6715 31.5006 61.8V62.8735C31.9278 62.6677 32.0928 62.8274 32.5761 62.8735C32.5645 63.0645 32.5546 63.2539 32.7097 63.277C31.9542 63.9702 30.6527 64.3225 30.9611 65.6942C30.1182 66.3511 29.5508 68.0669 28.4043 67.1728C28.076 67.3276 27.7511 67.9319 27.3288 67.5762C26.725 68.2332 27.2133 68.6432 26.7894 69.5916C26.9758 69.73 27.2645 70.2997 27.1935 69.5916C27.5234 70.2009 26.5881 70.68 27.1935 71.337C27.6884 71.3123 27.4558 70.899 27.596 70.7986C28.1123 70.7755 27.6439 70.9089 27.7313 71.202C28.1783 71.4325 28.3152 71.1197 28.5379 70.7986C29.3528 72.0895 29.851 73.0429 31.2284 73.8893C31.1228 74.4425 31.4362 74.5792 31.3636 75.0979C31.7068 74.7307 32.9175 75.4865 33.1122 74.6944C33.5196 74.9595 33.9155 75.2345 34.323 75.4996C34.1498 75.8158 34.3411 75.7483 34.1877 76.1714H34.8607C35.0735 75.8026 34.737 75.5079 34.9944 75.0962C35.4793 75.1934 35.8274 75.4272 36.2051 75.633C36.6951 75.5309 36.1936 75.2049 36.3388 74.6928C36.7281 74.6319 36.7611 74.2169 37.2823 74.2894C38.2226 75.6429 35.9643 76.8153 35.2632 76.5732C35.3457 76.6934 35.4265 76.8136 35.2632 76.8416C35.4348 77.79 36.0814 78.2626 36.8782 78.5886C36.7743 79.0941 37.0431 79.2292 37.0134 79.6622C37.4291 79.7841 37.8349 79.9158 38.0906 80.199C38.1071 80.4411 37.9257 80.4822 37.9553 80.7358C39.5488 81.8752 41.2067 82.9538 42.3976 84.4983C42.3053 84.6465 41.949 84.4703 41.8582 84.9C41.9061 85.0762 42.0941 85.1108 42.1271 85.3035C42.4851 85.3463 42.0018 84.5493 42.5313 84.765C42.5478 85.0054 42.3663 85.0482 42.3976 85.3035C42.8991 85.2903 42.7803 85.152 43.2043 85.3035C44.6658 86.6191 45.7034 88.3595 46.703 90.1379H47.2408C48.4054 91.8421 49.4446 93.6715 50.4707 95.5123C51.0299 95.8367 51.7969 95.8367 52.3561 95.5123C53.3624 96.8247 55.3303 96.2352 57.6034 96.1842C60.317 96.1216 63.5534 96.3011 66.0806 95.1089C68.1013 95.1402 69.929 93.8592 71.5968 93.0951C73.1358 93.2861 73.4443 92.2521 74.02 91.4831C75.6432 91.1341 75.8807 89.3985 76.981 88.5275C77.5072 86.9797 77.4214 85.6525 78.0565 84.2282C77.9823 83.456 78.0037 82.6179 77.7876 82.2144C77.8932 82.1124 78.2578 82.1189 78.4607 82.2144C78.4128 82.0597 78.2231 81.8736 78.1901 82.0811C76.7352 77.9761 82.4774 75.9146 81.6889 70.6619C81.6295 70.2717 81.3936 70.168 81.2847 69.7217C80.0245 70.0461 78.3287 68.9363 76.5752 69.7217C76.2073 69.3743 75.6646 69.1981 75.3644 68.7815C75.239 68.9248 74.8679 68.8243 74.9603 69.1833C74.3532 68.9149 73.4113 68.8145 72.6739 69.0499C72.1774 68.5065 71.5737 68.0093 70.9254 67.9763C70.0297 68.6728 69.5183 67.5499 68.5022 67.5729C69.0168 67.3424 68.55 66.9258 68.2316 66.7677C67.7104 67.0691 67.0291 66.8632 67.0209 65.9625C66.8081 65.951 66.5062 66.0268 66.4814 65.8275C66.2983 65.8703 66.3709 66.1634 66.3478 66.366C66.1499 66.5109 66.2472 65.2183 65.6748 65.2924C65.4175 65.3484 65.0958 65.3401 65.137 65.6942C64.629 65.5311 64.3766 65.1096 63.6557 65.1574C62.534 63.0925 62.6049 60.4415 64.4624 58.9777C64.4624 57.0611 66.4138 56.1258 66.7503 54.41C65.98 53.2541 64.7296 52.5757 63.3868 51.9928C62.7369 49.0767 65.4257 47.4877 65.9437 44.873C66.2291 44.8104 66.1994 45.0656 66.2126 45.2764C67.4415 44.5864 66.1499 43.1967 66.8856 42.3207C66.6629 41.8712 66.4105 41.453 66.4814 40.7087H67.0209C67.0489 40.4782 66.7916 40.3613 67.0209 40.3053C66.4567 40.2724 66.0558 39.9002 65.5395 39.5001C65.4719 39.0769 65.8332 38.9748 65.5395 38.6933C65.2261 38.7377 64.9605 38.8316 64.8665 39.0967C64.0698 38.2619 64.21 36.7437 65.137 36.1411C64.6537 35.5088 65.1585 34.8798 65.2707 34.1256C65.7028 34.2376 65.5494 34.2409 65.8101 33.9906C66.3511 31.0416 69.1587 28.1403 70.1171 24.7219C71.2388 24.2296 71.3609 22.7411 71.5968 21.3629C72.4216 20.9331 73.2167 20.4721 73.7495 19.7508C74.1619 19.8332 74.0909 20.3947 74.4225 20.5577C74.5677 20.5247 74.5132 20.2909 74.6914 20.2893C74.8233 20.4951 74.8679 21.1554 75.6333 21.3645C75.6976 21.786 75.2704 21.7185 75.2291 22.0363C74.7475 21.926 75.2836 21.5654 74.825 21.3645C74.6452 21.3925 74.5759 21.9227 74.5561 21.3645C74.373 21.6296 74.2839 21.9886 73.8831 22.0363C74.0051 22.3607 74.2806 21.7317 74.6897 21.903C75.1219 22.3442 74.825 22.937 74.6897 23.515C73.4921 23.4392 73.3486 24.414 73.2101 25.3954C72.6904 25.453 73.281 24.9936 72.8076 24.8586C72.0718 25.402 72.6508 26.2565 72.4034 27.4108C72.0537 27.5821 71.9976 27.7056 71.5968 27.5442C71.7254 28.2983 71.2701 28.4696 71.059 28.8878C71.892 29.9252 70.9254 31.2737 70.9254 32.6486C70.5938 32.3341 70.4767 32.9911 70.2524 33.1854C70.3398 33.5888 70.5394 33.057 70.7901 33.1854C70.6268 33.6316 70.7984 33.607 70.6565 34.2607H69.3121C68.8189 34.6937 69.2461 35.2766 69.1768 36.006C68.9047 35.9204 69.0878 35.3787 68.7727 35.3342C68.2597 35.629 68.0832 36.258 67.5619 36.5428C67.9248 37.4221 67.6724 37.8305 67.8308 38.5583C69.1818 39.235 69.6255 41.9091 68.908 43.1259C68.8766 43.2972 68.5071 43.3021 68.5055 43.1259C68.0023 43.2939 68.2531 43.8125 68.1013 44.0661C68.8156 44.0052 68.2729 43.8982 68.908 43.6627C68.2547 44.5074 69.1488 46.6002 67.8308 46.4833C67.7236 47.2704 67.4794 47.3214 67.0241 47.5585C67.1743 48.6486 66.3544 48.7704 66.2159 49.574C65.815 49.7354 65.7589 49.6102 65.4092 49.439V50.1108C65.5445 50.3331 65.98 50.2573 66.2159 50.3792C66.173 50.6904 66.2373 50.8946 66.3495 51.051C67.2419 51.9747 68.5187 52.3699 68.7727 53.3348C68.3752 54.3705 67.5784 55.0078 67.1578 56.0221C66.7305 55.3091 66.9351 56.6099 66.3511 56.1554C67.1941 57.5172 65.8579 59.3235 65.2756 60.7231C65.0645 60.6753 65.3944 60.4876 65.142 60.4547C63.6788 63.6985 69.4787 65.3303 72.0042 67.4395C72.1692 67.3819 72.2797 67.2683 72.2731 67.0378C73.441 67.2551 75.2473 67.6388 76.5785 67.5746C78.5035 68.4884 80.8855 67.4873 82.5005 68.6498C82.5747 68.7041 82.672 68.4176 82.6341 68.3814C83.6469 69.4188 82.1705 70.7673 82.903 72.5456C82.5466 72.8601 81.966 73.7048 82.5005 74.0226C82.5912 74.6862 81.9215 74.6319 81.6938 75.6347C81.4827 76.5518 82.22 77.5068 81.0208 78.4553C80.5243 78.8472 80.323 79.0266 80.2125 79.9323C80.0409 81.3269 80.5902 82.7084 79.5395 83.6947C79.3811 84.3698 79.8364 84.9116 79.5395 85.3068C79.5147 85.5998 79.6483 85.7332 79.942 85.7085C79.5873 86.2124 79.9585 87.1839 79.6731 87.859C78.7229 88.2525 78.3798 89.252 78.0582 90.2762C77.9394 90.3799 77.7546 90.4211 77.5187 90.4112C76.397 92.2455 73.9952 92.8053 73.4822 95.2472C70.9848 95.8005 68.8436 96.7078 67.0225 97.9345C65.6847 98.0465 63.2466 98.4367 62.3113 99.0081C60.6271 98.8401 58.3672 100.068 57.4682 99.0081C56.3811 99.7606 55.0202 99.1266 53.8342 98.8747C52.5689 99.7309 51.6732 97.8324 50.6043 98.4713C50.441 97.6496 50.2348 96.8708 49.5288 96.5909C49.3308 97.2199 49.7383 98.7281 48.991 99.1431C48.4631 99.1497 48.5737 98.8599 48.4516 98.7413C47.861 98.6442 47.9122 99.1892 47.9122 99.6815C47.127 99.7013 46.8581 100.241 46.1636 100.353C46.3385 101.407 48.4384 100.936 47.9122 99.9499C48.3889 99.2666 48.9531 99.4362 49.2582 99.2781C49.6228 99.4724 49.4248 99.9368 49.796 100.353C48.9762 101.417 47.861 102.183 45.7595 101.965C45.1013 100.385 42.4389 100.801 41.723 99.2781C39.6049 98.929 39.3162 96.7555 37.1471 96.4575C36.8303 95.8779 36.2876 95.5255 35.6674 95.2489C35.5305 95.0711 35.5338 94.7533 35.3969 94.5771C34.5589 94.2494 33.8759 93.7686 33.6483 92.83C33.2689 92.7181 33.3002 93.0194 32.9753 92.9634C31.9146 91.3349 29.6794 90.8805 28.9388 88.9325C28.6023 88.9161 28.5165 88.6757 28.3994 89.0659C28.4835 88.2015 27.3354 87.5774 26.6492 87.0521C26.4034 85.8616 25.4549 84.579 23.9587 84.2299C23.6453 83.1563 23.1356 82.2754 22.3438 81.6777C22.8848 81.4191 22.3075 81.1162 22.2102 80.7374C21.8291 80.6271 21.8604 80.9268 21.5371 80.8708C20.6183 79.5947 19.4026 78.615 18.0384 77.7818C18.144 76.8696 17.4495 76.7576 17.499 75.8997C17.3274 75.5243 17.2218 76.3246 16.8259 76.1698C17.2977 75.363 16.6049 74.9777 16.0193 74.8262C15.9088 74.4474 16.209 74.4787 16.1529 74.1544C15.5013 74.1 15.5838 73.1862 14.9421 73.2142C14.9042 72.9968 15.0691 72.9836 15.0757 72.8124C14.9817 72.6856 14.4456 72.898 14.2691 72.5423C14.5924 72.0105 14.5198 71.5676 14.0002 71.6021C13.9623 71.3864 14.1272 71.3716 14.1338 71.2004C12.4645 70.4265 12.928 68.2513 12.1164 66.7677C12.5568 66.091 12.8851 65.4044 12.3853 64.6189C10.7324 64.912 10.4883 61.7654 9.96206 62.2017C9.6173 62.0535 9.69813 61.4805 9.69318 60.9931C8.38672 60.1484 8.27125 58.1132 7.13634 57.0973C7.73679 55.6203 5.99154 55.0769 6.3297 53.3365C6.21423 53.1372 5.99154 53.0483 5.65667 53.0681C5.9239 51.9072 4.73951 52.1921 4.84838 51.1876C4.75601 50.827 5.12716 50.9275 5.25253 50.7842C5.25583 49.5625 4.88137 49.0899 4.30897 48.232H4.5795C3.58151 47.4054 4.51682 44.7495 3.36706 44.6046C3.19386 44.2785 3.26149 43.1671 3.09818 42.4558C3.21695 42.515 3.33902 42.5727 3.36706 42.7241C3.06024 41.2241 3.66564 37.8091 2.8293 35.6043C3.14437 35.4215 3.56501 34.646 3.2318 34.2607C3.4314 34.1026 3.6112 33.9231 3.77121 33.7239C3.51388 32.5136 3.28788 31.1815 3.09818 29.828C3.0421 29.423 2.96457 29.0903 2.8293 28.7528C2.67094 28.3609 2.39876 28.2852 2.15628 27.8126C1.71914 26.9629 1.8676 25.8614 0.541342 25.6638C0.419274 24.8454 -0.0492055 24.3712 0.00193136 23.3799C1.18138 22.4282 2.18762 23.1148 3.50068 22.8432C4.32712 23.5874 4.9655 22.8711 5.11561 24.1868C5.41419 24.2922 5.47687 24.633 5.92226 24.5902C6.04762 25.155 5.96349 25.234 6.19279 25.7988C6.25547 26.2203 5.82988 26.1545 5.78864 26.4706C6.01958 28.1172 5.16675 29.7687 4.982 31.4417C5.51151 32.1695 4.9688 33.2233 4.982 34.3973C5.01334 37.1257 6.24722 40.3349 5.65502 42.7258C6.60023 43.5129 5.99154 45.0557 7.00108 45.6814C6.35939 46.4784 6.86251 47.547 6.73055 48.3687C7.94133 48.9088 7.42172 51.3803 8.61601 52.2645C8.71828 54.0428 9.56452 55.0786 10.0957 56.4288C9.84824 57.1105 10.2821 57.4727 10.7687 57.7724C10.6961 57.9683 10.9271 58.4672 10.6351 58.4442C10.7489 58.6434 10.9733 58.7323 11.3081 58.7126C11.3246 58.953 11.1432 58.9958 11.1745 59.2494C11.5259 59.3284 11.638 59.5145 12.1164 59.3828C11.9844 59.5194 11.8492 59.6544 11.7123 59.7862C11.8046 60.2324 12.6377 59.936 12.7878 60.323C12.9808 59.5227 12.1197 59.0584 12.7878 58.5776C11.7947 57.7279 12.1148 56.3909 11.3081 55.3535C11.5556 55.1082 11.7617 54.8233 12.1164 54.6817C12.1016 54.3376 11.6133 54.466 11.4434 54.2783C11.6958 53.7119 11.5473 53.073 11.7123 52.2629C11.7123 51.9467 11.3461 52.3123 11.4434 52.5313C11.0409 52.304 11.1019 51.6174 11.0392 51.0526C11.5094 51.1218 11.4962 51.6717 12.2517 51.456C12.5453 51.0444 11.3955 50.1569 12.3853 49.844C12.1032 49.4093 12.1214 48.6766 11.4434 48.6354C11.5061 47.3066 12.0059 44.6655 11.0392 44.6062C11.4896 44.4745 11.6232 44.025 12.1164 43.9344V44.4712C12.8554 44.6638 12.7004 44.0595 12.7878 43.9344C12.7548 43.5886 12.5568 44.1188 12.25 43.9344C12.6195 43.0156 12.9296 42.2812 11.8459 41.6506C11.7024 41.1484 12.1807 41.2669 12.1164 40.8437C12.0702 40.9294 11.158 40.4436 11.1745 40.9771C11.1613 40.2724 10.4784 40.2394 9.96206 40.0369C10.1518 39.403 10.0495 38.9255 9.96206 38.6933C10.1386 38.1812 10.7687 38.9008 10.7687 38.1565C10.386 37.6115 10.2804 38.4611 9.96206 38.4249C9.81525 37.7844 10.1353 37.6115 10.3662 37.3497C10.2062 36.719 9.90433 37.6609 9.55792 37.2146C9.54142 35.9468 10.0726 35.2206 10.7687 34.6624C11.3576 34.7925 11.5127 35.3523 11.9811 35.6026C12.1642 35.5615 12.0917 35.2667 12.1164 35.0658C14.2592 35.0395 16.4383 36.0818 16.9596 38.6933C17.3307 38.5253 17.3505 38.0067 17.6326 37.7531C17.1658 36.4374 18.0763 35.247 18.5745 34.1256C18.1687 33.029 19.2079 32.3852 19.6517 32.1102C19.3696 31.8122 19.5461 31.2161 19.7853 31.035L19.7869 31.0366ZM43.6051 4.30579C43.3923 4.15101 42.8859 3.60434 42.528 4.03739C41.5531 4.63675 40.4281 6.94692 38.8956 6.99303C38.2028 9.92891 36.2299 11.5854 34.5886 13.5745C34.3345 13.6041 34.2916 13.423 34.0508 13.4394C33.9419 14.1804 33.7192 14.8094 32.7047 14.6481C32.2495 15.1354 32.106 16.1481 31.6292 16.7969C31.5533 16.8989 31.0816 16.922 30.9562 17.0653C30.2122 17.9215 29.7355 19.5845 28.6682 19.7525C28.9652 20.4292 28.5495 21.3678 27.9969 21.2295C28.0018 20.8195 27.8731 20.5462 27.5911 20.4243C27.1589 21.157 26.6162 21.7795 26.3803 22.7081C26.8059 22.7641 27.0269 22.8991 27.3222 22.8415C27.0319 23.1774 27.0467 23.8229 26.6492 24.0501C26.4628 23.8789 26.5914 23.3915 26.245 23.3783C25.9992 24.0271 25.1002 24.0254 25.3031 25.1253C24.2919 25.234 24.3711 26.4327 23.8234 27.0057C24.0395 28.9454 22.9162 30.6513 21.938 31.8418C21.7615 31.8402 21.8159 31.6063 21.6691 31.5734C21.3854 31.8714 21.811 32.2205 21.6691 32.782C20.2406 33.8688 20.2406 36.2629 19.1123 37.7514C19.5131 38.0989 19.5098 39.4063 18.8434 40.0353C18.7345 39.8722 18.0219 39.8327 18.0367 40.4387C18.4359 40.6214 18.5811 40.4008 18.8434 40.8421C18.0565 41.6292 18.85 43.0321 18.0367 44.2011C17.8371 44.0447 17.6969 44.0447 17.4973 44.2011C17.4561 44.6523 17.6771 45.3653 17.0948 45.2764C17.3851 44.9685 17.1427 44.4383 16.6907 44.4712C16.3657 44.6391 16.2552 45.0211 16.1513 45.4114C16.463 45.3702 16.3014 45.8 16.5554 45.8148C16.6428 45.4114 17.5171 45.4279 17.4973 45.9498C16.7154 46.1095 16.8474 47.1815 16.2865 47.5618C16.0688 47.2144 15.145 47.6623 15.4782 47.8302C15.9071 47.4779 15.6993 48.4296 15.3446 48.6371C15.7669 48.7293 15.8939 48.6223 16.016 48.7721C15.6333 49.5476 14.9553 48.81 14.5363 48.5037C14.4209 49.0108 14.9834 49.1343 14.6699 49.4439C15.4387 49.2875 15.3116 50.1766 15.343 50.3841C15.564 50.2178 16.0358 50.5323 16.2849 50.5191C15.9533 51.484 14.8036 52.2085 15.343 53.6081C14.1883 54.5204 15.0906 55.5396 14.9388 56.8322C15.9896 56.6725 15.4799 54.9534 16.1496 54.4133C15.9781 53.0779 16.8903 52.8227 16.689 51.4577C17.9378 49.7469 18.3205 47.2473 19.65 45.9498C19.5461 44.2785 20.5787 42.5792 21.2649 41.2488C21.4464 41.2916 21.5223 41.4398 21.8027 41.3822C22.2316 40.3778 22.3685 39.6285 22.2069 38.2932C24.3661 37.4929 24.0494 33.8951 26.1081 32.6503C26.2533 30.4224 27.7956 29.5893 28.2624 27.6809C28.3466 28.0448 28.5297 28.3099 28.8019 28.4877C29.1252 27.9739 29.7817 27.1803 29.6085 26.6073C31.1261 25.7165 32.0763 24.6215 33.6467 24.055C34.3642 22.7131 35.2154 21.5012 36.6076 20.831C37.157 20.4375 36.898 19.2404 37.6848 19.084C38.1599 19.1021 38.2869 19.4693 38.7603 19.4874C39.374 19.1515 38.5442 18.203 39.1645 17.8754C39.6676 17.8638 39.6577 18.3677 40.1064 18.4122C40.5221 17.7025 41.0153 17.3238 41.5877 16.5318C42.7358 16.5416 42.8546 16.1003 43.7404 16.6668C43.6299 16.1448 44.2666 15.6788 44.4134 15.8599C44.2716 15.8682 44.3079 16.0328 44.5487 15.995C44.6807 15.3808 44.458 15.2491 44.6823 14.7864C44.839 14.8983 45.0436 14.9642 45.3553 14.9197C46.068 13.7046 48.3675 14.0767 48.8541 12.6359C48.351 11.7138 47.155 12.2901 47.1039 10.8889C46.7393 10.6057 46.769 11.1935 46.2972 10.8889C46.0564 10.3356 45.3454 10.0047 44.9528 9.00846C45.6984 8.87509 44.6823 8.31195 45.4906 8.06826C45.357 8.51613 45.677 8.5079 46.03 8.47167C46.1026 7.86079 45.6622 7.76364 45.4906 7.39644C45.4329 7.96452 44.6015 7.76199 44.4151 8.20328C44.0043 7.4656 44.0918 7.05725 44.1462 5.91945C44.5256 5.94415 44.458 5.41394 44.8192 5.78443C44.7648 5.46005 45.065 5.49298 44.9545 5.11262C43.8377 4.45398 44.3672 3.63562 43.8757 3.5006C44.166 3.6241 43.2422 4.07362 43.6068 4.30743L43.6051 4.30579ZM38.4915 6.32122C39.021 6.49246 38.8412 5.95403 39.0309 5.78443C38.6086 5.72186 38.4288 5.90134 38.4915 6.32122ZM32.9736 12.7693C33.7308 13.0146 33.9469 11.8176 34.1861 11.4257C34.3593 11.4322 34.3725 11.5986 34.5886 11.5607C34.8954 11.1507 34.8195 11.1392 34.7238 10.6205C33.6912 10.8889 33.7539 12.2506 32.9736 12.7693ZM4.04174 27.0074C4.72961 26.9893 4.63889 26.0046 4.17535 25.7988C3.93617 26.2286 3.91472 26.4772 4.04174 27.0074ZM15.3463 39.6335C15.5195 39.2861 15.8675 38.3442 15.211 38.2899C15.0757 38.6768 14.6601 39.5512 15.3463 39.6335ZM16.0177 45.5448C15.8148 44.8516 15.1962 44.5733 15.3463 43.5293C15.9599 43.4733 16.4647 43.3021 16.5571 42.7225C16.1447 42.7027 15.9517 43.1951 15.6152 42.8575C15.8477 42.2763 16.5983 42.1429 16.2882 41.3789C15.6696 41.1632 15.4205 41.4168 14.6732 41.3789C14.0646 42.8476 14.7508 44.7906 14.6732 45.8115C14.8217 45.1743 15.4865 45.9218 15.4799 45.8115C15.5442 45.3883 15.0675 45.5069 15.211 45.0047C15.3463 45.0047 15.371 44.896 15.4799 44.8697C15.6003 45.1512 15.4848 45.6716 16.0177 45.5415V45.5448ZM11.7106 45.8132C11.8294 46.3269 12.6113 46.8785 13.1919 46.485C13.0022 46.3351 13.6819 45.1628 12.6525 45.008C12.7432 45.6798 11.8673 45.3867 11.7106 45.8148V45.8132ZM14.6716 47.6936C14.6287 47.114 15.1813 47.1288 15.0741 46.485H14.6716C14.6452 46.6875 14.3598 47.3116 14.6716 47.6936ZM13.3255 48.2304C13.3255 47.3264 13.606 47.2589 13.0567 46.7534C13.3025 47.4137 12.8208 47.6804 13.3255 48.2304ZM15.0741 51.4544C15.1252 50.6871 15.0625 50.0334 14.5363 49.8424C14.5578 50.2721 14.1998 51.5137 15.0741 51.4544ZM33.2425 58.3059C33.8941 58.3635 33.6302 57.5238 33.2425 57.4991V58.3059ZM30.5521 62.7385C30.6725 62.5014 31.0469 62.5162 31.0898 62.2017C30.8803 62.1671 30.9958 61.907 31.0898 61.7983C30.7022 61.8214 30.2419 62.4635 30.5521 62.7385ZM16.9596 64.7539C16.7583 64.2402 16.2238 64.0558 15.7488 63.8137C15.6778 64.8 16.4399 65.0174 16.9596 64.7539ZM18.0384 69.7234C17.692 69.7365 17.8454 70.2486 17.499 70.2618C17.466 69.8024 17.2119 69.5637 16.6923 69.59C16.4977 70.438 17.2713 71.4095 17.9048 71.8738C18.1357 72.6543 18.6553 73.5484 19.1156 74.0226C19.6071 74.5314 20.1119 74.7521 20.4616 75.2329C21.0703 76.0677 21.2666 77.2928 22.3454 77.5151C22.2283 76.4678 21.6048 75.9261 21.133 75.2329C20.3214 73.9387 20.3824 71.7734 18.8467 71.202C18.8896 70.6751 19.0248 70.2355 18.9803 69.7234C18.7444 70.3688 18.4508 69.9078 18.0384 69.7234ZM30.1496 85.7085C28.9256 83.9368 28.7887 81.8884 27.9969 79.6639C28.373 79.1221 28.0876 77.9547 29.0724 78.1852C28.269 77.5085 28.0463 76.2554 26.3819 76.4398C26.4182 78.1622 27.0484 78.8488 26.7844 80.4707C26.1972 80.2863 26.499 80.991 25.9778 80.8725C25.7881 80.2896 25.412 79.5223 25.0359 79.5305C24.96 79.0958 25.0771 78.8537 25.3048 78.7237C24.8973 78.7121 24.8775 78.0272 24.9006 77.245C24.2061 77.7192 24.2573 79.3362 24.094 79.9306C24.8858 79.7446 24.6763 81.4587 25.1695 80.7358V81.5426C25.8425 81.9691 26.3423 82.4153 26.7844 82.7529C26.9065 82.6755 27.2793 82.198 27.3238 82.4828C27.6208 82.7677 27.1506 82.8813 27.1886 83.288C28.4093 84.6152 29.2571 86.9007 30.8226 87.4523C31.4016 89.6077 34.5968 91.0254 35.801 92.5567C36.0864 91.6033 35.7878 91.3646 36.3388 90.6763C36.0798 89.7888 35.58 89.904 35.6674 88.7959C35.2022 88.6872 35.0999 89.0462 34.8607 88.7959C34.7799 88.5571 35.255 88.2377 34.8607 88.1241C34.6348 88.9556 34.3197 88.1109 33.9188 87.9907C33.5378 87.9693 33.6054 88.3941 33.2458 88.3925C32.5002 87.8952 31.621 86.5154 30.689 87.0505C30.6329 86.6751 30.6345 86.377 30.2848 86.3787C30.4052 85.8962 30.6972 84.3929 30.1512 85.7069L30.1496 85.7085ZM22.8815 78.0518C22.5467 78.0716 22.4658 77.8411 22.2102 77.7835C22.1475 78.2626 22.8947 78.7698 22.8815 78.0518ZM30.4168 81.1425C30.3937 80.8362 30.8721 80.3604 30.9562 80.6041C30.5257 81.159 30.7269 81.8143 30.8226 82.6179C31.5929 82.3857 31.329 83.1859 31.8981 83.1563C32.0284 82.7875 32.2726 81.8357 32.84 82.3511C32.5348 83.1201 32.7146 82.906 32.9736 83.5597C32.4722 83.3325 32.7625 83.6387 32.3023 83.6947C32.0548 83.7013 31.847 83.0048 31.6292 83.4247C32.0037 83.3654 31.5237 84.1574 31.8981 84.0965C32.1472 83.6849 32.685 84.1047 32.7047 84.3649C32.7839 83.6371 33.4157 83.4626 33.9172 83.1563C34.0079 83.423 34.3642 83.7474 34.4549 83.2897C34.3279 82.8879 33.7654 81.9181 34.3213 81.6777C34.4797 81.9246 34.6727 82.1321 34.8607 82.3495V81.6777C34.3114 81.5229 33.9617 80.8659 33.2458 81.2759C32.7229 81.0355 32.581 80.4164 32.1703 80.0656C32.2858 79.7627 32.9225 79.6244 32.5728 79.2588C32.0713 79.1172 32.36 79.7627 31.8998 79.6622C31.3686 79.2983 30.7698 78.9986 30.0159 78.8554C29.7998 79.0876 29.95 79.6869 29.6118 79.7956C29.6118 79.7215 29.5046 79.6425 29.4782 79.7956C29.8097 80.227 30.1166 80.6815 30.4201 81.1392L30.4168 81.1425ZM34.9927 83.9631C35.4282 84.1294 35.095 83.5284 35.5305 83.6947C35.6542 83.1234 35.3094 83.018 34.9927 82.8895C34.5803 83.3654 35.3177 83.5103 34.9927 83.9631ZM38.2226 83.6947C37.6221 83.8166 37.2444 83.232 36.6076 83.0229C36.4872 83.9796 35.2814 83.8479 35.2616 84.9033C36.2002 84.9 36.4559 84.2134 37.0101 83.8298C37.0431 84.0208 37.2328 84.0553 37.2807 84.2315C36.8089 84.2101 36.8551 84.7057 36.6076 84.9033C36.7017 85.1684 37.3582 84.8704 37.4143 85.1717C37.7722 86.3194 37.6271 86.9797 37.1438 87.859C37.7178 87.9627 37.7739 88.3661 37.6832 88.7992C38.1434 88.7201 38.5789 88.5308 38.7587 89.2009C38.8593 89.6142 38.3892 89.4595 38.4898 89.8728C38.8989 90.5396 39.4268 91.0863 39.8359 91.7532C39.4845 91.7169 39.1612 91.7071 39.2964 92.1566C39.7319 92.3229 39.3987 91.7219 39.8359 91.8882C39.76 92.588 38.1566 92.8465 37.8168 92.425C37.9652 93.11 37.152 92.8366 36.8749 93.0968C36.8551 93.4311 37.0877 93.5117 37.1438 93.7686C37.7739 93.8147 38.0873 93.5447 38.4898 93.3652C38.5558 93.79 38.2473 93.841 38.3562 94.3054C40.6656 96.0294 43.422 97.8769 45.7578 99.1414C49.4562 98.4285 46.3946 94.3054 45.8931 92.2916C45.2712 92.0611 45.1211 91.3596 44.4118 91.2164C44.4283 91.8585 44.0472 92.1039 43.6051 92.2916C43.4831 91.6231 44.0291 91.7202 43.7388 91.2164C43.3033 91.0501 43.6365 91.6511 43.201 91.4848C42.9321 91.1093 43.6975 90.4211 43.201 89.8728C43.1449 90.0424 43.0278 90.1461 42.7968 90.1412C42.8678 89.4842 42.2607 89.4232 42.1238 89.336C42.3482 89.0643 41.9902 88.488 41.9902 87.994C40.5419 88.8371 38.917 86.7294 39.567 85.8435C38.8445 85.8946 38.7224 85.343 38.6251 84.77C38.3941 84.7173 38.2803 84.9692 38.2226 84.77C38.2869 84.5855 38.0411 84.2776 38.2226 83.6964V83.6947ZM36.7429 86.7837C36.9656 86.5466 36.9392 85.7991 36.474 85.8435C36.2134 86.1202 36.2942 86.8117 36.7429 86.7837ZM36.2035 88.6658C36.2761 88.3842 36.441 88.1603 36.0699 87.994C35.8868 88.1652 35.862 88.651 36.2035 88.6658ZM48.8541 100.352C49.2087 100.391 49.2962 100.166 49.2582 99.8149H48.8541V100.352Z" fill="#A46CEA"/>
<path fill-rule="evenodd" clip-rule="evenodd" d="M72.404 12.9026C72.5277 12.7528 72.6547 12.8598 73.077 12.7676C73.4399 13.5678 74.1756 13.4048 74.4231 14.1112C74.3076 14.1359 74.2961 14.0585 74.2895 13.9778C73.9843 14.0536 74.4511 14.1869 74.1542 14.3812C73.5702 14.4866 73.1793 14.0075 73.077 14.6496C72.399 14.3269 72.8692 14.1244 72.1351 14.1128C71.9636 13.53 72.7174 13.1825 72.404 12.9042V12.9026Z" fill="#A46CEA"/>
<path fill-rule="evenodd" clip-rule="evenodd" d="M45.0853 42.0527C44.6168 40.8292 45.7996 39.5367 44.8164 38.8286C45.2222 35.8483 46.3736 32.6012 47.238 29.695C47.6603 29.7592 47.7658 29.504 48.0446 29.4266C48.4653 26.5763 50.7598 25.5982 51.9475 23.5153C52.7707 23.7557 52.3352 22.7381 53.1583 22.9785C53.1369 23.1349 53.1896 23.2173 53.2936 23.2469C53.0841 23.7952 52.7542 24.1723 52.7542 24.5905C53.1847 24.7074 53.1748 24.3847 53.2936 24.1871C53.8462 24.5115 54.1167 24.3254 54.7732 24.5905C55.151 24.6136 54.3493 23.8281 54.5044 24.4571C54.1365 24.2925 54.4268 23.6783 54.9102 23.9203C54.798 24.3518 54.7947 24.1986 55.0438 24.4571C55.4001 24.1855 55.4529 23.6124 56.1193 23.6503C56.0995 23.4297 55.1955 23.4297 55.1774 23.6503C54.9943 23.4297 55.4199 23.2008 55.1774 22.7101C55.697 23.018 56.2612 22.1272 56.7923 22.7101C57.2443 22.5883 56.8088 22.4088 57.0612 22.1717C57.7144 22.0564 57.754 22.557 58.4072 22.4401V23.2469C58.5244 23.6437 58.6085 22.9357 58.945 23.1119C59.1413 23.3654 59.1446 23.81 59.4844 23.9187C59.425 24.0834 59.3129 24.1953 59.0819 24.1871C59.5042 24.6103 59.463 25.6147 59.3508 26.2025C59.5075 26.2865 59.7022 26.2717 59.8886 26.6059C59.5059 26.9402 59.4234 27.5725 59.4861 28.3513C59.3096 28.488 58.9896 28.4831 58.813 28.6197C58.8889 29.5764 58.2489 30.4458 58.4106 32.1122C57.9503 32.0117 58.239 32.6572 57.7375 32.5156C57.8497 32.672 57.914 32.8762 57.8711 33.1874C57.1684 33.3191 57.0975 33.8197 56.2562 34.2626C56.441 34.4355 56.3882 34.8455 56.3898 35.2028C56.281 35.3181 56.022 35.2819 55.9873 35.4712C55.73 35.4152 55.4067 35.4218 55.4479 35.0678C54.7897 35.2176 54.1777 35.4119 53.833 35.8746C54.021 36.2978 54.4978 35.6902 54.6396 36.008C54.4846 36.525 54.4268 37.1392 53.833 37.2166C54.0821 36.9795 53.7736 36.8247 53.6994 36.5448C52.5843 38.2062 50.3458 38.7496 49.3923 40.574C49.1515 40.5576 49.1086 40.7387 48.8529 40.709C48.9733 41.5455 48.6979 41.9868 48.1815 42.186C47.2842 42.0757 46.5419 41.6756 46.1625 42.0527C46.1575 41.5307 45.6049 41.9835 45.0869 42.0527H45.0853ZM54.5044 32.784C56.9408 30.734 57.6353 26.3161 58.0031 24.0521C57.7738 24.1361 57.7821 24.4588 57.599 24.5889C57.2855 24.4555 56.9969 24.2941 56.7923 24.0521C56.6224 25.1125 54.9497 24.6926 54.3691 24.9923C54.4747 25.0219 54.5258 25.1043 54.5027 25.2607C51.7034 26.4512 51.2992 30.0325 49.6579 32.3806C49.6579 34.2165 48.9915 35.3856 49.1201 37.35C49.7998 37.7419 50.1445 36.3554 50.8703 36.8132C50.8967 35.8549 51.903 35.8746 52.35 35.3362C52.5941 35.7956 53.0016 35.3115 53.1567 35.7396C53.4668 34.9822 53.0395 33.6978 54.1002 34.1276C53.9501 33.3965 54.7534 33.6155 54.5027 32.784H54.5044ZM52.4869 26.0675C52.2972 26.0329 52.3335 25.7728 52.2164 25.6641C52.8152 25.5735 52.8086 25.1751 53.023 24.9923C52.3137 24.5773 51.5615 25.129 51.9475 25.9325C52.2857 25.7547 52.3698 26.4643 52.4869 26.0675ZM47.238 35.2012C47.2941 35.6095 47.3633 36.558 47.3732 36.2764C47.5448 35.8516 47.7807 35.3313 47.238 35.2012ZM46.2961 38.6936C46.5138 38.9225 46.9889 38.8171 47.1027 38.5586C46.8388 38.2358 46.4313 38.249 46.2961 38.6936Z" fill="#A46CEA"/>
<path fill-rule="evenodd" clip-rule="evenodd" d="M25.1695 54.5452C25.1629 54.1368 25.092 53.6609 25.5736 53.7383C25.6116 54.1022 25.3839 54.7329 25.9761 54.5452C25.8936 54.6654 25.8145 54.7856 25.9761 54.8136C25.9431 54.9601 25.7089 54.9041 25.7072 55.0819C25.4433 54.9074 25.9167 54.4299 25.1678 54.5452H25.1695Z" fill="#A46CEA"/>
<path fill-rule="evenodd" clip-rule="evenodd" d="M39.0298 60.7232C39.3399 60.6804 39.5461 60.7446 39.7012 60.8582C39.7374 61.2517 39.3976 61.2715 39.4323 61.665C39.4521 61.9137 39.8876 61.7474 39.9717 61.9334C40.1333 61.782 40.2158 61.5498 40.6447 61.665C40.6332 62.4587 40.3181 62.951 39.8381 63.2771C39.8678 64.731 39.9239 65.2859 39.5675 66.3661C39.2756 66.3891 39.5082 65.8902 39.4339 65.6943C38.7609 65.9182 38.7609 66.8123 37.9543 66.9045C37.8421 67.2832 38.144 67.2519 38.0895 67.5763C37.8767 67.5187 37.9741 67.1548 37.5501 67.3079C37.6458 66.8979 37.4132 66.8189 37.4148 66.5011C38.073 66.6213 38.0681 66.0779 38.3568 65.8293C37.8899 65.6251 37.8503 66.101 37.5501 65.4275C37.3324 65.3896 37.3175 65.5543 37.146 65.5609C37.3027 66.1965 37.6392 66.8156 36.7435 66.9045C37.0041 66.5126 36.8688 66.2393 37.0124 65.9643C36.4416 65.8853 36.3888 66.3266 36.2041 66.6345C36.6198 66.9243 36.628 67.9205 36.6082 68.2465C36.3773 68.4227 35.8494 68.1642 35.3958 68.3815C35.4172 68.9875 36.1117 68.9216 36.2024 69.4567C36.5802 68.6993 36.9183 69.5078 37.2812 69.3234C37.0552 69.0994 36.7352 68.971 36.7418 68.5165C37.1163 68.1559 37.4066 68.6417 37.8173 68.6499C37.8883 69.5704 37.2977 69.8322 37.2796 70.6637H36.4713C36.3014 70.2553 36.3674 70.1417 36.6049 69.8585C35.6976 69.7696 34.0926 69.6016 33.375 69.8585V69.4567C33.2134 69.6082 33.1309 69.8404 32.702 69.7251C32.7515 69.4963 32.5964 69.4716 32.4331 69.4567C33.0352 69.1422 34.2163 68.4721 33.6439 67.5763C33.3305 68.2481 32.5981 68.5034 32.4331 69.3234C31.4797 69.0879 31.8657 70.1911 31.2207 70.2636C31.0013 69.595 31.351 68.7685 31.356 68.2481C31.709 68.2086 31.7964 68.4342 31.7585 68.7866C32.255 68.7882 32.3523 68.3947 32.5651 68.1148C32.7317 67.6801 32.1296 68.0127 32.2962 67.578C32.1296 67.1433 32.7317 67.4759 32.5651 67.0412C33.4262 67.6718 33.2497 66.5324 33.3734 65.9676C34.2493 66.3513 34.4308 65.1608 34.18 64.3556C34.5743 64.2008 34.6799 64.2749 34.8531 64.624C35.3463 64.3556 35.4007 63.6492 35.795 63.2804C36.0078 63.2919 36.308 63.2161 36.3327 63.4154C36.7154 62.9016 36.854 62.1442 37.0058 61.3999C37.7118 61.973 37.6276 60.7594 38.0829 61.1315C37.7728 60.7841 38.0664 60.2226 38.6207 60.3247C38.6058 60.6689 38.5448 60.9652 38.3518 61.1315C38.3765 61.2402 38.4854 61.2649 38.4854 61.3999C38.9094 61.4197 38.949 61.0558 39.0248 60.7281L39.0298 60.7232ZM38.8945 62.2018C39.1271 61.9005 38.9803 61.316 38.8945 61.2616C38.7048 61.5564 38.4805 61.9845 38.8945 62.2018ZM37.5485 63.0087C38.2891 63.1667 38.2479 62.5427 38.4904 62.2018C38.2528 62.0816 38.0978 61.8775 37.8173 61.7984C37.654 62.1179 37.1443 62.5361 37.5485 63.007V63.0087ZM34.7227 65.8293C34.99 66.101 35.305 65.7305 35.3941 65.4275C34.9718 65.3633 34.8448 65.5955 34.7227 65.8293Z" fill="#A46CEA"/>
<path fill-rule="evenodd" clip-rule="evenodd" d="M42.5293 65.4258C42.554 65.2726 42.6646 65.3517 42.6646 65.4258C43.0093 65.4126 42.8807 64.9252 43.0671 64.754C43.4613 64.7194 43.4811 65.0569 43.8737 65.0224C43.7599 65.5344 43.2667 65.6695 42.7982 65.8275C42.8048 65.5987 42.6992 65.4801 42.5293 65.4258Z" fill="#A46CEA"/>
<path fill-rule="evenodd" clip-rule="evenodd" d="M30.6861 66.4995C31.3657 66.786 30.2721 66.8832 30.4156 67.4397C30.0494 67.6241 30.5706 66.6971 30.6861 66.4995Z" fill="#A46CEA"/>
<path fill-rule="evenodd" clip-rule="evenodd" d="M49.6611 82.8877C49.6149 83.3981 49.2999 83.3504 48.7192 83.5595C48.6186 82.9223 49.4665 83.2302 49.6611 82.8877Z" fill="#A46CEA"/>
<path fill-rule="evenodd" clip-rule="evenodd" d="M76.3067 17.6037C76.3743 17.7174 75.8729 18.297 76.0378 18.4089C75.8481 18.8008 75.0134 18.5505 74.9606 19.0807C73.7499 18.8716 74.5136 17.4868 73.3457 17.3353C73.5503 16.7771 73.801 16.2683 74.5581 16.2601C74.4625 15.8205 75.1437 15.287 74.827 14.5147C75.2394 14.4176 75.2229 14.7469 75.6353 14.6497C76.1038 16.0032 75.8069 16.787 74.9623 17.6054C74.9953 17.8425 75.1949 17.9116 75.5017 17.8738C75.6436 17.612 75.7722 17.337 75.9058 17.0669H76.7125C77.0226 17.551 76.8494 17.719 76.8477 18.4106C76.117 18.4501 76.8857 17.7733 76.3083 17.6054L76.3067 17.6037Z" fill="#A46CEA"/>
<path fill-rule="evenodd" clip-rule="evenodd" d="M48.1823 75.3662C48.2087 75.9309 47.6693 75.931 47.6429 76.4397C47.1662 76.0248 46.635 77.3174 45.6254 76.5748C45.3648 76.6291 45.6123 77.1906 45.086 76.9782C45.2411 77.1363 45.2378 77.4524 45.2197 77.7834C43.74 78.2065 42.3906 78.3037 41.1831 79.1253C40.7889 79.1599 40.7708 78.8224 40.3765 78.8569C40.4755 78.5737 40.4755 78.3333 40.3765 78.0501C40.0532 78.3992 39.7711 78.7894 39.4346 79.1237C38.7814 79.0661 39.1839 78.1654 38.3574 78.5869C38.6131 77.3948 40.8433 78.5046 41.1831 77.2433C41.8265 77.0934 41.7506 77.6615 42.3956 77.5117C42.7403 77.4985 42.6117 77.0111 42.7981 76.8399C42.9779 76.9749 43.2039 77.0622 43.3375 77.2433C43.6047 77.2433 43.509 76.8777 43.8753 76.9749C43.9396 76.5517 43.707 76.4249 43.4728 76.3031C44.2481 76.4644 44.2382 75.5934 44.9541 75.3629C45.0415 75.7663 45.383 75.9178 45.4918 76.3031C45.8861 75.5078 46.4156 76.061 47.1068 75.8997C47.2899 75.8585 47.2189 75.5638 47.242 75.3629C47.732 75.3793 47.8837 74.7997 48.1856 75.3629L48.1823 75.3662Z" fill="#A46CEA"/>
<path fill-rule="evenodd" clip-rule="evenodd" d="M48.1822 77.5151C48.7002 77.8626 49.1208 78.0816 49.5266 77.9185C49.5778 78.5508 48.8915 78.4488 48.72 78.8588C48.1509 78.89 47.9232 78.5805 47.7781 78.1869C47.7137 77.7654 48.141 77.8329 48.1822 77.5151Z" fill="#A46CEA"/>
<path fill-rule="evenodd" clip-rule="evenodd" d="M70.6554 82.2164C70.2875 81.9019 70.3221 83.1319 70.1176 83.425C69.6887 83.5403 69.7002 83.2142 69.4446 83.1566C69.0421 83.2455 69.5732 83.4431 69.4446 83.6951C68.7484 83.4102 68.5208 84.2862 68.0985 83.8284C67.503 85.1243 65.3107 84.5579 63.6579 85.037C63.356 84.981 63.229 84.7489 62.9848 84.6353C62.0545 85.3993 60.4082 85.4372 59.4861 85.1721C58.9566 84.1462 56.4855 84.194 57.1981 82.7548C57.7474 82.0979 58.2357 82.9113 58.9483 82.3514C59.1463 82.8174 59.9843 82.9903 60.2944 82.6198C61.6883 83.7494 63.9927 82.2395 65.4081 83.2916C65.8798 82.8668 66.0547 82.7483 66.8877 82.8899C67.1269 82.6807 66.9768 82.0847 67.2902 81.9497C68.1562 82.1752 68.4994 81.9628 69.1757 82.0847C69.0685 81.6253 69.3753 81.3174 69.3109 81.9497C69.7992 81.5413 69.857 80.7032 70.3865 80.3376C70.5729 77.1926 67.0906 78.3041 65.2728 78.0538C65.0155 78.2893 64.7763 78.5429 64.5998 78.8606C64.0983 79.0039 64.2154 78.5264 63.7915 78.5923C63.5556 78.7141 63.5457 79.0632 63.389 79.2624C62.0429 79.0434 61.2346 80.4727 60.428 79.9342C59.8424 80.7164 59.3574 80.7114 58.4106 80.7394V81.9497C58.1285 82.0271 58.0262 82.2823 57.6023 82.2181C57.6171 81.6088 57.9338 81.3273 57.3317 81.0095C56.6785 80.8925 56.7082 81.4623 56.2562 81.5462C55.7349 80.7229 53.9814 81.1313 53.2969 80.4727C57.7012 79.5835 60.842 76.725 65.1392 76.1751C67.282 75.4291 68.8062 76.6493 70.6554 76.5768C70.9935 76.9111 71.1486 77.4281 72.0014 77.2486C72.4154 77.955 72.7932 78.6976 73.4827 79.129C73.425 80.9107 72.0162 81.3388 71.3284 82.4865C71.01 82.5655 70.3403 82.33 70.6554 82.2181V82.2164Z" fill="#A46CEA"/>
<path fill-rule="evenodd" clip-rule="evenodd" d="M51.9483 83.5597C52.166 83.3078 52.034 84.5411 52.3524 84.635C52.6394 84.4291 53.0848 84.5411 53.159 84.635C53.1838 85.1504 53.0502 84.6827 52.7566 84.7683C52.9677 86.3622 51.4996 86.2338 50.8727 86.6488C50.3878 86.3787 49.9853 85.4352 50.1997 84.9034C50.7177 84.9231 50.9734 85.2047 51.1416 85.5752C51.3825 85.5933 51.427 85.4105 51.681 85.4402C50.9717 84.8062 52.1264 84.4703 51.9499 83.5597H51.9483Z" fill="#A46CEA"/>
</g>
<defs>
<clipPath id="clip0_295_1674">
<rect width="83" height="102" fill="white"/>
</clipPath>
</defs>
</svg>
