<svg width="78" height="84" viewBox="0 0 78 84" fill="none" xmlns="http://www.w3.org/2000/svg">
<g clip-path="url(#clip0_295_1502)">
<path fill-rule="evenodd" clip-rule="evenodd" d="M14.9789 9.16231C14.8944 9.31053 14.8114 9.45718 14.7284 9.60695C15.2231 9.74892 14.7911 10.1483 15.3828 10.2653C15.8666 9.75672 15.9245 9.43222 16.2595 8.713C16.6932 8.83937 16.69 9.09055 16.6274 9.35577C16.9906 9.24968 17.0423 8.4353 16.6838 8.21844C15.8008 8.14512 15.9355 9.63815 14.9789 9.16231Z" fill="#FC751A"/>
<path fill-rule="evenodd" clip-rule="evenodd" d="M13.8892 26.6611C13.7092 26.8983 13.6669 27.0964 13.6873 27.2789C13.9049 27.2774 14.0505 27.0122 14.2227 26.8483C14.1115 26.7859 14.0004 26.7235 13.8892 26.6611Z" fill="#FC751A"/>
<path fill-rule="evenodd" clip-rule="evenodd" d="M13.7975 34.3494C13.7145 35.2043 14.9403 35.6817 14.9028 36.2839C15.6683 36.2839 15.5164 37.025 16.0503 37.3651C17.071 37.05 15.7481 36.4399 15.947 35.9922C15.7466 36.1669 15.3411 35.6162 15.1548 35.8393C15.0452 35.6505 14.8949 35.4758 15.0718 35.209C14.8041 35.0374 14.5427 34.8845 14.3893 35.1185C14.0715 34.8081 14.5161 34.8627 14.4175 34.5506C14.1795 34.3712 13.9791 34.3291 13.7975 34.3494Z" fill="#FC751A"/>
<path fill-rule="evenodd" clip-rule="evenodd" d="M14.4316 36.6037C13.9745 36.3151 13.616 36.3712 13.1933 36.2012C11.9519 37.4992 13.8712 37.6458 14.4316 36.6037Z" fill="#FC751A"/>
<path fill-rule="evenodd" clip-rule="evenodd" d="M13.7417 37.8232C13.474 38.2102 14.3225 38.2835 13.8106 38.7375C13.9593 38.8217 14.108 38.9044 14.2568 38.9871C14.2568 38.8498 13.9656 38.3396 14.285 38.4192C14.2928 38.168 14.0752 37.9793 13.7433 37.8232H13.7417Z" fill="#FC751A"/>
<path fill-rule="evenodd" clip-rule="evenodd" d="M14.3899 37.4551C14.0955 37.7562 14.3711 37.8966 14.2991 38.1353C14.5902 38.2804 14.8204 38.2149 14.9941 37.9418C14.609 37.8311 14.6529 37.6002 14.3899 37.4566V37.4551Z" fill="#FC751A"/>
<path fill-rule="evenodd" clip-rule="evenodd" d="M14.4302 38.9392C14.7214 39.0859 15.0141 39.2403 15.1738 38.9189C14.867 38.7192 14.5742 38.5648 14.4302 38.9392Z" fill="#FC751A"/>
<path fill-rule="evenodd" clip-rule="evenodd" d="M15.1676 37.8926C15.2584 38.4979 15.93 38.3606 16.4404 38.7538C16.7316 38.3918 16.7879 38.2109 17.1777 37.7069C16.8772 37.4136 16.7347 37.6882 16.4967 37.618C16.2447 37.8754 16.5922 37.9644 16.4686 38.1859C16.0662 38.1937 15.5512 37.8115 15.1676 37.8942V37.8926Z" fill="#FC751A"/>
<path fill-rule="evenodd" clip-rule="evenodd" d="M14.312 40.1872C15.0321 40.2481 15.3014 40.777 15.8008 40.1451C15.4971 39.4181 14.373 39.2824 14.312 40.1872Z" fill="#FC751A"/>
<path fill-rule="evenodd" clip-rule="evenodd" d="M14.0123 40.459C13.8652 40.6244 13.981 40.718 14.1094 40.8053C13.9685 41.186 13.6225 41.1033 13.7337 41.4699C14.3348 41.938 14.7732 41.8335 15.1113 41.367C14.626 41.0971 14.6855 40.6774 14.0123 40.459Z" fill="#FC751A"/>
<path fill-rule="evenodd" clip-rule="evenodd" d="M34.41 5.89263C35.379 6.0346 36.4498 5.16405 35.1129 4.38867C34.7935 5.03144 34.0264 5.29822 34.41 5.89263Z" fill="#FC751A"/>
<path fill-rule="evenodd" clip-rule="evenodd" d="M15.287 38.9814C15.2244 39.2966 16.1387 40.0111 16.3516 39.4323C15.7457 39.1031 15.7332 39.1515 15.287 38.9814Z" fill="#FC751A"/>
<path fill-rule="evenodd" clip-rule="evenodd" d="M12.9428 43.6541C12.7721 43.9599 13.3185 44.2127 13.5471 44.1393C13.749 43.6807 13.2778 43.52 12.9428 43.6541Z" fill="#FC751A"/>
<path fill-rule="evenodd" clip-rule="evenodd" d="M14.4999 42.192C14.1899 42.6194 14.8287 42.2606 14.8193 42.6631C14.4044 42.9003 14.5406 43.373 14.0819 43.71C14.1132 44.0548 15.1684 43.6226 14.561 44.4183C15.0244 44.6632 15.4799 44.9097 15.5488 45.2639C15.3969 45.5026 15.0494 45.047 14.8177 45.0002C14.7081 45.4542 15.3641 45.1796 15.0745 45.5821C15.4423 45.554 15.8055 45.5119 16.2658 45.8099C16.568 45.5088 15.9903 45.4511 16.0075 45.228C16.2455 44.9581 16.546 44.9206 16.7793 44.6382C15.5128 44.5322 14.9821 43.0859 15.1934 41.9954C14.9132 41.8846 14.7504 42.1982 14.4983 42.1904L14.4999 42.192Z" fill="#FC751A"/>
<path fill-rule="evenodd" clip-rule="evenodd" d="M27.9505 18.6279C27.9098 18.9197 28.0037 19.174 28.4295 19.3347C28.8397 18.8417 28.3215 18.6732 27.9505 18.6279Z" fill="#FC751A"/>
<path fill-rule="evenodd" clip-rule="evenodd" d="M8.87043 53.1982C8.56516 53.5337 8.72953 53.7365 8.71701 53.9892C8.95497 54.1671 9.02228 53.738 9.23832 53.8441C9.24615 53.593 9.24772 53.3433 8.86886 53.1998L8.87043 53.1982Z" fill="#FC751A"/>
<path fill-rule="evenodd" clip-rule="evenodd" d="M8.40325 54.5452C8.00718 54.8416 8.74453 54.8229 8.55041 55.0647C8.8416 55.2114 8.98093 54.8166 9.14844 54.5249C8.87917 54.4594 8.65687 54.5561 8.40325 54.5452Z" fill="#FC751A"/>
<path fill-rule="evenodd" clip-rule="evenodd" d="M8.07584 55.3832C7.88484 55.6858 8.1682 55.8559 8.44529 56.0275C8.63316 55.5829 8.96505 55.6546 9.26562 55.6125C9.08872 55.0041 8.4406 55.5532 8.07584 55.3832Z" fill="#FC751A"/>
<path fill-rule="evenodd" clip-rule="evenodd" d="M36.9215 4.81728C37.2596 5.21979 37.3489 6.0919 37.9453 6.12154C37.9203 5.59734 37.5383 4.60978 36.9215 4.81728Z" fill="#FC751A"/>
<path fill-rule="evenodd" clip-rule="evenodd" d="M11.7432 51.745C11.5929 52.2021 12.2692 52.2146 12.4258 51.8339C12.1252 51.5406 11.9827 51.8152 11.7432 51.745Z" fill="#FC751A"/>
<path fill-rule="evenodd" clip-rule="evenodd" d="M9.22364 56.4655C9.49603 56.5108 9.86706 56.3875 9.7606 56.0365C9.50856 55.9164 9.36297 56.1816 9.22364 56.4655Z" fill="#FC751A"/>
<path fill-rule="evenodd" clip-rule="evenodd" d="M12.5797 51.0443C12.2744 51.492 13.0071 51.4109 13.1855 51.5295C13.1151 51.2908 12.7707 50.9819 12.5797 51.0443Z" fill="#FC751A"/>
<path fill-rule="evenodd" clip-rule="evenodd" d="M15.3831 46.3368C15.0638 46.9858 16.2207 46.9328 16.0657 46.4273C15.7698 46.1527 15.6806 46.6114 15.3831 46.3368Z" fill="#FC751A"/>
<path fill-rule="evenodd" clip-rule="evenodd" d="M10.5052 56.0147C10.704 56.049 10.6977 55.9788 11.0766 56.0428C11.0829 55.7916 11.0876 55.542 10.7071 55.3984C10.5553 55.5248 10.513 56.0443 10.2829 55.8914C10.2093 55.9741 10.2672 56.0209 10.3314 56.0646C10.405 56.1052 10.4801 56.1489 10.5537 56.1894C10.6273 56.1067 10.5694 56.0599 10.5052 56.0147Z" fill="#FC751A"/>
<path fill-rule="evenodd" clip-rule="evenodd" d="M13.3375 50.7385C13.4862 50.8228 13.6334 50.9054 13.7821 50.9881C13.6052 50.7884 14.2251 50.3656 13.7618 50.2471C13.6569 50.5404 13.4236 50.3734 13.3375 50.7385Z" fill="#FC751A"/>
<path fill-rule="evenodd" clip-rule="evenodd" d="M16.942 44.874C16.7087 45.2188 16.7714 45.4809 17.0735 45.679C17.1455 45.2594 17.205 45.4216 17.4492 45.0129C17.2441 44.835 17.1111 44.9239 16.942 44.874Z" fill="#FC751A"/>
<path fill-rule="evenodd" clip-rule="evenodd" d="M14.9568 51.5028C15.4108 51.5996 15.8883 51.4077 15.9023 50.8647C15.6597 50.6697 15.5454 50.9318 15.2824 50.665C15.154 51.1112 14.5858 51.1487 14.9552 51.5028H14.9568Z" fill="#FC751A"/>
<path fill-rule="evenodd" clip-rule="evenodd" d="M12.668 55.0382C12.942 55.2347 13.1205 55.0881 13.252 54.7807C12.978 54.5826 12.8011 54.7293 12.668 55.0382Z" fill="#FC751A"/>
<path fill-rule="evenodd" clip-rule="evenodd" d="M37.289 14.8091C37.5097 14.7077 37.7806 14.7795 37.9355 14.4409C37.8494 13.9401 36.5814 14.7966 36.9336 13.8793C36.2511 13.8184 36.8006 14.6188 37.289 14.8091Z" fill="#FC751A"/>
<path fill-rule="evenodd" clip-rule="evenodd" d="M24.6296 36.1885C24.3337 36.5286 24.7955 36.8047 25.0601 36.722C25.1806 36.4693 24.9145 36.3258 24.6296 36.1885Z" fill="#FC751A"/>
<path fill-rule="evenodd" clip-rule="evenodd" d="M29.3479 28.6113C29.1491 28.8843 29.4199 29.0279 29.6062 29.1948C29.9256 28.8875 29.6563 28.7439 29.3479 28.6113Z" fill="#FC751A"/>
<path fill-rule="evenodd" clip-rule="evenodd" d="M39.926 11.1768C39.7851 11.6354 40.3331 11.5247 40.5945 11.5512C40.6352 11.4155 40.4161 11.3515 40.4975 11.2048C40.2752 11.0832 40.1844 11.4279 39.926 11.1768Z" fill="#FC751A"/>
<path fill-rule="evenodd" clip-rule="evenodd" d="M38.7844 13.458C38.7719 13.7419 38.8423 14.0025 38.9159 14.263C39.276 14.2459 39.0537 13.6093 38.7844 13.458Z" fill="#FC751A"/>
<path fill-rule="evenodd" clip-rule="evenodd" d="M38.0238 16.0986C37.6261 16.4278 38.2101 16.484 37.933 16.7788C38.1944 16.9286 38.3697 16.771 38.6641 17.0425C38.5028 16.6618 38.5748 16.1127 38.0238 16.0986Z" fill="#FC751A"/>
<path fill-rule="evenodd" clip-rule="evenodd" d="M40.7676 11.5025C40.4921 11.7958 40.9523 11.8863 40.6768 12.1812C41.5253 12.1781 41.267 12.9971 41.4142 13.4698C41.6866 13.4355 41.8509 13.0205 42.1719 13.1656C41.995 12.3793 41.2263 12.2654 40.7676 11.501V11.5025Z" fill="#FC751A"/>
<path fill-rule="evenodd" clip-rule="evenodd" d="M42.7563 8.2373C42.6937 8.34807 42.6311 8.4604 42.5685 8.56961C42.8941 8.66634 42.9426 8.83951 42.7141 9.09069C43.2964 9.43704 43.2886 8.56649 43.3262 8.26539C43.1289 8.2295 42.9536 8.27163 42.7563 8.2373Z" fill="#FC751A"/>
<path fill-rule="evenodd" clip-rule="evenodd" d="M39.6121 14.0674C39.2661 14.3591 40.2117 14.7601 40.3291 14.615C40.6735 14.3217 39.7295 13.9207 39.6121 14.0674Z" fill="#FC751A"/>
<path fill-rule="evenodd" clip-rule="evenodd" d="M32.019 30.1088C31.9344 30.257 31.8515 30.4052 31.7685 30.5534C32.3775 31.0558 32.689 30.4926 33.1947 30.6236C33.3105 30.2788 32.7751 30.1182 32.6029 29.8545C32.4699 30.1618 32.3274 30.4302 32.019 30.1104V30.1088Z" fill="#FC751A"/>
<path fill-rule="evenodd" clip-rule="evenodd" d="M41.037 18.8105C40.9165 19.2692 40.9305 19.795 41.502 19.8028C41.2969 19.4861 41.4049 19.082 41.037 18.8105Z" fill="#FC751A"/>
<path fill-rule="evenodd" clip-rule="evenodd" d="M42.9658 17.9916C42.9298 18.575 43.426 18.6983 43.9035 18.6655C43.9849 18.171 43.2961 17.9198 42.9658 17.9916Z" fill="#FC751A"/>
<path fill-rule="evenodd" clip-rule="evenodd" d="M44.2028 18.3936C43.8036 18.9505 44.6349 19.3093 44.0838 19.6417C44.7288 19.871 44.649 19.3639 44.9824 18.8304C44.8431 18.7758 44.7977 18.6962 44.8212 18.5948C44.5582 18.3265 44.4455 18.5901 44.2028 18.3936Z" fill="#FC751A"/>
<path fill-rule="evenodd" clip-rule="evenodd" d="M42.6155 22.7623C42.7642 22.8465 42.9129 22.9292 43.0616 23.0119C43.3904 22.6328 42.7689 22.2849 42.6155 22.7623Z" fill="#FC751A"/>
<path fill-rule="evenodd" clip-rule="evenodd" d="M38.0692 37.2991C38.3228 37.5035 37.7843 37.5565 37.6105 37.3334C37.6684 37.6127 38.3573 38.1026 38.8347 38.0199C39.0336 37.7469 38.7627 37.6049 38.578 37.438C38.8238 37.0901 39.2355 37.3319 39.4609 36.9106C38.8676 37.0292 39.2308 36.2835 38.758 36.0791C38.3228 36.1914 38.8582 36.4473 38.4935 36.8077C37.9283 37.115 37.9987 36.3849 37.5541 36.1353C37.1675 36.5237 37.5448 36.6985 37.3381 37.037C37.7874 37.1197 37.7686 37.3818 38.0676 37.3007L38.0692 37.2991Z" fill="#FC751A"/>
<path fill-rule="evenodd" clip-rule="evenodd" d="M44.7435 23.6641C44.6354 24.0057 44.5102 24.3521 44.9877 24.5299C45.2585 24.2319 45.1865 24.3614 45.3008 23.9761C45.1145 23.8716 44.9298 23.767 44.7435 23.6641Z" fill="#FC751A"/>
<path fill-rule="evenodd" clip-rule="evenodd" d="M38.7113 38.2429C38.6956 38.6205 39.1856 38.8576 39.3516 39.1868C39.2827 38.764 39.3375 37.9777 38.7113 38.2429Z" fill="#FC751A"/>
<path fill-rule="evenodd" clip-rule="evenodd" d="M38.8846 42.8671C38.822 42.9778 38.7594 43.0886 38.6968 43.1994C39.0678 43.1853 39.575 43.6549 39.9351 43.6019C40.1104 43.3335 39.838 43.1931 39.8521 42.9716C39.4107 42.5145 39.3136 43.2789 38.8846 42.8671Z" fill="#FC751A"/>
<path fill-rule="evenodd" clip-rule="evenodd" d="M44.3391 34.2433C45.1344 34.8486 45.7199 34.7082 46.127 33.9313C45.3473 33.3525 44.4127 33.3447 44.3391 34.2433Z" fill="#FC751A"/>
<path fill-rule="evenodd" clip-rule="evenodd" d="M43.7206 36.379C43.4154 37.1279 44.696 37.1684 44.3813 38.0639C44.7961 38.2044 45.1061 37.9735 45.377 37.6006C44.937 37.7254 44.8525 37.0467 44.4721 37.3853C44.3876 37.1591 44.5425 36.8673 44.4517 36.6442C44.1856 36.4757 43.9242 36.326 43.7206 36.3806V36.379Z" fill="#FC751A"/>
<path fill-rule="evenodd" clip-rule="evenodd" d="M33.6715 54.6944C33.5807 54.813 33.5854 54.905 33.6574 54.9783C33.8108 55.3559 34.5043 55.5197 34.6875 54.9721C34.293 54.6803 33.958 54.6055 33.6715 54.6944Z" fill="#FC751A"/>
<path fill-rule="evenodd" clip-rule="evenodd" d="M28.2784 65.5439C28.8436 65.82 28.997 65.313 28.7653 64.9401C28.4585 64.7716 28.2064 65.3145 28.2784 65.5439Z" fill="#FC751A"/>
<path fill-rule="evenodd" clip-rule="evenodd" d="M45.389 37.3147C45.5581 37.3583 45.6739 37.2179 45.8477 37.2803C46.0355 36.7749 45.1855 36.8419 45.389 37.3147Z" fill="#FC751A"/>
<path fill-rule="evenodd" clip-rule="evenodd" d="M38.4302 53.2737C38.2893 54.6451 39.9863 54.3845 40.5859 53.606C40.5139 53.5015 40.4419 53.397 40.4889 53.2597C39.6498 53.085 39.0721 53.5717 38.4302 53.2722V53.2737Z" fill="#FC751A"/>
<path fill-rule="evenodd" clip-rule="evenodd" d="M58.2142 19.5342C58.1203 19.7042 58.9015 20.2409 58.9453 19.7978C58.651 19.5264 58.4757 19.684 58.2142 19.5342Z" fill="#FC751A"/>
<path fill-rule="evenodd" clip-rule="evenodd" d="M44.8515 47.0889C44.731 47.3416 44.9971 47.4851 45.2836 47.6224C45.4668 47.209 45.1521 47.1731 44.8515 47.0889Z" fill="#FC751A"/>
<path fill-rule="evenodd" clip-rule="evenodd" d="M41.5047 53.5371C41.4421 53.6479 41.3795 53.7602 41.3168 53.8694C41.6518 54.1736 41.8554 54.0098 42.1105 54.0223C42.253 53.6198 41.7802 53.6276 41.5047 53.5371Z" fill="#FC751A"/>
<path fill-rule="evenodd" clip-rule="evenodd" d="M53.9821 33.5174C53.5563 33.8544 54.4408 33.8248 54.2388 34.0994C54.6459 34.1196 54.3437 33.3099 53.9821 33.5174Z" fill="#FC751A"/>
<path fill-rule="evenodd" clip-rule="evenodd" d="M38.8957 61.2754C38.8597 61.4236 39.1665 61.9291 39.3904 61.6982C39.4327 61.6249 39.4734 61.5515 39.5156 61.4766C39.2526 61.2083 39.1383 61.4704 38.8957 61.2754Z" fill="#FC751A"/>
<path fill-rule="evenodd" clip-rule="evenodd" d="M68.0459 13.8008C68.647 14.0489 69.0118 13.4561 69.6458 13.8211C69.7726 13.6308 69.6411 13.5107 69.7852 13.3156C69.0556 12.9147 68.1382 12.9615 68.0459 13.8008Z" fill="#FC751A"/>
<path fill-rule="evenodd" clip-rule="evenodd" d="M41.3809 3.6694C41.1117 3.91278 41.2447 3.28405 41.2353 3.14832C40.8643 2.94083 40.4933 2.73333 40.1223 2.52427C40.0252 2.73177 39.8546 2.68185 39.7606 2.90494C39.6009 2.66937 39.8624 2.31678 39.4538 2.14985C39.0327 1.98447 38.7806 2.42131 38.4096 2.44159C38.0793 2.15921 38.4096 1.69429 38.1168 1.40099C37.6722 1.04372 37.4578 1.50396 37.0883 1.40723C36.8597 1.15917 37.2636 0.734817 37.1932 0.443074C36.8284 0.5242 36.1083 0.594406 36.1834 1.19193C35.886 1.01096 35.8547 1.25122 35.7373 0.942313C35.839 0.602206 36.5341 0.705174 36.3353 0.402511C35.8453 0.421232 35.5197 0.508599 35.097 0C35.1439 0.592846 35.1815 0.229338 34.798 0.269901C34.5725 0.737937 35.3459 0.469596 35.2786 0.976635C34.9498 1.14045 34.6023 1.24186 34.2829 1.44155C33.8727 1.19817 34.0371 1.13889 33.616 1.06712C33.2183 1.09988 33.0696 2.01412 32.5092 1.46807C30.7214 2.3355 29.793 5.41206 28.2651 6.39025C28.0584 6.29197 28.107 6.12347 27.8831 6.02987C27.5763 6.49166 27.116 6.41366 26.8123 6.88949C26.0123 6.29665 25.5333 6.7522 24.4953 6.32005C24.5313 6.55563 24.4656 6.67264 24.2448 6.76468C24.0977 6.61803 24.3466 6.36217 23.9255 6.29353C23.4777 6.90665 23.2382 7.60091 22.3662 7.75692C22.2786 7.52134 22.5431 7.38093 22.8046 6.98154C22.4789 6.48854 22.3318 7.10167 22.2833 7.12663C21.2406 7.64771 20.5346 7.25924 19.3401 7.66643C19.0364 8.0003 19.1695 8.21247 19.3605 8.40749C19.1648 8.68987 18.6544 8.56662 18.7624 8.94885C18.4196 8.8568 18.6763 8.59782 18.6168 8.42777C17.5632 8.66179 16.8619 10.0706 15.9664 10.0082C15.7269 10.5542 15.6987 10.8335 15.2776 11.2282C14.8361 10.6993 14.4698 11.1439 13.8655 10.874C13.8796 11.5012 14.7594 11.3046 14.9645 11.7836C14.6154 12.2891 14.3555 11.1705 14.1567 11.9146C13.6135 11.7867 13.77 11.4622 13.5039 11.2563C13.3426 11.9646 13.2033 12.6963 12.516 12.7477C12.5912 13.3702 12.2562 13.5528 11.8272 13.9662C12.0652 14.1472 12.264 14.1893 12.4472 14.1675C12.2656 14.5247 11.9462 14.389 11.6394 14.3001C11.0585 15.0848 11.165 15.6776 10.9098 16.3735C11.2104 16.6668 11.3529 16.3922 11.5908 16.4624C11.8069 16.542 11.3544 16.8977 11.1791 16.6699C11.2245 17.0615 11.0585 17.5139 11.7568 17.7245C11.4906 18.0007 11.1822 18.127 10.8738 18.2518C10.4934 18.6466 11.5924 19.1645 10.8316 19.1037C10.7408 19.3798 11.3544 19.4578 11.5486 19.6528C11.8961 19.3315 12.2468 19.0179 12.815 19.4859C12.6037 19.6232 12.3908 19.7558 12.0699 19.5062C11.5376 20.4859 12.6288 20.4516 12.383 21.2878C12.7023 21.5359 12.8464 21.1552 13.1266 21.2676C13.1845 21.9197 12.7556 22.0882 12.3751 22.5999C12.8636 22.7185 13.0389 23.4034 12.7916 23.4174C13.2174 23.6046 13.626 24.1897 13.8906 24.3254C14.0236 24.1631 13.8937 24.0758 13.9673 23.9307C14.368 24.1351 14.6436 23.8917 15.0459 24.0976C14.8737 24.5969 14.4714 24.2786 14.3226 24.8605C15.3559 25.8933 15.694 24.9011 16.973 25.6156C16.5112 26.3068 15.7707 26.0088 15.0741 25.8652C15.0396 26.1336 15.2385 26.4815 15.5062 26.3988C15.2933 26.976 14.8314 26.6687 14.6076 27.2101C14.8784 27.3208 15.0115 27.4706 14.9285 27.6812C14.8565 27.7592 14.7547 27.728 14.6921 27.8403C14.2099 27.7265 14.7516 27.3255 14.3242 27.1945C13.9391 27.4004 13.9469 27.441 13.7747 27.909C14.0549 28.2865 14.7062 28.9496 15.2212 28.7203C15.3199 28.4738 14.8659 28.3833 14.9645 28.1383C15.1633 27.6235 15.5829 27.8887 15.8005 27.4378C16.3609 27.5938 16.2467 27.9371 16.5644 28.1586C16.9511 28.1118 16.7163 27.1898 17.3378 27.5689C17.8309 27.6173 17.1922 27.9839 17.4834 28.0884C17.8998 28.168 17.7386 27.3879 17.8873 26.8544C18.1581 26.5236 18.3977 26.9308 18.6184 27.118C19.2383 26.6781 20.5315 26.2896 20.1416 25.1975C18.2583 25.7435 18.5542 23.4548 16.8165 23.0399C16.8713 22.8246 16.0212 21.8588 15.4467 21.8339C14.9895 20.5281 14.3571 19.2722 13.9798 17.9445C14.2882 16.8618 14.7359 15.7401 14.4181 14.8305C15.4702 13.0722 17.485 11.2141 19.0113 9.8116C19.1303 9.68055 19.3417 9.87556 19.5186 9.95045C19.5875 9.71331 20.0477 9.36696 19.6094 9.2718C19.9898 9.29052 20.3514 9.24527 20.7506 9.3264C20.677 8.81312 21.4927 8.64931 21.7322 9.14699C22.1017 8.90829 22.4883 8.72263 22.9987 8.98005C23.3243 8.5167 22.4852 8.37629 22.7059 7.94101C23.1052 7.8006 23.6734 8.27332 24.021 7.94725C24.3529 8.29204 24.5157 8.68207 24.7098 9.0643C25.5129 9.25463 26.2205 9.10174 26.8953 8.82872C27.9222 9.40753 27.9786 9.50113 28.6142 9.93797C28.7864 9.67119 28.633 9.49645 28.705 9.25931C28.824 9.12826 29.0353 9.32328 29.2122 9.39661C29.1308 9.99881 29.3891 9.98945 30.0263 10.2921C30.1312 9.99881 30.366 10.1657 30.4505 9.79912C30.748 9.96605 31.0439 10.1314 31.3413 10.2984C31.5887 9.98009 31.5229 9.74919 31.1472 9.60566C31.335 9.27648 31.7515 9.75699 32.0019 9.64779C32.1335 9.76791 31.9362 9.97853 31.8626 10.1548C32.3511 10.2281 32.9553 10.7087 33.3373 10.3966C33.6207 10.4294 33.6755 10.9645 33.3718 10.8553C33.5862 11.1642 34.5913 11.4248 34.8606 10.8132C35.3412 10.3015 35.85 11.3826 36.1756 10.8194C36.2821 10.9146 36.1271 11.0815 36.2727 11.1658C35.7748 11.172 35.3067 11.2906 34.7839 11.2079C34.7072 11.4466 35.1658 11.5387 34.8668 11.8382C35.4351 11.9692 35.8437 11.5371 36.4167 11.6869C36.6703 11.8023 36.2461 12.1081 36.2163 12.3031C36.3556 12.3577 36.401 12.4388 36.376 12.5387C36.7016 12.6931 36.8848 12.3484 37.1838 12.4076C37.6848 12.8788 37.7724 13.8976 38.4769 14.0099C38.6773 13.7353 37.7943 13.7634 38.2186 13.4264C38.8025 13.3905 39.2597 12.9022 39.8467 12.8788C39.9673 12.6261 39.7011 12.4825 39.4162 12.3452C39.6495 12.0629 39.9704 12.0987 40.2851 12.1034C40.1332 11.704 39.3552 11.3062 38.79 11.1174C38.9325 10.6463 39.4538 10.8038 39.3395 10.4029C38.6836 10.1657 38.0542 10.3171 37.691 10.2079C37.3106 10.6041 37.3857 10.6821 37.1274 11.2063C36.8456 11.4794 37.1055 10.8553 36.7454 10.846C37.082 10.3155 37.3967 9.79288 36.7533 9.53546C36.6687 9.68367 36.5858 9.83188 36.5028 9.98009C36.437 9.75543 36.174 9.60878 35.947 9.66807C35.6386 9.41065 35.9502 8.98161 35.5932 8.73823C35.2066 9.1267 35.5838 9.30144 35.3772 9.63842C35.6731 9.8038 35.9893 10.0378 36.2194 9.96449C36.4276 10.3062 35.8484 10.6119 35.6214 10.5043C35.4852 10.2937 35.0234 10.1735 35.2535 9.85996C34.87 9.69459 34.344 10.1236 34.1263 9.51985C34.3737 9.0643 34.9107 9.63998 35.122 9.05494C34.5835 8.89893 33.4626 9.5417 33.3138 8.62435C33.508 8.53542 33.7694 8.69143 33.9463 8.54166C33.6301 7.77876 32.4262 8.39033 32.2759 7.60559C32.589 7.24832 32.625 7.81464 33.1182 7.93009C33.5706 7.43085 32.409 7.38093 32.6516 6.93942C32.863 6.80212 33.1557 6.95502 33.3953 6.91913C33.5033 6.32473 33.6316 6.02519 33.8618 5.57275C33.115 5.32313 33.3561 6.61023 32.6657 6.65547C32.0442 6.1734 31.717 5.99086 31.094 6.06575C30.8826 6.54003 30.6165 6.81461 30.211 6.59151C30.1703 7.42305 29.3014 7.38405 29.5081 8.09546C29.2294 8.36693 29.3093 7.7928 28.9508 7.78188C29.184 7.32633 29.7445 7.06423 29.4658 6.61023C30.773 6.47918 29.9449 4.4401 31.2756 4.70376C31.2505 4.49315 31.1033 4.31529 31.0172 4.12184C31.6935 3.8535 32.9099 3.74273 33.1322 2.97203C33.616 2.67249 34.3487 3.08748 34.524 2.58356C34.9404 2.84566 35.8421 2.64596 36.0895 2.14673C37.1509 3.42446 38.8526 2.85034 39.0671 4.39954C43.2376 6.47762 45.6908 9.55418 47.5678 12.963C47.8308 13.0114 48.0124 12.768 48.2645 12.7696C48.4007 13.2205 47.834 13.7228 47.7839 14.3984C48.8562 15.9647 49.4339 17.9055 51.3454 18.7324C51.1309 19.0865 50.6378 18.4375 50.475 18.9742C51.098 19.3346 50.4985 19.4609 50.4812 19.9992C51.037 20.748 51.228 21.5983 51.0996 22.5375C51.8291 23.3924 52.2393 24.3379 52.6229 25.2896C52.2111 25.2225 52.2377 25.7233 52.3583 26.0166C52.8843 26.1242 52.4569 25.7716 52.6714 25.4627C52.8045 25.2662 53.0863 25.6047 53.2428 25.4908C53.5356 25.7498 53.0017 25.6687 52.9923 25.9339C52.9876 26.1086 53.5841 25.6125 53.9598 26.0368C53.3555 26.6157 52.6416 26.4191 52.352 27.3271C52.9266 27.5704 52.424 28.1165 53.1035 28.3333C52.9673 28.4051 52.7825 28.3037 52.6933 28.5408C53.0268 30.0074 54.8349 31.6268 53.7359 32.9232C54.2854 33.4318 54.5735 33.009 55.0854 33.3881C55.3688 34.3882 54.2729 34.293 53.75 34.9748C54.1508 35.3991 54.4467 35.2728 54.8005 35.7096C54.658 36.0903 54.2259 35.4413 54.1054 35.9031C54.7238 36.5162 53.7845 38.0935 53.7641 39.3618C53.4855 39.6349 53.4432 39.0951 53.2084 39.0498C53.1833 35.7236 51.743 32.7922 51.3861 29.558C50.2073 27.7389 50.3732 25.5423 49.6202 23.6031C49.3729 23.5048 49.3149 24.0789 49.0347 23.8589C48.8359 23.7279 48.7044 23.5781 48.7153 23.3878C48.803 23.3035 49.3744 23.369 49.2226 23.5266C49.4809 23.6483 49.2367 23.1662 49.5357 22.9712C49.1161 22.5281 48.7764 22.0617 48.0531 21.7013C47.9702 21.8495 47.8872 21.9961 47.8027 22.1444C47.6101 21.8869 47.2954 21.6638 47.56 21.2785C47.7181 20.9524 48.2112 21.8214 48.3036 21.2582C47.9075 21.3409 47.6054 20.8323 47.3643 20.5858C47.6383 20.3408 47.6242 20.9353 48.0328 20.9602C48.1972 19.6996 47.3988 18.7074 46.4751 17.7495C46.3718 17.9351 46.2669 18.1192 46.162 18.3033C46.3107 18.386 46.4579 18.4703 46.6082 18.553C46.5236 18.8119 46.3671 18.8041 46.2465 18.9336C45.744 18.4812 45.982 17.8228 45.1757 17.4562C45.3432 17.1598 45.6626 17.4125 45.8223 17.088C45.625 16.8945 45.661 16.6356 45.2806 16.492C44.8579 16.5435 44.5855 17.1364 44.1597 17.1769C43.6744 17.0318 44.2505 16.5903 43.6791 16.4702C43.8967 16.0224 44.3194 16.3017 44.6607 16.2908C44.9284 15.7494 44.1738 15.492 44.5573 14.9179C43.3159 14.8149 43.3707 12.559 42.2326 13.3234C42.0932 13.7665 42.8556 13.5028 42.7132 14.0302C42.4142 14.3937 42.3375 13.481 42.0932 13.8289C41.5923 13.96 42.3484 14.1534 42.0024 14.5076C40.7297 14.4046 41.8725 13.2579 40.7438 13.364C40.5293 13.1035 41.1367 13.0239 41.1821 12.5871C40.8627 12.3359 40.7391 12.7867 40.39 12.4342C40.4526 13.2766 39.4553 12.8242 39.4788 13.5294C40.1003 14.1503 40.4995 13.467 40.8283 13.9943C40.7062 14.7275 40.9144 15.2346 41.788 15.4078C42.0838 15.1082 41.8067 14.9678 41.8788 14.7291C42.2639 14.5965 42.7961 15.2143 42.4063 15.609C42.6678 15.4951 43.2454 15.6262 43.3613 15.9975C43.1938 16.1831 42.9637 16.1426 42.8243 16.4265C43.64 16.5264 43.9797 17.18 43.6243 17.606C44.0595 17.9273 45.4184 18.0334 45.2806 18.826C46.0305 18.8946 46.6755 19.723 46.8101 20.2691C46.6301 20.6295 46.3045 20.4735 46.1495 20.9212C45.8708 20.8104 45.7315 20.6638 45.6548 20.4984C45.8708 20.0444 46.3232 20.4267 46.5393 19.9711C46.126 19.6981 45.5843 19.6435 45.016 19.5545C45.0865 19.8915 45.4074 19.8167 44.9863 20.124C45.6563 20.5483 45.4106 21.6607 45.9319 21.823C46.1777 21.5671 45.8223 21.4797 45.7863 21.3034C45.9945 21.163 46.3827 21.3955 46.2591 20.9852C47.4254 20.8026 46.234 22.2614 46.2857 22.7528C46.5268 22.8292 46.5816 22.2504 46.9197 22.6701C47.0074 22.901 46.2825 23.0586 46.5925 23.5095C46.9338 23.6124 47.0841 23.0367 47.4614 23.2661C47.7901 23.4861 47.7197 23.8184 47.8794 24.0836C47.7306 24.1553 47.5365 23.9088 47.1968 23.9947C47.0716 24.2162 46.9463 24.4377 46.8211 24.6593C47.715 24.8371 47.25 25.5641 48.1283 25.9776C48.0375 26.5423 47.524 25.6063 47.4332 26.171C48.468 26.6094 48.4351 27.3068 49.1709 28.0229C48.4132 29.129 49.3165 30.5191 50.1447 31.4895C50.0523 31.5035 49.5905 32.3553 49.5952 32.204C49.5764 33.0246 50.4953 32.9263 50.4296 33.8406C50.1901 34.2119 49.6093 33.3663 49.401 33.8468C48.9157 33.3569 48.7576 32.2836 49.2132 31.8436C48.9627 31.165 48.886 30.4395 48.1079 29.9091C47.3079 30.3989 47.5944 30.9138 46.6113 31.2617C46.2919 31.6314 46.8994 31.7422 46.7428 32.0667C47.3189 32.0979 47.6289 32.2664 48.1424 32.7048C48.0797 32.8156 48.0171 32.9263 47.9545 33.0371C47.834 33.1682 47.6242 32.9716 47.4473 32.8983C47.3126 33.4334 47.7259 33.8172 47.6633 34.3336C47.9216 34.5863 48.0109 34.2384 48.2332 34.3617C48.5901 35.3523 48.9564 36.3399 49.52 37.2744C49.8002 37.382 50.0554 37.3976 50.3122 37.4257C50.4186 37.5209 50.2636 37.6878 50.4092 37.7721C50.2715 37.9515 50.0758 37.9172 49.8394 37.744C49.592 39.2511 51.7822 38.613 51.8777 39.3244C51.3595 39.5974 50.7082 39.3884 50.201 39.6988C50.3388 40.6957 51.2108 40.5163 52.0311 40.8705C51.7196 41.2043 51.3532 41.3494 50.9258 41.273C51.4237 41.9126 51.2468 42.7411 51.6209 43.415C51.5286 43.7567 51.2703 43.4993 51.0996 43.5601C51.0213 44.529 50.8617 44.9798 50.403 46.0906C49.9991 46.1109 49.5639 46.2123 49.2758 45.7505C49.4198 45.373 49.7329 45.5945 49.9709 45.5571C50.176 44.7521 48.9314 44.3511 49.0394 43.5742C48.7983 43.3776 48.684 43.6397 48.421 43.3729C48.1674 43.7551 48.5244 43.9673 48.3177 44.3371C46.9447 44.2981 48.3928 42.4337 48.7827 42.9922C49.0911 42.6974 47.787 42.7255 47.6351 41.9111C48.2786 41.6178 48.1831 40.8159 48.8312 40.8284C48.0516 40.5148 47.7666 40.9875 47.1827 40.6349C46.4093 40.1669 46.4109 38.4117 44.7765 38.4086C44.5073 38.6707 44.7718 38.7846 44.5761 39.0264C45.3949 39.1091 45.5953 39.4336 45.8974 40.0592C45.1272 40.6879 45.5921 41.0967 45.528 41.7504C45.11 41.9516 45.027 41.2745 44.526 41.1887C44.6654 41.5554 44.4227 42.0281 45.1037 42.2434C45.2806 42.4431 45.2336 42.7052 45.1256 42.9844C45.0348 43.3323 44.7781 43.0843 44.6528 43.3027C43.8717 42.7395 43.4036 41.936 42.5378 42.117C42.7617 41.2153 40.9128 40.6006 41.6189 39.8502C41.2087 39.6146 40.9849 40.0436 40.6389 40.0311C40.1755 39.7862 40.8361 39.2277 40.1724 39.0389C39.7747 39.5241 40.5105 39.6926 39.9422 40.2246C40.7187 41.7332 42.1308 42.585 42.6615 44.2325C43.092 44.3417 42.8337 44.0578 43.0858 43.7411C43.2752 44.6538 44.1441 45.3761 44.6231 46.2092C45.1382 45.6164 46.4626 45.8098 46.3686 46.749C46.0305 46.8847 45.6751 46.9534 45.47 47.5603C45.9741 48.5431 46.6019 48.7787 46.389 49.8287C46.2215 50.654 45.0474 51.7492 45.8035 52.42C45.672 52.7305 45.3229 52.2656 45.2196 52.6775C45.9726 52.9037 45.7362 53.406 46.4297 53.6479C46.2497 54.0082 45.924 53.8522 45.7691 54.2984C46.4219 54.7743 46.3154 55.403 46.5549 55.7618C45.816 56.5903 44.872 55.1362 44.2114 55.7618C44.5902 56.155 44.6685 56.6308 44.9487 57.0505C44.4979 57.3375 43.7902 56.7104 43.3488 57.0286C43.1421 56.8976 43.6901 56.7307 43.7245 56.364C42.7727 56.0068 42.1089 55.5809 41.4498 54.9428C40.6592 55.2439 39.6338 54.7103 38.8683 55.1019C38.4612 55.6511 38.419 56.1004 38.5129 56.5091C37.763 56.3765 37.5345 54.5605 36.9897 53.7555C36.1333 54.041 35.0437 53.5075 33.9917 53.0971C33.9087 52.8085 33.8289 52.5199 33.7475 52.2313C33.1401 52.3155 32.7503 51.498 32.2102 52.0987C32.5092 52.6572 33.3436 52.7009 33.879 53.0347C33.6943 53.3764 33.4579 53.5433 33.1698 53.5121C32.6908 53.2719 33.1338 52.7742 32.5295 52.5698C32.4747 52.7087 32.3933 52.7539 32.2931 52.729C32.4606 53.3265 32.1147 53.5106 31.9519 53.8522C33.2121 54.3655 35.0891 54.119 35.5275 55.5653C37.1478 55.7603 37.9994 57.2034 40.008 57.4936C40.0628 57.3547 40.1426 57.3095 40.2444 57.3329C40.4072 57.1316 40.4181 56.9725 40.2099 56.8758C41.6142 56.8945 42.6506 56.9662 44.2098 58.0958C43.856 58.5045 43.2721 58.0958 42.7836 58.0256C42.5629 58.4671 42.3249 58.8462 42.0463 59.0724C42.1058 59.2752 42.3688 59.4187 42.6506 59.5592C42.3609 59.7464 41.9336 59.4499 41.622 59.5654C41.3747 60.099 42.0838 60.1005 42.4502 60.1754C42.912 60.5982 41.9195 60.8712 42.1089 61.2987C41.6345 61.5795 41.4576 60.9367 40.9817 60.9586C40.8095 61.4407 41.3324 61.5187 41.24 61.5405C41.2212 62.1973 40.3868 63.1537 40.7813 63.9119C40.5606 64.2411 40.2271 64.1678 39.9594 64.3269C40.1035 64.5063 40.1833 65.55 39.5211 65.1038C39.4992 65.3893 39.5007 65.6686 39.4788 65.9557C39.2581 66.1928 38.4832 66.1741 38.6444 66.6561C37.5924 66.6374 36.6233 67.8496 36.7721 68.6734C37.1775 69.0759 37.6018 68.6593 37.7255 69.0619C37.4468 69.5158 36.8503 68.8434 36.473 68.9433C36.3431 69.5829 35.2457 70.2101 35.3318 71.2242C34.585 71.3958 33.2043 70.9293 32.96 71.7936C32.9694 71.388 32.3323 71.8123 32.4043 71.4816C32.0411 71.4816 31.9926 71.7515 31.9174 72.0838C31.4431 72.4021 30.7918 72.0822 30.1578 71.8279C29.0212 72.0089 27.9786 72.5238 26.7559 72.4021C26.5117 73.5332 25.7055 72.6673 25.336 73.3584C25.0495 73.2211 25.0902 72.9902 24.9055 72.8249C24.1775 72.6845 23.5404 72.8623 22.9439 73.1852C21.7651 73.2196 20.5972 73.2882 19.542 73.7594C20.1041 73.8577 20.0931 74.3694 20.7178 74.2727C21.0089 74.7516 19.9976 75.4739 19.5217 75.3538C19.4184 75.1323 19.4935 74.8624 19.1538 74.7095C19.1773 75.4693 18.5041 74.9778 18.1722 74.8905C18.1801 75.0434 18.3632 75.1494 18.2067 75.3476C18.1347 75.4256 18.0329 75.3959 17.9703 75.5083C17.5585 75.2493 17.3269 74.9388 17.5053 74.516C16.8869 75.1697 16.0807 74.6642 15.3199 74.7501C14.6467 74.8281 14.4244 75.2415 13.7058 75.0137C12.9763 74.7828 12.3955 74.0511 11.3544 73.9872C11.2652 73.7937 11.2996 73.5659 11.2715 73.3553C10.4026 73.4536 9.97365 72.6813 9.40067 73.037C8.69776 71.5627 6.33853 70.7764 6.03326 69.3973C5.8047 69.4722 5.46185 69.1399 5.28808 69.4176C5.19728 69.1945 4.84503 69.0431 5.09395 68.7249C4.81216 68.3863 4.8059 69.0353 4.52411 68.6968C4.04506 67.6094 3.9026 66.898 3.23882 65.7856C3.84937 65.8542 3.38598 64.4127 3.01025 64.6342C3.68499 63.9509 3.05096 62.8432 4.11707 61.8962C4.19379 61.5624 3.97931 61.3112 3.52531 61.1271C3.82276 60.62 4.30024 60.3938 4.15151 60.0178C4.29554 59.6387 4.61647 59.893 4.79807 59.6512C5.02351 60.4235 4.09359 60.5015 4.20631 61.2176C4.86539 61.319 4.77928 60.4391 5.50098 60.4827C5.90019 59.7011 5.9769 58.7822 6.83636 58.8961C6.58745 58.0568 7.39682 58.3563 7.79759 57.9741C7.46571 57.7869 7.58155 57.4733 7.31698 57.2673C7.41248 57.1628 7.58155 57.3157 7.66609 57.1706C8.1013 57.3922 7.77098 57.8274 7.84612 58.1472C8.06373 58.1472 8.2422 58.0022 8.38152 57.7182C7.95884 57.648 8.20932 57.3922 8.06216 57.2455C8.41127 56.8227 9.17837 57.2455 9.13297 56.3859C8.39875 56.3344 7.80228 56.7697 7.06023 56.6839C7.11972 56.8539 6.86298 57.1129 7.20583 57.2034C6.84106 57.5731 6.4215 57.7541 5.92524 57.6527C5.81252 57.9335 6.19607 58.0755 5.94559 58.3937C5.80626 58.4515 5.64971 58.4484 5.48689 58.4281C5.39766 58.0178 5.40862 57.5778 4.97341 57.2642C5.13935 57.1878 5.28808 57.0489 5.39766 56.7712C5.89549 56.9257 6.12719 57.3984 6.39959 57.3329C6.71583 56.3359 7.26218 55.9927 7.30446 55.2111C6.73618 55.8586 5.80313 55.2033 5.26616 55.9662C5.60744 56.1519 6.03483 56.3125 5.74677 56.6745C5.53699 56.57 4.87791 56.3266 4.54289 56.7291C5.10021 57.3173 4.8012 57.971 4.1249 58.2471C3.64585 58.0115 3.70065 57.7728 3.23569 57.7479C3.32493 58.077 3.05566 57.9117 2.92103 58.3033C3.22943 58.5279 3.38599 58.7963 3.51279 59.0724C2.72377 59.4921 2.0052 60.1598 1.06433 60.0366C1.79385 60.7199 1.24749 61.2222 0.779404 62.358C0.928131 62.4423 1.07685 62.5249 1.22401 62.6076C1.02362 62.7839 0.76062 62.7371 0.480392 62.6279C0.021698 63.3487 0.683914 64.252 0.0342255 64.7154C-0.0643997 64.9603 0.511703 65.0165 0.292534 65.2973C0.62442 65.4829 0.834198 65.2208 1.1473 65.3394C1.36334 65.809 0.669823 65.8324 0.341064 65.472C0.292534 66.2271 0.959442 66.6405 1.17705 67.107C0.776276 67.302 0.503876 66.6796 0.175117 66.5454C0.0138702 67.2755 0.693298 67.7716 0.187645 68.5969C0.854546 68.7529 0.477264 69.2023 1.06433 69.3801C1.1426 69.2179 1.22401 69.0556 1.36334 69.1102C1.13791 68.8294 1.21149 68.4674 0.834198 68.2287C0.976662 68.1788 1.09563 68.0462 1.19583 67.8481C1.54651 68.3972 2.19776 68.4082 2.60793 68.2022C2.88972 67.8434 2.36683 67.7092 2.64862 67.3504C3.02591 67.9136 2.9038 68.1211 3.62238 68.4799C2.8083 69.0229 3.91356 69.3286 3.31554 70.0603C2.97895 70.09 2.55 69.7858 2.23689 69.895C2.16488 70.4784 3.11671 70.2569 3.57384 70.6438C3.76953 70.5611 3.91356 70.2959 4.11081 70.2132C4.36599 70.8107 5.3867 72.0089 6.01604 70.9902C6.31505 71.8732 6.37767 72.8202 7.55338 73.4583C7.42343 73.4864 6.95535 73.9388 7.17764 74.1229C7.0211 74.2321 6.82227 74.1962 6.6078 74.0964C6.52326 73.8077 6.80975 73.4161 6.71269 73.1322C6.24304 72.9075 5.8861 73.0854 5.41175 72.8405C5.1096 73.1119 5.54795 73.1775 5.73112 73.3132C5.6685 73.424 5.60588 73.5347 5.54326 73.6455C5.19258 73.8202 4.91392 72.9153 4.6243 73.7141C5.41958 74.2602 6.34793 74.2727 6.67668 75.0106C6.58432 75.3523 6.32444 75.0964 6.15536 75.1572C6.254 75.708 7.27001 75.488 7.14321 76.0028C8.16079 75.7314 9.19872 75.5348 10.3572 75.761C10.6327 76.0418 10.0065 75.7828 9.99557 76.1417C10.1819 76.2462 10.3666 76.3507 10.5529 76.4537C10.6562 76.0434 10.9192 76.2025 11.1368 76.1978C11.19 76.5567 11.0492 76.9701 11.0805 77.3352C11.2902 77.304 11.5532 77.4569 11.763 77.4241C11.403 76.864 12.1591 76.7454 12.5849 77.0091C12.5239 76.8391 12.7806 76.5801 12.4393 76.4896C12.1403 76.0964 12.1591 76.8281 11.918 76.6347C11.356 76.5114 11.7427 76.123 11.6112 75.878C12.5176 75.6736 13.615 76.2493 14.0393 76.5083C13.7528 76.6019 13.4037 76.4677 13.0233 76.2322C12.4847 76.8484 13.5822 77.1885 12.8417 77.5895C13.327 77.7595 13.7716 77.7814 14.2052 77.7704C14.3837 77.5661 14.296 77.435 14.3461 77.265C14.8142 77.1027 14.9379 77.4537 15.4107 77.7158C16.0713 77.0263 17.6039 77.7892 18.2489 78.1386C17.6321 78.1698 16.8995 77.7829 16.3155 77.9296C16.6944 78.3539 17.294 78.7159 17.6854 79.1355C17.7495 79.0295 17.8701 79.1262 17.9703 79.1496C19.0943 77.4647 21.7322 78.8594 23.3822 78.3883C23.4637 78.4491 23.5122 78.9437 23.3055 78.783C24.6315 79.5256 25.4816 77.4818 27.2647 78.5193C26.9751 77.4413 28.2056 78.2244 28.5719 77.5005C28.1899 77.1417 28.049 77.6441 27.667 77.2852C27.5042 77.1058 28.0756 76.7642 28.3136 76.9186C28.3731 76.591 27.5199 76.5161 27.5496 76.1978C28.1195 75.3881 29.0165 76.3882 29.5175 76.864C29.6224 76.7922 29.7273 76.7205 29.865 76.7673C30.2564 76.3461 29.6944 76.1916 29.9684 75.8047C30.5476 75.7766 31.1957 76.201 31.5276 76.6784C31.7718 76.3086 32.6501 75.7922 32.5781 75.0761C32.9663 74.5706 33.641 75.0761 34.0324 74.5769C33.8164 75.1042 34.5052 75.8219 33.8868 76.3929C34.3518 78.2525 32.1194 78.5333 31.0188 78.875C32.0113 79.8158 32.9694 79.9016 33.9416 79.9296C34.1389 80.588 33.5784 80.9765 33.6348 81.5101C33.7913 82.9828 36.2727 83.3557 37.5172 83.9782C37.821 83.6443 37.6566 83.4399 37.6691 83.1872C38.2875 83.0905 38.4644 82.7394 38.8041 82.2183C38.9513 82.1466 39.1454 82.3931 39.4851 82.3073C39.936 81.301 40.8158 81.2589 40.8001 79.978C41.0882 79.5568 41.7426 80.4382 42.1011 80.2698C42.2842 78.7814 43.8216 79.4678 44.3836 78.0435C44.1988 77.8765 44.2395 77.6472 43.9531 77.5083C44.3851 77.4693 44.9644 76.9483 44.3429 76.5598C44.5949 76.4584 44.9346 76.6643 45.1976 76.6019C45.2931 76.201 45.5201 75.7641 45.0802 75.5129C45.8379 75.0277 46.6692 74.1603 46.569 73.1353C46.7412 72.8561 47.0935 73.2196 47.2641 72.9403C47.4567 72.6376 47.1733 72.4676 46.8962 72.296C47.106 71.5924 47.6821 72.1977 48.1486 72.413C48.4586 72.0464 48.2488 71.8248 47.8418 71.6579C48.0985 71.3505 48.4743 71.4613 48.7748 71.3037C49.2257 70.9824 48.6527 70.4769 49.102 70.466C49.0566 70.1976 48.7044 70.0151 48.6214 69.7577C49.1099 69.6079 49.5419 69.2475 50.0272 69.0853C49.7298 68.9183 49.4339 68.7514 49.1365 68.586C49.3807 68.2303 49.8112 68.5408 50.0695 68.2334C50.1713 67.7935 50.3732 67.8606 50.0492 67.4924C50.6347 67.0181 51.2624 66.6873 51.8307 66.1538C50.9775 65.2708 51.9888 64.3487 51.7837 63.6436C51.9747 63.3222 52.3082 63.5078 52.5415 63.3393C52.7528 63.4985 52.5962 63.7606 52.626 63.9696C52.9657 63.6061 53.2021 62.5624 52.5368 62.3128C52.3943 61.9446 52.709 61.3939 53.0518 61.1411C53.1113 61.3424 53.3743 61.4859 53.6561 61.6263C53.7485 61.2878 53.0675 60.8837 52.8921 60.9055C52.7841 60.7495 52.8185 60.5514 52.9203 60.3361C53.3994 60.2924 53.3258 60.6107 53.8111 60.8369C53.8941 60.6887 53.9786 60.5405 54.0616 60.3923C53.6264 60.2659 53.7093 59.9211 53.3931 60.0178C53.0549 59.7526 53.7031 58.8789 53.9708 58.737C54.0428 58.8415 54.1132 58.946 54.0678 59.0833C54.4404 58.673 54.3167 58.2908 54.932 57.8149C55.051 57.9054 54.9116 58.0708 54.8553 58.2112C54.9382 58.2845 54.9852 58.2268 55.029 58.1628C55.1026 58.205 55.1778 58.2455 55.2514 58.2877C55.5097 57.9429 55.386 57.4998 55.0572 57.5934C55.3969 56.868 55.6881 56.9304 55.1746 56.3453C55.5738 55.4248 56.3801 55.2158 56.3018 54.3499C56.5147 54.1065 56.7965 54.1065 57.0611 54.0457C57.2599 53.7727 56.9906 53.6291 56.8028 53.4622C57.1691 52.7321 57.7249 52.4154 57.6309 51.7367C57.393 51.5573 57.1926 51.5152 57.011 51.5355C57.6842 50.5541 56.5726 49.9473 57.645 49.1157C57.8391 48.8115 57.4869 48.6617 57.4493 48.423C57.8282 48.0267 57.7546 47.9487 58.0129 47.4245C58.2947 47.3419 58.4012 47.7069 58.8066 47.5759C59.1667 46.1983 58.8489 44.5992 60.2547 43.7161C59.951 43.3963 59.4688 43.1248 59.3295 42.7598C59.7052 42.6631 59.6316 42.2793 59.5925 42.0312C59.7882 41.947 59.9322 41.6771 60.1764 41.7738C60.2281 40.2261 60.7338 38.3212 62.0629 37.1371C61.3788 36.3524 62.9678 35.836 63.1901 35.1402C63.6879 35.0153 64.1935 34.928 64.79 35.1604C64.6413 34.9217 64.9231 34.5629 64.8323 34.307C65.6213 33.2711 67.7739 33.7423 67.8944 32.5191C69.211 32.6455 70.454 31.2804 71.3166 30.3506C71.5452 30.2679 71.8191 30.3537 72.1103 30.5019C72.3765 30.115 72.7318 30.0417 73.0089 29.6907C70.6763 29.2289 73.6571 27.0135 73.8105 28.533C74.2394 28.8435 73.8715 28.1742 74.3318 28.388C74.5447 27.9308 73.6336 28.1602 73.5663 27.6656C74.0077 27.1586 74.3835 27.2959 74.8328 27.4987C74.9627 27.3224 74.8046 27.1055 75.0206 27.1664C74.6465 26.9745 74.468 26.937 74.4915 26.2865C74.9862 25.9713 75.4621 26.4596 75.9521 26.8138C75.7642 25.5064 76.9556 24.7638 75.7094 23.6109C75.819 23.5547 75.927 23.4954 76.0085 23.3394C76.3544 23.1023 76.3106 23.3831 76.8022 23.4923C77.2061 23.0633 76.4218 22.4829 76.8585 22.355C76.81 22.2707 75.6139 22.3331 75.9756 22.8823C75.6202 22.6186 75.3259 22.5765 75.0222 22.4938C74.4586 23.6904 74.2019 24.8044 73.38 25.6624C73.0183 26.04 72.3655 26.1055 72.4688 26.7576C71.899 26.7342 71.5123 27.3598 70.8548 27.0213C71.1867 27.7608 70.0924 27.8029 70.6121 28.4909C70.5166 28.5954 70.3476 28.4426 70.263 28.5876C69.9718 28.1867 70.108 27.9121 69.6102 27.9293C69.5413 28.3177 69.7527 28.4816 69.6306 28.6703C69.3801 28.7218 69.0325 28.1009 68.6975 29.0245C69.283 29.4161 69.1907 29.7811 69.8591 29.8217C69.7965 29.9325 69.7339 30.0432 69.6713 30.154C69.3863 30.4036 69.4646 29.8264 69.1625 30.0152C68.5848 31.8935 67.085 29.6751 65.9125 29.7999C65.9125 30.1119 66.2491 30.3287 66.3305 30.6174C65.028 30.051 63.4578 31.4973 63.2558 32.6892C62.877 32.6783 61.8093 33.3975 62.2194 34.0075C61.9236 34.2883 61.4492 33.9342 61.1267 34.1245C61.2222 33.2446 61.623 31.3069 62.5607 30.5472C62.5044 30.4364 62.4449 30.3287 62.2899 30.2476C62.4277 29.959 62.6578 29.9964 62.8738 29.9918C62.8707 29.3225 62.5435 28.4051 63.2088 27.8435C63.1259 27.5861 62.9067 27.3676 62.7282 27.1367C62.9521 26.9324 63.2887 27.1321 63.4859 26.8309C63.5705 25.1569 64.7556 23.174 64.1967 21.6794C63.4797 21.5141 63.3717 20.0429 63.7865 19.5514C63.2777 19.319 63.212 18.9633 63.1462 18.6076C63.439 18.6481 63.6347 18.3439 63.8069 17.9554C63.691 17.5514 63.2308 17.244 63.2918 16.7916C62.9302 17.0209 63.1321 17.2471 62.6312 17.4437C62.2648 16.4281 61.4398 16.4374 60.5303 15.9741C60.1577 15.7245 61.0093 15.595 60.6696 15.4686C60.5584 15.4062 60.4473 15.3438 60.3361 15.2814C59.9698 15.7713 60.2892 15.7338 59.6739 15.932C59.4798 16.2346 59.832 16.3859 59.868 16.6262C59.1025 16.8743 57.6153 15.7245 57.4196 17.5888C57.2818 17.7698 57.0846 17.7339 56.8482 17.5607C56.2329 18.3018 56.5069 18.7807 55.8462 19.3346C55.5128 20.3128 56.9781 20.2098 56.7292 21.1443C57.0204 20.7824 57.0423 20.4969 56.7715 20.2909C57.1096 20.1614 57.6372 20.7028 57.8642 20.1739C57.8094 19.9399 57.346 19.8198 57.4947 19.5296C57.7718 19.0662 58.1679 19.035 58.6015 19.1271C58.6485 18.7604 58.9021 18.5467 59.2137 18.3033C61.5275 19.4953 60.5913 21.5952 61.2582 23.2458C61.1831 23.756 60.8324 23.2879 60.7228 23.6764C60.7572 23.9775 60.9482 24.2365 61.1408 24.4955C61.0359 24.7872 60.8011 24.6218 60.7165 24.9869C61.1361 27.6126 59.8085 30.5815 59.4908 33.6456C59.3843 33.9389 59.151 33.7719 59.0649 34.137C59.2293 34.2166 59.3921 34.2961 59.3358 34.435C59.2324 34.8469 58.8833 34.3819 58.7518 34.6908C58.5937 34.1713 58.0301 34.0652 57.4791 33.8312C58.4419 33.1869 57.5981 32.4131 57.8125 31.6829C56.5116 30.8888 57.4008 29.3677 56.9515 28.2787C56.7965 27.9059 56.0153 27.5377 56.5617 26.8934C56.33 26.7327 55.8854 26.157 55.7335 26.2833C55.5942 25.8543 55.8181 25.3239 55.4549 24.9588C55.5457 24.8387 55.71 24.9791 55.8509 25.0353C56.0294 24.6749 56.1468 24.3301 55.7821 24.1195C55.447 24.2053 55.5175 24.5064 55.4063 24.7856C54.6752 24.4299 55.7069 23.5812 55.1418 23.1771C55.5989 22.9072 55.6537 22.7278 55.8791 22.1303C55.3359 21.5343 55.1433 22.1849 54.6893 21.9025C54.5625 21.5328 55.1684 20.9587 55.3296 20.5093C54.3027 20.6108 55.0134 18.8556 54.2385 18.2909C54.8443 17.5217 53.1927 16.6792 53.1614 15.7884C53.271 15.3999 53.5872 15.7463 53.6968 15.3578C53.4009 14.7166 52.7231 15.0895 52.2346 14.8321C51.9841 14.7151 52.4068 14.4093 52.4366 14.2143C52.0546 13.8554 51.9137 14.3578 51.5317 13.999C51.4612 13.8944 51.3877 13.7899 51.4346 13.6526C51.5646 13.2283 51.9481 13.6994 52.1297 13.4592C52.1172 12.2485 51.1685 11.2984 50.2245 10.3467C50.0758 10.9177 50.2793 11.3904 50.7255 11.7961C50.4202 12.027 50.2229 12.1237 50.176 12.5106C49.6359 12.1346 49.5169 11.6775 50.0085 11.2485C49.1897 10.9474 50.0163 10.1876 49.3337 9.84904C49.4605 9.73983 49.6061 9.70083 49.794 9.81316C49.7501 9.35916 48.7795 9.93329 49.3134 9.10642C48.8484 8.95197 47.9529 8.78036 48.5619 8.10015C48.0187 7.87705 47.9811 7.5151 47.4003 7.30292C46.8774 7.77876 46.0352 7.11571 45.5014 7.55254C45.3198 7.33101 45.3244 6.85205 44.9597 6.95658C45.2321 6.70228 45.5342 6.55875 45.7941 6.25764C45.6532 5.80053 44.1441 5.24512 44.8689 5.30129C44.6716 4.73029 43.9625 5.17492 43.5679 5.00955C43.5116 4.90034 43.4521 4.79269 43.2955 4.71156C43.4646 4.44322 43.6979 4.48535 43.6102 4.15772C43.0748 3.81137 42.6459 3.84414 42.3437 4.32309C41.896 3.95803 41.561 3.98455 41.2165 3.98455C41.1054 3.56332 41.9805 3.82698 42.2607 3.69281C42.3046 3.33398 41.2228 3.51027 41.406 3.65068L41.3809 3.6694ZM43.9812 15.9335C43.939 15.8103 44.0642 15.1098 44.4055 15.4405C44.1519 15.7572 44.4118 16.0412 43.9812 15.9335ZM10.495 76.0169C10.6891 75.7064 10.9317 75.5691 11.3012 75.8858C11.1212 76.2431 10.8018 76.1074 10.495 76.0169ZM13.0092 13.1705C13.4976 13.0707 13.5274 13.8944 14.1097 14.0785C13.8185 14.6589 13.8686 15.1425 13.8029 15.6589C13.6338 15.609 13.5007 15.6964 13.2957 15.5201C13.7011 14.8929 13.1047 14.311 12.7321 14.1815C13.388 13.8804 13.0749 13.4186 13.0092 13.1705ZM14.3524 12.6089C14.1019 12.9396 13.7293 12.8398 13.4209 12.963C13.6229 12.481 14.1645 12.1065 14.3524 12.6089ZM35.5228 1.84406C35.5995 2.11084 35.2911 2.71617 34.9248 2.38542C35.1377 2.24813 35.2754 1.85342 35.5228 1.84406ZM2.0005 63.8058C2.1868 63.4111 2.02086 63.1147 2.34179 62.6825C2.78796 62.9961 2.65332 63.9759 2.0005 63.8058ZM5.50098 58.9055C5.84383 58.9975 5.58709 59.2549 5.64658 59.425C5.56047 59.4187 5.06264 59.4609 5.20041 59.1754C5.33974 59.23 5.42115 59.0677 5.49942 58.9055H5.50098ZM2.1461 66.6624C1.94415 66.5688 1.02988 66.5126 1.31794 66.0524C1.67018 66.1023 2.17271 66.2755 2.1461 66.6624ZM43.8497 5.78337C43.5867 5.78337 42.9261 5.82393 43.0701 5.34653C43.2674 5.10939 44.0219 5.40582 43.8497 5.78337ZM42.9715 14.3453C43.2595 14.4826 43.2235 14.7119 43.2282 14.9288C42.9104 14.6449 42.3672 14.4935 42.6224 14.4436C42.7601 14.4904 42.865 14.4171 42.9715 14.3469V14.3453ZM49.9067 14.0005C49.9912 13.8523 50.0742 13.7041 50.1572 13.5559C50.774 13.6698 50.2198 14.3453 49.9067 14.0005ZM23.3556 76.0746C23.0253 76.4709 23.0237 76.4755 22.8547 76.9623C22.5588 76.577 22.3678 76.1635 22.5776 75.6378C22.9126 75.5364 23.1333 75.8796 23.3556 76.0746ZM24.3028 75.4381C23.9881 75.3211 23.7799 75.5816 23.448 75.3959C23.4261 75.215 23.4684 75.0153 23.6484 74.7781C23.9897 74.8327 24.3247 75.0512 24.3028 75.4365V75.4381ZM48.2363 34.0918C48.0187 33.8406 47.6508 33.6315 47.8183 33.2743C48.2363 33.4693 48.6042 33.6783 48.2363 34.0918ZM25.1262 75.0215C24.8648 74.8717 24.691 75.0293 24.3967 74.7579C24.5532 74.2805 25.4863 74.4848 25.1262 75.0215ZM50.3247 35.8469C50.3857 36.2042 50.2887 36.6051 50.4421 36.9359C49.9208 36.8578 49.5341 36.031 49.4824 35.5224C49.7126 35.4506 50.0288 35.6831 50.3247 35.8484V35.8469ZM39.698 55.4451C39.7951 55.7603 39.4491 55.6776 39.3223 56.1113C38.945 55.9678 39.1 55.676 39.3019 55.3702C39.4522 55.4607 39.5759 55.4545 39.698 55.4451ZM61.4915 16.8446C61.7498 16.9913 62.0112 17.1364 62.2711 17.2815C61.9783 17.9102 61.4069 17.5482 60.942 17.5592C61.1095 17.2659 61.2582 16.9023 61.4915 16.8446ZM51.7196 36.4834C51.6084 36.8672 51.3783 36.8251 51.2327 37.0872C51.7383 37.3337 51.9732 38.0935 51.8918 38.7721C51.4127 38.7565 51.4299 38.4398 50.8914 38.2105C50.954 37.3259 50.3701 36.7658 50.8288 35.9842C51.3407 35.8921 51.3642 36.1308 51.718 36.4834H51.7196ZM61.4696 18.4391C61.3224 18.3564 61.1737 18.2737 61.0234 18.1894C61.086 18.0787 61.1486 17.9679 61.2112 17.8556C61.5212 17.9882 61.6668 18.1645 61.468 18.4375L61.4696 18.4391ZM47.8355 50.3716C47.4551 50.2281 47.4895 49.9691 47.2923 49.7756C47.3972 49.4823 47.632 49.6493 47.7165 49.2826C47.0449 48.785 46.951 48.1266 46.8336 47.4729C48.4022 47.579 48.5447 49.2514 47.834 50.3716H47.8355ZM42.9026 56.5138C42.8181 56.662 42.7351 56.8087 42.6521 56.9569C42.3108 56.7712 41.8835 56.6105 42.1731 56.2501C42.4329 56.3999 42.6099 56.2423 42.9026 56.5138ZM54.9414 34.9327C54.8099 35.2431 54.5829 35.2104 54.3089 35.0153C54.3715 34.9046 54.4342 34.7938 54.4968 34.683C54.6455 34.7673 54.7942 34.85 54.9414 34.9327ZM47.1686 52.3342C47.2171 52.1657 47.1295 52.0331 47.3079 51.8288C47.632 52.0955 47.8684 52.0425 48.1486 52.1548C48.0578 52.3046 48.0641 52.4263 48.0719 52.5495C47.668 52.1096 47.5835 53.0566 47.0293 52.8397C47.2093 52.3327 47.8856 52.5246 47.1686 52.3342ZM58.2055 34.8656C58.0364 34.7564 57.811 34.6628 57.9957 34.4568C58.1945 34.669 59.0321 35.0621 58.5248 35.3383C58.5702 34.8983 58.2117 35.733 58.052 35.6566C57.6497 35.4272 57.1378 35.226 57.1754 34.8734C57.5464 34.9701 57.9158 35.0575 58.2055 34.8671V34.8656ZM52.2283 45.9705C52.1172 46.2404 51.9653 46.3715 51.7556 46.2888C51.8057 46.1187 51.7164 45.9877 51.8949 45.7833C52.006 45.8457 52.1172 45.9081 52.2283 45.9705ZM36.1599 76.2446C36.2288 76.786 36.066 77.3929 35.9016 77.9998C35.1658 77.733 35.3302 76.5504 36.1599 76.2446ZM35.8187 79.705C35.5948 79.1387 36.0738 78.8438 36.1255 78.1246C36.4777 78.3773 36.7079 78.1995 36.9803 78.1667C36.8441 77.2369 37.7818 77.0793 38.1074 76.1713C38.2843 76.2462 38.4957 76.4412 38.6162 76.3102C38.7665 75.8531 38.9356 75.4864 39.3536 75.2633C39.327 75.6768 39.6823 75.9825 39.2346 76.5114C39.0796 76.6269 38.7978 76.2883 38.6648 76.4833C39.1391 77.4381 37.8194 78.1808 37.2511 78.4678C37.1196 78.939 37.8523 79.1714 37.4171 79.7284C36.9662 79.6816 36.5482 79.7502 36.2977 80.4148C35.875 80.3587 34.9764 80.2183 34.9623 79.666C35.3428 79.6629 35.6605 79.6785 35.8187 79.7081V79.705ZM41.9774 69.5767C41.8271 70.04 41.5469 70.0478 41.2197 69.8825C41.4373 69.6578 41.6596 69.4488 41.9774 69.5767ZM44.7812 67.2069C44.8141 66.8558 44.4697 66.6078 44.0799 66.3753C44.1722 66.1522 44.3429 66.2006 44.4415 65.9931C45.1068 66.9822 46.7945 66.3472 47.1764 67.38C46.9886 67.8262 46.6614 67.7779 46.4031 67.9682C46.1056 67.2225 45.2102 67.2053 44.6575 67.4284C44.1472 68.0837 44.1221 68.8403 43.6556 69.2038C43.3754 68.8247 43.1265 69.0151 43.1139 68.6079C42.8228 69.0868 42.4345 69.221 42.8353 69.6204C42.4862 69.2693 42.3625 69.7171 42.0416 69.4675C42.6271 69.1087 42.0823 68.6157 42.3969 68.0618C42.7116 68.0696 43.1296 68.4425 43.3644 68.1648C43.7339 67.5829 43.7902 67.6297 43.8169 67.1039C44.0752 66.9073 44.501 67.3098 44.7843 67.2084L44.7812 67.2069ZM45.0395 65.4517C44.7828 65.2037 44.8235 66.0196 44.5667 65.77C44.6388 65.4705 44.0313 65.3597 44.4352 64.9665C44.5949 65.1397 45.1648 65.199 45.0411 65.4517H45.0395ZM39.8342 73.6314C39.9454 73.6938 40.0565 73.7563 40.1677 73.8187C39.9031 74.1354 40.1833 74.2789 39.8546 74.3725C39.3098 74.1556 39.5368 73.867 39.8342 73.6314ZM40.7172 73.1041C40.4228 73.4052 40.5763 73.5784 40.6279 73.7843C40.4307 73.6424 40.3117 73.7719 40.1191 73.6455C40.0142 73.2742 40.4181 73.0183 40.7172 73.1057V73.1041ZM67.0678 31.3631C67.2228 30.9325 68.0071 31.0433 67.8615 31.516C67.4373 31.3413 67.1978 31.8249 66.7203 31.4598C66.7939 30.8997 67.2259 31.8577 67.0678 31.3631ZM52.4053 63.3019C52.2847 63.2114 52.0796 63.1428 52.1344 63.0023C52.709 63.3861 51.9904 62.4859 52.4961 62.6217C52.3943 62.8058 52.77 62.8573 52.7043 63.0304C52.2894 62.7714 52.6135 63.0991 52.4053 63.3003V63.3019Z" fill="#FC751A"/>
<path fill-rule="evenodd" clip-rule="evenodd" d="M74.4048 19.4112C74.7649 19.1351 75.2502 19.3098 75.7684 19.5906C75.7292 20.1289 75.9406 20.5829 75.2533 20.7623C75.3253 20.8668 75.3973 20.9713 75.3504 21.1086C75.6995 21.352 75.7778 20.6312 76.2067 21.1508C76.2396 21.4472 76.3507 22.1149 76.7844 22.2054C77.085 21.9339 76.6466 21.87 76.465 21.7327C76.5495 21.3676 76.7844 21.533 76.8908 21.2412C77.4168 21.4082 77.5139 21.9745 78.0039 21.8653C77.8254 21.1039 77.2963 20.4425 77.8928 19.4658C77.7659 19.1897 77.611 18.9213 77.301 18.6951C77.5687 18.3706 77.517 18.1366 77.6282 17.8558C76.8298 17.6108 76.8595 17.1366 76.4807 16.7746C76.5777 16.5687 76.7484 16.617 76.8407 16.3939C76.1049 15.6872 75.5351 16.1147 74.7132 15.4922C74.5848 15.1162 75.1014 15.0944 74.8666 14.7028C75.2627 14.1957 75.51 15.2379 75.7089 15.0288C76.0376 14.5 75.4365 14.2332 75.02 13.9134C74.9574 14.0241 74.8948 14.1349 74.8322 14.2457C73.9117 12.4874 72.1254 12.9289 71.0906 11.2705C70.6304 11.6387 70.1059 11.7697 69.7192 12.4016C70.0527 12.5888 70.3877 12.776 70.7212 12.9632C70.7744 13.23 70.837 13.4921 70.8527 13.7683C70.4534 14.0116 70.0527 14.2613 69.6222 14.3923C68.8191 13.7636 68.4136 14.5436 67.7373 14.358C67.85 14.9696 68.9161 14.7153 68.9333 15.6123C68.52 15.5874 68.2727 16.1521 67.9251 16.3612C67.086 15.9103 67.1346 15.2114 66.5193 14.6981C66.0998 15.553 65.3295 17.72 66.6508 17.8386C66.9671 18.2489 66.7557 18.8059 67.2144 19.1772C67.4492 18.4424 68.5028 19.263 68.3964 18.38C69.0711 18.3862 68.7283 19.1288 69.4327 19.3987C69.785 18.6468 69.1729 18.4783 69.057 17.7278C68.8003 18.1023 68.1475 18.2552 67.9643 17.8464C68.5091 17.564 69.1165 17.5001 69.5079 16.6685C69.1776 16.4813 69.2918 16.1677 69.0288 15.9618C70.0229 14.3471 70.8949 13.9758 72.1661 13.7776C72.6937 14.0366 72.7047 14.4376 73.0913 14.734C73.1195 16.408 73.8459 17.887 74.4064 19.4143L74.4048 19.4112ZM73.417 16.2286C73.561 15.7215 74.3328 16.1552 73.9727 16.5406C73.6894 16.3971 73.5109 16.5546 73.417 16.2286Z" fill="#FC751A"/>
<path fill-rule="evenodd" clip-rule="evenodd" d="M13.7383 27.4508C12.8851 27.5038 13.3954 29.1014 12.4655 28.9267C12.6972 29.1732 12.7082 29.4821 13.0557 29.6958C13.9825 28.7519 13.5536 28.0467 13.7383 27.4492V27.4508Z" fill="#FC751A"/>
<path fill-rule="evenodd" clip-rule="evenodd" d="M30.4828 20.6312C30.14 20.6343 29.8833 20.9479 29.5999 21.1569C29.866 21.327 30.1275 21.4752 30.331 21.4206C30.5329 21.5517 30.2011 21.8309 30.4766 21.9417C29.7768 22.1648 29.5999 21.185 29.1553 20.9073C29.711 20.7201 29.7705 20.224 29.7815 19.7981C28.8563 21.3395 27.7604 19.096 26.2403 18.5422C26.1182 19.1522 25.5186 18.7653 25.1695 19.4018C25.0208 19.3176 24.8736 19.2364 24.7249 19.1522C24.5182 18.9073 25.3292 18.6764 24.7045 18.4111C24.2568 19.0601 23.6384 19.9681 22.8948 20.3176C23.4631 20.8761 22.8369 21.767 23.5414 22.2865C23.7746 21.7794 24.1707 21.859 24.4384 21.4752C24.7202 21.9479 24.8955 21.4502 25.3918 21.8637C25.0443 21.9869 24.6811 21.8044 24.6811 22.3426C24.3867 22.2365 24.5543 22.0025 24.1879 21.9198C24.0235 22.4331 24.4149 22.792 24.2928 23.2927C24.8877 23.4644 24.6998 22.8029 25.3855 23.1757C25.6767 22.5595 26.0086 22.508 25.9006 22.0041C25.9726 21.9261 26.0744 21.9557 26.137 21.845C26.5706 22.0993 26.5957 22.4643 26.7773 22.7888C26.5049 23.2662 25.993 22.8871 25.7206 23.3645C25.6986 23.8107 25.7769 23.792 25.3934 24.2039C25.6392 25.2211 26.699 24.831 27.5225 25.1056C27.6461 25.2273 27.5866 25.3989 27.7307 25.5144C27.5585 25.5658 27.3847 25.6142 27.2094 25.6595C27.0622 25.9496 27.4583 26.0885 27.751 26.2554C27.953 25.4988 27.9154 25.3896 27.8841 24.7234C28.1675 24.3973 28.7201 25.0292 29.0254 24.7795C28.7952 23.9792 27.5663 23.8965 27.9201 22.845C28.3537 23.4269 29.7267 23.6141 29.7705 24.7593C29.9819 24.8419 30.1322 24.7109 30.2433 24.441C30.6269 24.6469 30.4735 25.0011 30.4875 25.3069C31.3767 25.8763 31.6632 25.6907 32.1423 26.5269C32.2409 26.2819 31.9701 26.1384 31.8855 25.945C32.2049 25.5861 32.3959 26.1103 32.5524 26.3194C32.2503 27.0464 31.9967 27.8421 31.2312 27.6236C30.857 27.3225 30.9775 26.8841 30.3059 26.6673C30.2011 26.9606 29.9662 26.7937 29.8817 27.1587C29.6218 27.076 29.6296 26.9169 29.4997 26.7983C30.2778 26.6829 30.2965 25.4988 29.3948 25.4254C29.2477 26.0136 29.2304 26.2055 28.9925 26.6595C29.3447 26.842 29.113 27.1868 29.6453 27.3179C29.4903 27.6595 29.2007 27.5176 29.0473 27.8592C28.5463 27.6876 28.8657 27.2867 28.2817 27.1384C28.0876 27.5659 28.5635 27.8077 28.5729 28.179C29.1302 28.4958 29.4793 28.0652 29.902 27.9013C30.3466 28.1884 30.1134 28.7641 30.7302 28.5114C30.6316 28.7188 30.4625 28.6689 30.3686 28.892C30.6081 29.1994 30.8617 29.5036 31.0089 29.8359C31.2468 29.9061 31.3893 29.6315 31.6899 29.9264C32.2143 29.3741 31.5239 29.1619 31.4597 28.775C31.7321 28.8203 32.0437 28.4848 31.9466 28.1712C32.1454 28.4271 32.3834 28.672 32.7121 28.892C32.7247 28.6408 32.5431 28.3709 32.9141 28.2742C33.4792 29.0512 34.2416 29.7719 34.3403 30.6815C34.0632 30.9529 34.1414 30.3788 33.7845 30.3695C33.8487 30.9124 34.9258 31.1729 34.9179 31.7346C35.5629 31.4023 35.7774 30.8531 36.3864 30.9514C36.1547 30.4553 36.2737 29.8609 36.2956 29.2945C36.4834 29.0714 36.8889 29.6222 37.0893 29.4474C37.3695 29.2961 37.2192 29.0886 37.5762 28.8437C37.3132 28.6986 37.357 28.4692 36.9703 28.3569C37.0345 28.2508 37.1566 28.3475 37.2552 28.3709C36.9437 27.5893 36.0952 27.4193 35.5019 26.8046C34.2902 25.5471 34.5923 23.1664 32.6714 22.7342C32.2675 23.143 33.0471 23.5907 33.4229 23.7405C33.1051 23.8326 32.7841 23.9168 32.3442 23.572C31.7352 23.0072 32.7372 22.3598 32.2534 21.9152C32.0609 22.2319 31.8793 22.2537 31.5302 22.6781C31.2875 22.4316 31.0918 21.8933 30.5909 22.0041C30.5329 21.5548 30.5564 21.0789 30.4875 20.6312H30.4828ZM24.1942 20.6093C24.4321 20.7919 24.609 20.9916 24.5636 21.2537C24.3601 21.3083 24.0987 21.1585 23.8326 20.99C23.9343 20.7919 24.0517 20.6593 24.1942 20.6093ZM31.3721 28.14C31.2405 28.4505 31.012 28.4162 30.738 28.2227C30.9149 27.9294 31.2938 27.8327 31.3721 28.14Z" fill="#FC751A"/>
<path fill-rule="evenodd" clip-rule="evenodd" d="M14.0476 43.2514C13.9678 42.8941 13.7925 42.6304 14.2637 42.3496C13.7486 42.515 13.3839 43.2202 12.8438 43.306C12.9831 43.3606 13.0285 43.4417 13.005 43.5415C13.3463 43.4261 13.5842 42.93 14.0476 43.2498V43.2514Z" fill="#FC751A"/>
<path fill-rule="evenodd" clip-rule="evenodd" d="M33.2895 11.2517C33.0672 11.13 32.9764 11.4748 32.7197 11.2236C32.8449 11.6683 33.3396 11.6636 33.2974 12.2767C33.6058 11.8492 33.133 11.6386 33.2895 11.2517Z" fill="#FC751A"/>
<path fill-rule="evenodd" clip-rule="evenodd" d="M34.6158 13.3111C34.6409 13.7557 36.172 13.5467 36.3003 13.9632C36.5524 13.7074 36.2048 13.6169 36.3285 13.3954C35.5974 12.7932 35.264 13.6122 34.6174 13.3111H34.6158Z" fill="#FC751A"/>
<path fill-rule="evenodd" clip-rule="evenodd" d="M22.2154 42.2823C22.7273 42.6551 22.9668 42.0623 23.3222 41.8798C24.4635 42.9953 26.4376 44.2808 28.3178 44.9719C28.5416 44.9064 28.6903 44.6427 28.6293 44.4181C29.4199 44.7598 29.9224 44.1856 29.9866 43.5725C29.5107 43.4243 29.8285 43.0561 29.506 42.8658C29.8629 42.7784 30.0868 42.4617 30.2151 42.3868C30.439 42.106 29.5592 42.1341 29.7831 41.8532C29.4621 41.8205 29.2618 42.223 28.9142 42.0951C28.7764 41.8845 28.8657 41.6114 29.0676 41.3056C28.7843 41.042 28.4493 40.7924 28.3647 40.4725C29.3212 40.1777 27.8919 39.5099 28.2739 38.8157C27.9452 38.6488 27.5788 38.3461 27.3205 38.4272C27.1937 38.6191 27.3252 38.7377 27.1828 38.9327C25.9648 38.5801 24.8126 38.0902 23.6071 37.2197C23.8576 37.1089 24.083 36.9123 24.4134 37.0871C24.2412 36.4958 23.6604 37.2837 23.175 36.6846C23.1046 37.0559 22.2624 37.3383 22.5488 37.7938C22.3625 37.9061 22.1011 37.7533 21.8678 37.7033C22.0087 38.2041 21.4545 37.9295 21.3183 38.4163C21.799 38.5567 21.9258 38.9967 22.2091 38.9171C22.3046 39.265 21.7598 39.7892 22.3281 40.0061C22.1966 40.3165 21.968 40.2838 21.6941 40.0888C21.8772 40.7237 22.8557 41.1356 23.4474 41.6551C23.1124 42.1356 22.4956 41.6099 22.2154 42.2792V42.2823Z" fill="#FC751A"/>
<path fill-rule="evenodd" clip-rule="evenodd" d="M38.9228 15.2877C38.6896 15.4562 38.5221 15.7136 38.533 16.2378C38.8399 16.3236 39.0168 15.957 39.2422 15.7588C38.9714 15.6465 38.8399 15.4967 38.9228 15.2861V15.2877Z" fill="#FC751A"/>
<path fill-rule="evenodd" clip-rule="evenodd" d="M18.865 67.4207C19.4192 67.7281 20.0251 68.2148 20.3898 67.8373C20.548 67.1836 19.6024 67.6235 19.5617 67.2273C20.0705 66.3723 20.9362 67.5409 21.4826 67.7187C21.3902 67.4956 21.3245 67.2647 21.2869 67.026C19.9593 66.6781 19.2048 66.1695 18.303 66.0821C18.4423 65.5782 18.8243 65.9355 18.9652 65.43C20.1159 65.8544 21.0818 65.6219 21.9569 65.0634C21.6313 64.7498 21.3761 64.4159 21.2055 64.0587C21.8865 64.1913 22.7068 63.2646 23.2641 64.0446C23.0919 64.3192 22.8602 64.3847 22.569 64.2396C22.6504 64.5595 22.58 64.9214 22.7506 65.2178C23.5944 65.3224 24.8922 64.8356 25.2273 66.0213C26.2902 66.3162 27.4362 66.0291 28.1422 66.0494C27.671 65.6796 27.8417 64.5829 27.4472 63.9073C28.0374 63.5392 28.6886 62.8511 28.4491 62.1335C26.7161 61.5484 26.5705 60.3986 25.6108 59.3721C24.2206 59.6529 22.735 59.5936 21.3041 59.7325C21.279 60.784 20.0767 60.5749 19.8497 60.2317C19.7088 60.5843 20.1018 61.0695 20.4415 61.0024C20.1049 61.3612 19.6008 61.1272 19.175 61.1693C19.0795 61.4143 19.3535 61.5547 19.258 61.7996C18.1903 61.8963 17.0287 61.6561 16.1896 62.5625C15.8232 62.4767 15.9892 62.2443 15.6949 62.1397C15.5305 62.2162 15.3802 62.355 15.2706 62.6312C14.8855 62.5173 15.0123 62.589 14.7149 62.3191C14.2108 62.7529 13.666 63.0384 13.1697 63.497C13.558 63.7622 13.8585 63.7201 14.1857 63.7747C13.9071 64.5642 13.1963 63.8153 12.9396 64.6827C13.3263 64.8621 13.4859 65.5829 13.1212 65.6609C14.1936 66.2179 14.7853 67.2616 15.5133 68.1711C16.7594 67.9543 17.6251 68.5768 18.8666 67.4223L18.865 67.4207ZM18.0165 66.0681C17.9602 66.5673 17.2619 66.4535 17.2729 66.0884C17.5547 66.2007 17.6972 65.8185 18.0165 66.0681Z" fill="#FC751A"/>
<path fill-rule="evenodd" clip-rule="evenodd" d="M40.4394 17.0127C40.6163 17.3684 40.5067 17.8052 40.8433 18.1157C40.9262 17.9675 41.0108 17.8193 41.0938 17.6726C40.502 17.5572 40.9356 17.1547 40.4409 17.0127H40.4394Z" fill="#FC751A"/>
<path fill-rule="evenodd" clip-rule="evenodd" d="M11.5093 30.8752C11.4467 30.986 11.384 31.0983 11.3214 31.2075C11.777 31.0842 11.3073 31.4368 11.705 31.5679C11.5108 31.6537 11.3668 31.922 11.121 31.8237C11.3214 32.2668 11.6737 32.6662 11.5108 33.2107C11.2197 33.621 11.0428 32.8051 10.606 32.9954C10.4807 33.1873 10.6107 33.3059 10.4666 33.5009C10.941 33.518 11.2322 33.7489 10.7719 34.256C11.1367 34.4416 11.4044 34.2794 11.5922 33.841C11.9414 33.9315 11.6924 34.1873 11.9132 34.3121C11.4905 34.4993 11.6016 34.515 11.251 34.9627C11.55 35.0251 11.8756 35.1842 12.1558 35.178C12.2012 34.568 12.5284 34.4572 12.6224 33.8332C12.9511 33.3386 13.6305 34.0875 14 33.7302C13.4004 33.5134 12.6787 33.5009 12.6161 32.8082C12.6881 32.7302 12.7899 32.7598 12.8525 32.6475C13.1327 32.8612 13.0388 33.426 13.5053 33.3074C13.7401 32.4322 13.1906 31.7754 12.6991 31.1014C12.2811 30.9516 11.9711 31.1825 11.5093 30.8721V30.8752Z" fill="#FC751A"/>
<path fill-rule="evenodd" clip-rule="evenodd" d="M9.39229 53.0536C9.25609 53.556 9.85099 53.2877 10.1218 53.3173C10.3019 53.5482 10.2596 53.8399 10.6024 54.024C10.2533 54.4484 9.63651 53.9226 9.37194 54.6481C10.1641 54.5763 12.0396 55.5514 11.9535 54.4889C12.074 54.3579 12.2838 54.5529 12.4607 54.6278C12.7268 53.5981 13.8211 53.4608 14.4442 52.673C14.3002 52.4202 14.0262 51.96 13.616 52.063C13.8634 51.4951 14.3816 51.896 14.5757 51.1409C14.4645 51.0785 14.3534 51.0161 14.2422 50.9537C14.5178 50.8195 14.7072 50.3796 14.9671 50.1908C15.3522 50.3016 15.1862 50.5668 15.5714 50.676C16.3572 50.6167 16.5952 49.4919 17.1306 49.2126C17.3091 48.9755 16.8786 48.9084 16.9835 48.6931C17.9603 48.2672 17.0696 47.3249 17.666 46.4465C17.2042 46.1376 16.8927 46.367 16.4762 46.2188C16.3651 46.5916 16.2289 46.9738 16.4841 47.2453C15.8187 47.9177 14.5068 48.8148 14.7573 49.7821C14.4238 50.0691 14.4677 49.6151 14.1248 49.8648C14.5961 50.9553 13.0932 51.6402 12.9679 52.4311C12.4372 52.4405 11.5684 53.0022 11.1942 52.4577C10.9296 52.7962 10.5743 53.2596 10.103 52.5747C9.84629 52.6574 9.66156 53.01 9.39386 53.0536H9.39229Z" fill="#FC751A"/>
</g>
<defs>
<clipPath id="clip0_295_1502">
<rect width="78" height="84" fill="white" transform="matrix(-1 0 0 1 78 0)"/>
</clipPath>
</defs>
</svg>
