<svg width="84" height="102" viewBox="0 0 84 102" fill="none" xmlns="http://www.w3.org/2000/svg">
<g clip-path="url(#clip0_295_281)">
<path d="M23.6771 101.574C23.6104 101.622 23.5436 101.671 23.4678 101.713C23.5315 101.765 23.6013 101.816 23.6741 101.868C23.8985 101.874 23.8803 101.71 23.8712 101.568C23.8712 101.562 23.8712 101.58 23.6771 101.574Z" fill="#FFCB42"/>
<path d="M19.7426 70.1266C19.8184 70.1327 19.8942 70.1448 19.967 70.157C20.0004 70.0144 19.7729 69.8293 19.7668 69.8354C19.6333 69.8263 19.5666 69.8627 19.5363 69.9021C19.5029 69.9385 19.5059 69.978 19.5059 69.978C19.5059 69.978 19.5059 70.0144 19.5393 70.0508C19.5727 70.0842 19.6303 70.1236 19.7456 70.1327L19.7426 70.1266Z" fill="#FFCB42"/>
<path d="M34.6403 85.1855C34.523 85.2786 34.521 85.3271 34.6342 85.3312C34.974 85.4889 35.153 85.3463 34.9831 85.1946C34.9831 85.1946 34.8102 85.1886 34.6373 85.1855H34.6403Z" fill="#FFCB42"/>
<path d="M6.94688 80.4889L6.78003 80.4434C6.7406 80.5859 6.86801 80.771 6.86801 80.771C7.03486 80.8165 7.07126 80.6739 7.07126 80.6739C7.07126 80.6739 7.1107 80.5313 6.94385 80.4889H6.94688Z" fill="#FFCB42"/>
<path d="M37.835 76.7031C37.835 76.7031 37.8595 76.7123 37.8718 76.7185C37.8626 76.7154 37.8503 76.7093 37.835 76.7031Z" fill="#FFCB42"/>
<path d="M48.8136 82.2686C48.5891 81.5739 48.4344 81.4314 48.4586 81.1401C48.3949 81.1765 48.3009 81.1007 48.1856 80.9763C48.134 80.9096 48.0552 80.8489 47.9793 80.7731C47.9035 80.7003 47.8246 80.6214 47.7336 80.5607C47.4697 80.3544 47.2482 80.318 47.136 80.3211C47.0207 80.3271 46.9995 80.3969 47.0571 80.5061C47.0237 80.5911 47.051 80.6972 47.0874 80.8155C47.0237 80.7852 46.9631 80.7488 46.8963 80.7215C46.775 80.676 46.6567 80.6305 46.5353 80.582C46.6112 80.588 46.6931 80.5819 46.7841 80.5516C47.1572 80.5364 47.051 80.3393 46.3564 79.7629C45.7163 79.5202 45.3947 79.3988 45.6617 79.6597C45.7678 79.8569 45.7163 79.9934 45.6617 80.133C45.6495 80.1694 45.6465 80.2088 45.6526 80.2483C45.5191 80.1967 45.3856 80.1451 45.2521 80.0935C45.2582 80.0238 45.2521 79.9328 45.2339 79.8145C45.2339 79.3412 44.7516 79.1622 44.4877 79.3746C44.2207 79.59 43.9022 79.4686 44.1661 79.2532C44.2369 79.0712 44.1651 78.9398 43.9507 78.8589C43.524 78.6971 43.2934 78.6627 43.2591 78.7557C43.2247 78.8488 43.3137 78.9347 43.526 79.0136C43.8991 78.9984 43.793 79.2714 43.4198 79.2896C43.3379 79.2593 43.2864 79.2805 43.2469 79.323C43.0558 79.2502 42.8617 79.1744 42.6705 79.1016C42.5704 78.9741 42.4612 78.9256 42.4612 78.9256C42.4491 78.9529 42.44 78.9833 42.4339 79.0106C42.2701 78.9468 42.1033 78.8862 41.9395 78.8225C41.9455 78.7648 41.9394 78.6708 41.8757 78.5464C41.7696 78.3492 41.6088 78.2886 41.5026 78.5616C41.4905 78.5919 41.4814 78.6192 41.4723 78.6435C41.448 78.6344 41.4237 78.6253 41.3995 78.6162C41.3995 78.5555 41.3995 78.4736 41.3995 78.3644C41.5026 78.0883 41.3449 78.0307 41.1841 77.97C40.9353 77.9801 40.901 78.0722 41.0809 78.2461C41.1477 78.3705 41.1507 78.4645 41.1447 78.5221C41.0385 78.4827 40.9323 78.4433 40.8292 78.4008C40.8413 78.2734 40.7594 78.1247 40.7594 78.1247C40.6229 78.0732 40.5652 78.1672 40.5167 78.2825C40.4045 78.24 40.2922 78.1976 40.18 78.1551C40.1345 78.1156 40.092 78.0701 40.0647 78.0216C39.7977 77.7637 39.637 77.7031 39.2638 77.7182C39.103 77.6576 38.9453 77.5969 38.9453 77.5969C38.7845 77.5362 38.9969 77.4604 38.9969 77.4604C39.37 77.4422 39.4216 77.3057 38.9938 76.9872C38.7795 76.9063 38.6551 76.9123 38.6207 77.0054C38.7299 77.2025 38.5176 77.2814 38.4084 77.0812C38.2476 77.0205 38.0868 76.9598 37.8775 77.0387C37.7167 76.978 37.559 76.9174 37.559 76.9174C37.6105 76.7809 37.6621 76.6413 37.8229 76.702L37.5013 76.5807C37.1282 76.5989 36.9704 76.5382 36.8612 76.338C36.6469 76.2571 36.5225 76.2631 36.4881 76.3562C36.385 76.6322 36.0634 76.5109 36.0088 76.1742C36.0604 76.0376 35.0987 75.6736 34.7286 75.6918C34.5678 75.6311 34.5163 75.7676 34.4647 75.9072C34.4526 75.9406 34.4374 75.9679 34.4192 75.9891C34.2493 75.9254 34.0825 75.8647 33.9126 75.801C33.8822 75.7585 33.8519 75.713 33.8246 75.6645C33.7154 75.4673 33.767 75.3278 33.8762 75.528C34.037 75.5887 34.1977 75.6493 34.2463 75.5098C34.3494 75.2337 33.3878 74.8727 33.1785 74.9486C33.1269 75.0851 32.8084 74.9668 32.4868 74.8454C32.0601 74.6836 31.8123 74.6948 31.7436 74.8788C31.7314 74.9152 31.7193 74.9516 31.7102 74.985C31.6465 74.9607 31.5798 74.9364 31.5161 74.9122C31.5464 74.8849 31.5707 74.8545 31.5858 74.8151C31.6374 74.6756 31.6435 74.5633 31.6313 74.4996C31.6162 74.4359 31.5767 74.4207 31.4796 74.4632C31.2794 74.5451 31.1308 74.4875 31.2703 74.3843C31.2764 74.3479 31.2552 74.3115 31.2188 74.2782C31.3007 74.0233 31.3007 73.7109 31.1975 73.6138C31.1975 73.6138 31.2097 73.4712 31.2218 73.3317C31.3947 73.001 31.2491 72.9889 31.0762 73.3195C30.9973 73.3984 30.9548 73.4379 30.9366 73.4561L30.9154 73.4743C30.9306 73.3135 31.0883 73.1466 31.2491 72.9889C31.4614 72.7765 31.5241 72.6087 31.4372 72.4853C31.1581 72.2912 31.1702 72.1213 31.4614 72.1425C31.6071 72.1516 31.6192 71.9817 31.6435 71.6389C31.6556 71.466 31.5434 70.9442 31.5616 70.6014C31.5798 70.2587 31.6101 69.7429 31.6101 69.7429C31.4645 69.7338 31.4796 69.391 31.4887 69.2212C31.6526 68.8844 31.5039 68.8784 31.3583 68.8723C31.2461 68.8662 31.1338 68.8632 31.0853 68.936C31.0913 68.8359 31.0944 68.7328 31.0974 68.6327C31.1702 68.6448 31.2552 68.663 31.3674 68.7024L31.8073 68.7206L31.7011 67.6831C31.5889 66.6487 31.5919 66.4788 31.7466 66.136C31.8952 65.9661 31.9013 65.7963 31.7587 65.4474C31.7618 65.2745 31.7648 65.1046 31.7648 65.1046C31.9074 64.9438 31.3856 64.6192 31.2066 64.5858C31.2066 64.4706 31.2066 64.3553 31.2066 64.24C31.243 64.24 31.2825 64.24 31.328 64.24C31.5241 64.24 31.5737 64.1834 31.4766 64.0701C31.4766 64.0064 31.4766 63.9458 31.4766 63.9003C31.7709 63.9003 31.9195 63.7304 31.7709 63.5575C31.4766 63.3845 31.6222 63.2147 31.7709 63.2147C31.8679 63.2147 31.8184 63.157 31.6222 63.0418C31.4736 62.8719 31.4766 62.699 31.6222 62.526C31.7173 62.2955 31.6667 62.1812 31.4705 62.1832C31.3583 62.1832 31.2491 62.0892 31.1975 61.9679C31.1975 61.8799 31.1945 61.795 31.1945 61.707C31.2248 61.6736 31.2946 61.6706 31.4645 61.6706C31.7618 61.8374 31.9074 61.8374 31.7557 61.4946C31.604 61.1549 31.598 60.9819 31.7466 60.9789C31.7436 60.806 31.8831 60.4602 31.8801 60.2873C31.8649 59.7715 31.7132 59.6047 31.5646 59.6077C31.2643 59.447 31.1187 59.45 31.2764 59.7867C31.3704 59.99 31.2976 60.0082 31.1581 59.8838C31.152 59.6805 31.1429 59.4803 31.1369 59.2771C31.7011 59.2528 31.8406 59.0769 31.6829 58.7432C31.5757 58.5187 31.5707 58.4044 31.6677 58.4004C31.962 58.3882 31.9408 57.8725 31.6374 57.7148C31.4827 57.551 31.4736 57.378 31.4645 57.2082C31.4584 57.0929 31.4068 57.0383 31.3098 57.0444C31.0246 57.2294 31.0003 56.7198 31.419 56.3527C31.5646 56.3436 31.5555 56.1737 31.5555 56.1737C31.3977 56.0099 31.3886 55.84 31.3765 55.6701C31.3856 55.5791 31.4038 55.4851 31.3977 55.3334C31.3826 55.1817 31.3947 55.0058 31.331 54.8207C31.2552 54.4476 31.0094 54.0381 30.6848 53.765C30.3633 53.486 29.9811 53.3434 29.702 53.313C29.6322 53.3039 29.5685 53.2948 29.5139 53.2918C29.4562 53.2918 29.4077 53.2979 29.3683 53.3039C29.2894 53.313 29.2469 53.3282 29.2469 53.3464C29.4532 53.5042 29.4411 53.489 29.6383 53.5345C29.6383 53.5345 29.8354 53.5739 29.7869 53.7195C29.7869 53.7195 29.7323 53.7377 29.6595 53.765C29.6261 53.7772 29.5897 53.7832 29.5533 53.7893C29.4077 53.762 29.256 53.7559 29.1074 53.7681C29.077 53.7529 29.074 53.7195 29.0679 53.6528C29.0619 53.5102 28.8344 53.3676 28.6281 53.4405C28.6281 53.4405 28.6705 53.58 28.713 53.7226C28.9193 53.8196 28.7585 53.8561 28.5401 53.7802C28.3187 53.7226 28.2246 53.6043 28.3763 53.3707C28.3217 53.2342 28.2671 53.0977 28.2671 53.0977C28.0335 53.2038 28.1063 53.3373 28.173 53.4678C28.173 53.4678 28.1366 53.5224 28.079 53.58C28.0214 53.6437 27.9334 53.7013 27.7969 53.7104C27.7059 53.7772 27.5936 53.9016 27.5087 54.0108C27.4328 54.126 27.4055 54.2413 27.4632 54.2808C27.5845 54.3657 27.4571 54.5265 27.5178 54.7631C27.4359 54.9269 27.4086 55.0058 27.36 55.0331C27.3115 55.0604 27.2417 55.0331 27.1052 54.9815L26.9687 54.9269C27.1082 54.9785 27.1568 54.8268 27.2539 54.6357C27.3418 54.4537 27.3449 54.4537 27.2175 54.3778C27.1295 54.3869 27.0445 54.4385 26.9657 54.5113C26.8929 54.5811 26.814 54.6994 26.7897 54.7692C26.729 54.9299 26.7382 55.115 26.8443 55.2485L26.7837 55.4092C26.6471 55.3577 26.5258 55.6762 26.4803 56.2101C26.3772 56.9048 26.3923 57.2749 26.5743 56.7956C26.5743 56.7956 26.6866 56.8381 26.811 56.8866C26.8049 56.9018 26.7988 56.9169 26.7928 56.9321C26.7624 56.9473 26.7199 56.9715 26.6502 57.0079C26.0586 57.3295 25.998 57.4903 26.4682 57.4873C26.5015 57.4994 26.5319 57.5115 26.5622 57.5267C26.5167 57.642 26.4742 57.7572 26.4287 57.8725C26.3043 57.915 26.1709 57.9241 26.0101 57.8634C25.9342 57.6511 25.7371 57.7572 25.8129 57.9696C25.7522 58.1304 25.6916 58.2912 25.6916 58.2912C25.6309 58.4519 25.7674 58.5035 26.0435 58.6097C26.089 58.5854 26.1284 58.5702 26.1618 58.5642C26.1223 58.6673 26.0829 58.7674 26.0435 58.8675C25.8584 58.9889 25.6461 59.1891 25.5247 59.1436C25.1304 59.359 25.009 59.6805 25.1607 60.1052C25.2112 60.2468 25.191 60.3004 25.1 60.266C24.9635 60.2145 24.8422 60.533 24.7208 60.8545C24.5995 61.1741 24.6308 61.3692 24.8149 61.44C25.0393 61.4036 25.0191 61.4572 24.7542 61.6008C24.3598 61.8162 24.2385 62.1377 24.4508 62.4017C24.3902 62.3804 24.4326 62.3956 24.3143 62.3501C24.0383 62.247 23.9017 62.1954 23.9776 62.4047C24.0534 62.6171 23.9928 62.7778 23.8138 63.2571C23.5559 63.5241 23.4346 63.8457 23.4346 63.8457C23.5711 63.8972 23.5104 64.058 23.4497 64.2188C23.3891 64.3796 23.3284 64.5403 23.4073 64.7497C23.5438 64.8012 23.4831 64.962 23.3466 64.9104C23.2101 64.8589 23.1494 65.0197 23.0887 65.1804L22.9522 65.1289C22.8157 65.0773 22.6155 65.1865 22.6944 65.3989C22.7702 65.6112 22.7884 65.9813 22.4699 66.4121C22.1059 67.3737 22.0452 67.5315 22.3213 67.6346C22.4578 67.6862 22.5366 67.8985 22.5366 67.8985C22.4962 68.0057 22.4305 68.0421 22.3395 68.0077C22.2029 67.9562 22.0634 67.9046 22.0027 68.0654L21.9421 68.2262C22.0786 68.2777 21.9603 68.5962 21.76 68.7055C21.3808 69.294 21.396 69.6671 21.6569 69.3971C21.7884 69.3243 21.8804 69.3587 21.933 69.5003C21.8116 69.8188 21.8116 69.8218 21.6751 69.7672C21.5811 69.7338 21.4506 69.8036 21.3475 69.8613C21.2959 69.8916 21.2474 69.925 21.2079 69.9614C21.1897 69.9796 21.1715 69.9978 21.1564 70.016C21.1533 70.0342 21.1321 70.0129 21.1169 70.0069C21.1017 69.9978 21.0866 69.9917 21.0744 69.9856C20.9652 69.9432 20.8985 69.9735 20.8227 70.0766C20.7134 70.1585 20.6133 70.2101 20.5163 70.2496C20.4708 70.2678 20.4101 70.289 20.3767 70.3011L20.2857 70.3315C20.2857 70.3315 20.2736 70.3345 20.2705 70.3375C20.1826 70.38 20.1856 70.5256 20.1917 70.6682L20.3191 70.6288L20.3403 70.6227C20.4768 70.5802 20.495 70.5832 20.5254 70.6925C20.489 70.7016 20.4556 70.7107 20.4192 70.7228C20.3343 70.7501 20.2523 70.7744 20.1674 70.8017C20.1674 70.8017 20.1644 70.8017 20.1613 70.8017C20.0188 70.7501 19.8822 70.7258 19.7518 70.7107C19.8944 70.6621 19.9763 70.6166 19.9642 70.5468C19.9642 70.4771 19.8489 70.3527 19.5182 70.2829C19.2998 70.289 19.1876 70.3224 19.139 70.3527C19.0905 70.383 19.0996 70.4194 19.1208 70.4892L19.1603 70.6318C19.2361 70.6136 19.2877 70.653 19.3241 70.7167C19.2179 70.7349 19.1208 70.7683 19.0268 70.8108C18.9873 70.7653 18.9085 70.7683 18.8296 70.7926C18.7416 70.8229 18.6658 70.8805 18.6658 70.8805C18.6172 71.1081 18.5293 70.9989 18.4231 70.8927C18.4019 70.7531 18.3746 70.6834 18.2987 70.7076C18.2653 70.7137 18.2077 70.7622 18.1683 70.8077C18.1531 70.829 18.1258 70.8745 18.1046 70.9382C18.0682 70.9837 18.0075 71.014 17.9347 71.0686C17.9044 71.1536 17.7709 71.2324 17.6799 71.2779C17.5828 71.3265 17.5009 71.3507 17.5009 71.3507C17.4584 71.2112 16.97 71.3568 16.6424 71.4509C16.3148 71.5479 15.8233 71.6875 15.7839 71.5449C15.7839 71.5449 15.4562 71.6389 15.1286 71.733C14.6372 71.8695 14.4734 71.915 14.4734 71.915C14.5613 71.5874 13.6907 72.2821 13.5633 72.4671C13.5997 72.5976 13.6027 72.6097 13.7635 72.6855C13.6846 72.7068 13.6088 72.728 13.5299 72.7462C13.4753 72.5611 13.2599 72.3518 12.996 72.3124C12.7928 72.2123 12.4651 72.3003 12.6653 72.3973C12.7017 72.5399 12.2073 72.6704 11.2153 72.9221C11.0484 72.9646 11.0151 72.822 10.9423 72.5369C10.9807 72.2234 10.914 72.189 10.7421 72.4337C10.4478 72.6582 10.4812 72.8008 10.8846 73.004C11.0454 73.086 11.1213 73.2862 11.0575 73.3832C11.0333 73.3893 11.006 73.3954 10.9817 73.4015C10.9756 73.3802 10.9696 73.3499 10.9544 73.2892C10.9544 73.2892 10.7542 73.1861 10.5873 73.2285C10.4761 73.2548 10.4326 73.3155 10.4569 73.4106C10.466 73.45 10.463 73.4925 10.4539 73.5319C10.3538 73.5562 10.2567 73.5835 10.1566 73.6047C10.1444 73.5683 10.1353 73.5289 10.1262 73.4894C10.0929 73.3468 10.0565 73.2043 9.89265 73.2437C9.89265 73.2437 9.7258 73.2831 9.52559 73.18C9.15852 73.1163 8.99471 73.1557 8.69742 73.3741C8.39709 73.5926 8.06643 73.6714 7.89958 73.7078C7.89958 73.7078 7.53555 73.6381 7.03501 73.7503C6.70132 73.8231 6.17044 73.7867 6.00663 73.8231C5.83978 73.8595 5.67293 73.8929 5.67293 73.8929C5.70327 74.0355 5.53642 74.0719 5.17239 73.996C5.00554 74.0294 4.83869 74.0658 4.83869 74.0658C4.56264 74.4207 4.0894 74.6634 3.89525 74.5542C3.89525 74.5542 3.53122 74.4753 3.36437 74.5057C3.19752 74.539 3.22483 74.6816 3.61616 74.9061C3.71323 74.9273 3.79817 74.9516 3.86795 74.9789C3.51605 75.0487 3.16112 75.1124 2.80619 75.1791C2.8517 74.7423 2.157 74.5876 1.85668 74.7878C1.72017 74.9607 1.71107 74.9637 1.50782 75.0214C1.49872 74.985 1.43804 74.9728 1.33794 74.9819C1.24086 75.0002 1.10435 75.0517 0.94357 75.1276C0.63111 75.3035 0.285282 75.6857 0.13967 76.1317C-0.0484127 76.6838 0.000124637 77.1874 0.0911322 77.5848C0.18214 77.9822 0.318651 78.2916 0.403592 78.5221C0.673581 78.8953 1.10132 79.232 1.59882 79.235C1.99016 79.2108 2.1388 79.2532 2.30868 79.3078C2.26621 79.4474 2.4725 79.3594 2.35115 79.1683C2.4098 78.9802 2.46441 78.9974 2.51497 79.2199C2.63328 79.411 2.80012 79.4626 3.29157 79.6112C3.61919 79.7113 3.78301 79.7599 3.78301 79.7599C3.74054 79.8994 3.69807 80.042 3.69807 80.042L3.86188 80.0905C3.90435 79.951 4.23501 80.048 4.60511 80.0025C5.04599 80.1279 5.19767 80.222 5.06015 80.2847C5.02071 80.4272 4.97824 80.5668 4.97824 80.5668C5.18452 80.4727 5.34834 80.5213 5.39081 80.3787C5.43024 80.2392 5.7609 80.3302 6.09157 80.4212C6.42223 80.5122 6.58907 80.5577 6.46166 80.3696C6.5011 80.227 6.66491 80.2725 6.99557 80.3605C7.21601 80.4191 7.3141 80.496 7.28983 80.5911C7.25343 80.7336 7.38084 80.9187 7.54769 80.9642C8.04823 81.0916 8.58214 81.0825 8.78539 80.9794C9.05437 80.8439 9.10998 80.858 8.95224 81.0218C8.91583 81.1644 8.87943 81.307 8.87943 81.307C9.88052 81.5588 9.88051 81.5527 10.1171 81.307C10.1636 81.1169 10.2749 81.1432 10.4508 81.3858C10.8846 81.7893 10.8513 81.9319 11.0848 81.6862L11.1182 81.5436C11.2183 81.8712 11.8887 82.0229 12.2892 81.8075L12.6229 81.8803C12.7897 81.9167 12.5925 82.0229 12.5925 82.0229L12.4257 81.9865C12.3954 82.1321 12.7291 82.2019 12.8989 82.2383C13.266 82.1685 13.5997 82.2383 14.443 82.4112C14.7798 82.4779 14.9193 82.6539 14.6948 82.9117C14.6675 83.0574 14.6372 83.1999 14.8071 83.2333C14.9769 83.2667 15.0042 83.1211 15.0315 82.9785C15.0588 82.8329 15.256 82.7237 15.3986 82.8996C15.5685 82.933 15.7353 82.9633 15.7626 82.8177C15.7626 82.8177 15.9325 82.848 16.0994 82.8814C16.1479 82.9421 16.3785 82.9663 16.6636 82.9603C16.7 82.9603 16.7364 82.9603 16.7728 82.9603C16.8123 82.9603 16.8214 82.9542 16.8517 82.9481C16.9033 82.939 16.9548 82.9299 17.0094 82.9178C17.0701 82.9087 17.1308 82.8966 17.1884 82.8875C17.2218 82.8814 17.2521 82.8784 17.2825 82.8723C17.3189 82.8632 17.3158 82.8935 17.334 82.9057C17.425 83.0119 17.5616 83.0968 17.6313 83.1271C17.5646 83.1696 17.5767 83.1635 17.507 83.206C17.3826 83.2818 17.3492 83.3729 17.419 83.4639C17.4857 83.5518 17.6799 83.6519 17.8679 83.6095C17.9135 83.6155 17.9529 83.6186 17.9923 83.6216C18.1622 83.7005 18.2259 83.7975 18.2289 83.8188C18.2289 83.8491 18.144 83.8279 18.0014 83.8249C17.8953 83.7278 17.8255 83.7551 17.8042 83.8127C17.7951 83.8431 17.7951 83.8795 17.8133 83.925C17.8224 83.9492 17.8376 83.9735 17.8558 84.0038C17.8801 84.0524 17.9104 84.1039 17.9468 84.1586C18.0469 84.4862 18.1895 84.9746 18.0985 85.1809C18.0045 85.3872 18.1956 85.5085 18.3837 85.6298C18.6041 85.6844 18.6203 85.739 18.4322 85.7937C18.1501 85.8756 18.1986 86.0394 18.4747 87.0223C18.6112 87.5137 18.6567 87.6775 18.9388 87.6017C19.0177 87.5804 19.0025 87.5835 19.0814 87.5622C18.9843 87.7655 19.0298 87.9293 19.0298 87.9293C19.0601 88.0385 19.0278 88.1063 18.9327 88.1325C18.7902 88.172 18.6931 88.3722 18.6931 88.3722C18.7386 88.536 18.8781 88.4996 19.0207 88.4602C19.0207 88.4602 19.0662 88.624 19.1087 88.7878C19.0541 89.1549 19.0965 89.3187 19.2391 89.2823C19.3625 89.3672 19.4717 89.3975 19.5668 89.3733L19.4666 89.5765C19.227 89.8162 19.2664 89.98 19.409 89.9436C19.5941 90.071 19.6365 90.2379 19.6365 90.2379C19.679 90.4047 19.7215 90.5685 19.9035 90.699C19.946 90.8658 19.9854 91.0296 19.8428 91.066C19.5971 91.3026 19.8003 92.1278 20.1249 92.2249C20.0218 92.4251 20.0612 92.5919 20.0612 92.5919C20.1826 92.6809 20.2908 92.7133 20.3858 92.689C20.3494 92.5343 20.4374 92.3583 20.5648 92.3037C20.5739 92.3462 20.586 92.3887 20.5951 92.4311C20.5891 92.4948 20.5739 92.5677 20.5284 92.6526C20.1765 93.0864 20.2523 93.4171 20.5405 93.3503C20.6831 93.3169 20.7225 93.4838 20.7225 93.4838C20.762 93.6506 20.6164 93.684 20.4738 93.7143C20.2918 93.5809 20.3312 93.7477 20.3676 93.9115C20.2978 94.2756 20.4404 94.2452 20.586 94.2119C20.6952 94.1876 20.8712 94.2513 21.038 94.3514C21.0805 94.5395 21.12 94.7276 21.1624 94.9156C21.1108 94.855 21.0532 94.77 20.9865 94.6457C20.7317 94.1785 20.6255 94.3757 20.7711 95.0431C20.8439 95.3767 20.8773 95.5436 21.0229 95.5133C21.0229 95.5133 21.1655 95.4829 21.2019 95.6498C21.2383 95.8166 21.3444 95.6194 21.2019 95.6498C20.8803 95.5436 20.8773 96.2413 21.0532 96.3778C21.0866 96.5447 21.2322 96.5143 21.3748 96.484C21.4324 96.4719 21.4718 96.4931 21.4991 96.5204C21.5143 96.5902 21.5265 96.66 21.5416 96.7328C21.5052 96.8056 21.4021 96.8268 21.2989 96.848C21.1564 96.8784 21.0107 96.9057 21.0107 96.9057L21.0441 97.0725C21.1867 97.0422 21.2201 97.209 21.2534 97.3789C21.1776 97.7429 21.3717 98.744 21.578 99.0535C21.5982 99.1647 21.5709 99.285 21.4961 99.4145C21.3505 99.4418 21.3808 99.6086 21.5568 99.7481C21.7691 99.825 21.7793 99.8806 21.5871 99.915C21.5143 99.9271 21.487 99.9757 21.5052 100.082C21.5143 100.133 21.5325 100.194 21.5871 100.315C21.6448 100.428 21.6842 100.561 21.8055 100.704C21.8844 100.925 22.1908 101.313 22.3941 101.447C22.3091 101.571 22.5821 101.59 22.482 101.329C22.6671 101.11 22.7884 101.189 22.8612 101.553C22.934 101.653 23.0857 101.756 23.1949 101.775C23.3041 101.796 23.3618 101.765 23.2708 101.678C23.3011 101.541 23.4952 101.444 23.6591 101.307C24.1141 101.32 24.5873 101.168 24.9574 100.88C25.0302 100.992 25.0788 101.122 24.9696 101.198C24.9696 101.198 24.8027 101.295 24.8725 101.426C24.8907 101.459 24.9362 101.462 25.009 101.441C25.0818 101.42 25.1759 101.368 25.276 101.271C25.4792 101.101 25.7067 100.74 25.7219 100.309C25.7735 100.106 25.7704 99.9817 25.7886 99.8695C25.8038 99.7633 25.8159 99.6875 25.8281 99.648C25.8523 99.5661 25.8766 99.6177 25.8948 99.8027C25.9828 100.012 26.1739 99.8907 26.2255 99.7269C26.2255 99.7269 26.3772 99.2355 26.4803 98.9048C26.5804 98.5772 26.6289 98.4103 26.4894 98.3679C26.4894 98.3679 26.5379 98.2041 26.5865 98.0402C26.7806 97.9189 27.2569 96.2686 27.1113 96.2262L27.1568 96.0593C27.1871 95.9481 27.1548 95.8803 27.0597 95.8561C26.7776 95.7772 26.8686 95.4496 27.1962 95.3616C27.3388 95.401 27.4298 95.0704 27.4723 94.9035C27.6482 94.2392 27.6937 94.0753 27.4632 94.3696C27.3327 94.3362 27.3176 94.3302 27.2053 94.3029C27.2266 94.2179 27.2508 94.133 27.2721 94.0511C27.3054 94.0086 27.3449 93.9874 27.4055 94.0025C27.5906 93.8751 27.7332 93.9115 27.6907 94.0753L27.8333 94.1117C28.0214 93.9843 28.261 92.4463 28.0517 92.0428L28.0911 91.876C28.2337 91.9094 28.2731 91.7425 28.3126 91.5757L28.352 91.4088C28.4946 91.4422 28.5371 91.2753 28.5735 91.1085C28.4734 90.9143 28.3702 90.7202 28.1033 90.6504C28.1154 90.5928 28.1306 90.5382 28.1427 90.4805L28.258 90.5078L28.4006 90.5412C28.5219 90.4522 28.5957 90.3521 28.622 90.2409C28.5512 90.1074 28.5765 89.9962 28.6978 89.9072C28.6978 89.9072 28.9193 89.6038 29.0619 88.9334C29.2773 87.2225 29.5078 86.7462 29.6868 86.6036L29.7202 86.4337C29.5776 86.4064 29.6716 85.8998 29.7657 85.3932C29.8081 85.1748 29.8203 85.102 29.8263 84.9503C29.8324 84.8138 29.8203 84.6621 29.7717 84.5287C29.7748 84.5165 29.7748 84.4983 29.7808 84.4892H29.8203C29.8476 84.4953 29.8718 84.4953 29.8931 84.4983C29.9356 84.4983 29.9629 84.5044 29.9629 84.5044C30.157 84.6652 30.2298 84.6712 30.3239 84.6773L30.5332 84.6925C30.5241 84.8381 30.697 84.8502 31.0489 84.7228C31.2279 84.5863 31.5707 84.6075 31.9134 84.6257C32.2562 84.6439 32.4292 84.653 32.6051 84.5165C32.7285 84.3264 32.7851 84.3284 32.775 84.5226C32.7689 84.6682 33.1117 84.6834 33.6244 84.7076C34.2948 84.7319 34.31 84.7289 34.4859 84.3224C34.5769 84.3254 34.671 84.3284 34.762 84.3315C34.6649 84.5923 34.6801 84.8654 34.8257 84.7501H34.9986C35.1655 84.9048 35.5083 84.9169 35.8541 84.923C36.1979 84.9291 36.3708 84.8836 36.3728 84.7865C36.2484 84.562 36.2181 84.4255 36.3577 84.3709C36.4214 84.3709 36.4851 84.3709 36.5518 84.3709L36.5457 84.7865C36.7126 85.0868 37.5741 84.9443 37.5772 84.65C37.6924 84.5529 37.8067 84.5054 37.9199 84.5074V84.653C37.9199 84.7986 37.9199 84.9473 38.0898 84.9473C38.0898 84.9473 38.2627 84.8017 38.2627 84.653C38.4326 84.7986 38.6055 84.9473 38.7785 84.7986H39.1213C39.1213 84.9473 41.357 84.923 42.0365 84.7471C42.5462 84.5863 42.5522 84.7289 42.5522 84.7289C42.6695 84.8219 42.7858 84.8664 42.9011 84.8623C43.0679 84.7167 45.2946 84.6105 45.6465 84.7289L45.8194 84.7167C45.6404 84.5802 45.8103 84.5711 46.1531 84.5499C46.1986 84.5832 46.2653 84.6075 46.3442 84.6197C46.3837 84.6257 46.4261 84.6318 46.4716 84.6318C46.5232 84.6318 46.5839 84.6227 46.6415 84.6166C46.8781 84.5954 47.133 84.474 47.2968 84.3315C47.585 84.1949 47.7973 84.0311 47.9611 83.8916C48.04 83.8158 48.1128 83.752 48.1826 83.7005C48.2463 83.6459 48.3039 83.5973 48.3646 83.567C48.4556 83.4881 48.5314 83.4093 48.583 83.3213C48.6376 83.2363 48.6922 83.1514 48.7256 83.0513C48.7559 82.9512 48.7863 82.842 48.8105 82.7146C48.8196 82.5841 48.8348 82.4355 48.8227 82.2565L48.8136 82.2686ZM31.4796 63.8639C31.4796 63.8184 31.4796 63.8275 31.4796 63.8639V63.8639ZM46.2593 80.4758C46.238 80.4667 46.2168 80.4606 46.1956 80.4515C46.2047 80.4242 46.2653 80.4212 46.2593 80.4758ZM44.2268 79.5869C44.4391 79.5111 44.5999 79.5718 44.7607 79.6324C44.9124 79.7811 44.9579 79.8873 44.9002 79.954C44.6363 79.8509 44.3694 79.7507 44.1054 79.6476C44.1358 79.6264 44.1782 79.6051 44.2268 79.5869ZM43.4289 79.3867C43.4047 79.3776 43.3804 79.3685 43.3561 79.3594C43.3925 79.3442 43.4138 79.3533 43.4289 79.3867ZM39.7462 77.8942C39.7371 77.9215 39.7401 77.9518 39.7522 77.9882C39.6612 77.9549 39.5733 77.9185 39.4822 77.8851C39.637 77.8578 39.7462 77.8942 39.7462 77.8942ZM38.7876 77.5332L38.7269 77.5999C38.7057 77.5939 38.6874 77.5848 38.6662 77.5787L38.7845 77.5362L38.7876 77.5332ZM37.8259 77.1722C37.9594 77.2207 37.9806 77.2329 38.0474 77.3451C37.9655 77.3148 37.8805 77.2844 37.7986 77.2511C37.8077 77.2238 37.8168 77.1965 37.8259 77.1722ZM31.9468 74.9516C32.0924 75.0062 32.2289 75.0457 32.2775 74.9182C32.2775 74.9182 32.4201 74.9759 32.3473 75.2155C32.2289 75.1731 32.1106 75.1276 31.9923 75.0851C31.9681 75.0335 31.9559 74.985 31.9468 74.9486V74.9516ZM30.9821 72.6249C30.9427 72.5702 30.9033 72.552 30.8669 72.5581C30.882 72.3549 30.8972 72.1486 30.9124 71.9453C30.9791 72.1122 31.0489 72.3306 31.1278 72.637C31.0489 72.6309 31.061 72.6309 30.9821 72.6249ZM31.237 71.0959L31.3826 71.105L31.5161 71.287L31.3583 71.4478C31.2127 71.4387 31.2218 71.2658 31.2339 71.0959H31.237ZM31.0094 70.3709C31.0246 70.1312 31.0398 69.8946 31.0519 69.655C31.1945 69.9189 31.1884 70.2465 31.0094 70.3709ZM31.237 68.1806C31.1611 68.3384 31.1247 68.4173 31.1035 68.4446C31.1095 68.299 31.1156 68.1503 31.1217 68.0047C31.237 68.0108 31.243 68.0199 31.237 68.1806ZM31.1672 66.5455C31.1672 66.4818 31.1672 66.4181 31.1702 66.3575C31.2188 66.5 31.2066 66.5637 31.1672 66.5455ZM31.331 62.705C31.331 62.705 31.2794 62.7596 31.2127 62.8082C31.2127 62.7232 31.2127 62.6353 31.2127 62.5503C31.2825 62.5685 31.334 62.6079 31.334 62.705H31.331ZM31.243 58.7674L31.1187 58.7735C31.1156 58.6855 31.1126 58.6006 31.1096 58.5126C31.1824 58.5763 31.237 58.6673 31.243 58.7674ZM31.0125 56.5256C31.0064 56.4285 31.0034 56.3345 30.9973 56.2374L31.1278 56.3739L31.0125 56.5256ZM31.0307 55.1666C31.1763 55.1393 31.1763 55.1393 31.2036 55.3304C31.2036 55.3304 31.1733 55.3819 31.1247 55.4305C31.0792 55.4699 31.0185 55.5063 30.9548 55.5215C30.9548 55.4942 30.9548 55.4669 30.9488 55.4396C30.9457 55.3789 30.9306 55.3273 30.9245 55.2697C30.9518 55.2394 30.9852 55.203 31.0307 55.1666ZM27.7938 54.2383C27.8272 54.2231 27.8727 54.2595 27.9304 54.3445C27.8848 54.393 27.8424 54.4506 27.8029 54.5052C27.7483 54.3657 27.7453 54.2535 27.7938 54.2353V54.2383ZM24.7876 62.1741C24.7845 62.1468 24.7936 62.1195 24.8179 62.0953C24.8088 62.1226 24.7967 62.1499 24.7876 62.1741ZM23.9897 64.0489L24.105 63.9852C24.0747 64.061 24.0474 64.1399 24.017 64.2157C23.9746 64.1763 23.9594 64.1247 23.9867 64.0459L23.9897 64.0489ZM23.6955 65.0803C23.6591 65.1804 23.6196 65.2836 23.5802 65.3837C23.3496 65.3867 23.4376 65.1592 23.6955 65.0803ZM23.204 66.1299L23.3284 66.0632C23.2981 66.1421 23.2677 66.224 23.2374 66.3029C23.1919 66.2634 23.1737 66.2119 23.204 66.1299ZM22.9007 66.9308C22.9007 66.9308 22.9522 66.9035 23.019 66.8823C22.9947 66.949 22.9704 67.0158 22.9462 67.0825C22.9037 67.04 22.8794 66.9885 22.9007 66.9308ZM22.0937 69.3759C22.0755 69.4244 22.0573 69.476 22.0391 69.5245C22.0422 69.4426 22.0452 69.3759 22.0937 69.3759ZM21.4263 70.6864C21.4263 70.6864 21.4385 70.6955 21.4445 70.6985C21.3687 70.6743 21.2929 70.653 21.211 70.6409C21.211 70.6409 21.211 70.6409 21.214 70.6379C21.2716 70.6166 21.3414 70.6318 21.4263 70.6864ZM16.2268 71.8634C16.2268 71.8634 16.2935 71.8938 16.3603 71.9484C16.2723 71.9726 16.1843 71.9969 16.0963 72.0242C16.066 71.915 16.0781 71.9059 16.2268 71.8634ZM15.6929 71.8634C15.8445 71.821 15.89 71.9393 15.796 72.1091C15.7323 72.1273 15.6656 72.1455 15.6019 72.1637C15.5655 72.0333 15.5412 71.9089 15.6929 71.8634ZM11.7735 73.0708C11.8402 72.9767 11.9858 73.0192 12.1193 73.1042C11.9646 73.1436 11.8068 73.183 11.6491 73.2225C11.6491 73.1527 11.6764 73.0951 11.7735 73.0708ZM9.44975 73.6411L9.60749 73.723C9.51345 73.7442 9.41941 73.7685 9.32537 73.7898C9.30717 73.7715 9.29807 73.7412 9.2829 73.6805L9.44975 73.6411ZM8.41833 73.7291L8.61854 73.8353L8.51237 73.9809C8.44563 73.996 8.37889 74.0112 8.31215 74.0264C8.28181 73.8929 8.26361 73.7655 8.41833 73.7291ZM1.30457 75.3581C1.31367 75.2701 1.34704 75.2155 1.34704 75.2155C1.43804 75.1731 1.47748 75.2883 1.49872 75.4127C1.49872 75.4218 1.49872 75.4309 1.50175 75.44C1.43501 75.4643 1.37434 75.4977 1.31367 75.528C1.2985 75.4643 1.29547 75.4097 1.30153 75.3611L1.30457 75.3581ZM0.934469 75.6463C0.998174 75.5947 1.05885 75.6099 1.11042 75.6584C1.01031 75.7373 0.919301 75.8253 0.846495 75.9254C0.831327 75.8344 0.855596 75.7282 0.931436 75.6493L0.934469 75.6463ZM0.488532 76.4411C0.488532 76.4411 0.549204 76.3956 0.63111 76.3683C0.606842 76.4502 0.58864 76.5351 0.576506 76.6231C0.509767 76.5958 0.470331 76.5473 0.488532 76.4411ZM0.861663 77.9488C0.94357 78.0823 1.04368 78.2067 1.15592 78.3159C0.952671 78.3037 0.828294 78.2309 0.770655 78.1642C0.716051 78.0944 0.755488 78.0186 0.858629 77.9488H0.861663ZM3.19752 79.2654C3.21269 79.2108 3.22483 79.1774 3.24303 79.1531C3.34617 79.1835 3.45235 79.2199 3.55549 79.2502C3.50088 79.3564 3.3492 79.3109 3.19752 79.2654ZM9.52862 80.8853C9.54985 80.8914 9.57109 80.8974 9.59232 80.9005C9.61963 81.0036 9.60143 80.9854 9.52862 80.8853ZM17.2885 82.6478C17.2461 82.7146 17.1672 82.7752 17.0853 82.7995C17.0003 82.8207 16.9275 82.8086 16.8032 82.7115C16.6393 82.6023 16.5787 82.4719 16.6272 82.4082C16.8426 82.4476 17.058 82.4901 17.2734 82.5265C17.3128 82.5538 17.3249 82.5932 17.2855 82.6509L17.2885 82.6478ZM18.6142 85.0383C18.6294 85.0929 18.6445 85.1445 18.6627 85.196C18.4595 85.3932 18.4201 85.2567 18.6142 85.0383ZM18.9176 87.0617C18.6992 87.0051 18.6688 86.8959 18.8266 86.7341C18.8913 86.5986 18.8448 86.4348 18.687 86.2426L18.8751 86.367C18.9267 86.3791 18.9661 86.3913 19.0025 86.3973C19.0571 86.5884 19.1087 86.7765 19.1633 86.9676C19.136 87.001 19.0692 87.0223 18.9176 87.0647V87.0617ZM19.3756 88.175C19.3332 88.0233 19.2968 87.8717 19.3999 87.8201C19.4302 87.9293 19.4575 88.0415 19.4879 88.1507C19.4363 88.1811 19.4788 88.2266 19.5061 88.2175C19.5152 88.2478 19.5212 88.2782 19.5303 88.3115C19.4242 88.3388 19.4151 88.3267 19.3756 88.1781V88.175ZM20.1553 90.7293C20.1644 90.7687 20.1765 90.8082 20.1856 90.8506C20.0825 90.9022 20.0794 90.8537 20.1553 90.7293ZM26.18 98.8259L25.9889 98.9473L26.0374 98.7835C26.0698 98.6743 26.1335 98.6338 26.2285 98.6621L26.18 98.8259ZM26.092 98.201C26.1496 98.0099 26.2042 97.8188 26.2619 97.6246C26.3893 97.837 26.2922 98.0493 26.092 98.201ZM27.6058 93.1774L27.5633 93.3443C27.5239 93.3352 27.4874 93.3109 27.4541 93.2805C27.4783 93.1865 27.5026 93.0894 27.5269 92.9954C27.5906 93.0288 27.63 93.0803 27.6058 93.1774ZM28.0942 91.1813C28.0942 91.1813 28.2367 91.2147 28.1973 91.3815C28.1579 91.5484 27.9759 91.6818 27.9759 91.6818C27.9121 91.6667 27.8879 91.6272 27.8757 91.5848C27.903 91.4695 27.9304 91.3542 27.9577 91.2389C27.991 91.1904 28.0335 91.1661 28.0972 91.1813H28.0942ZM28.6554 88.6756C28.622 88.8333 28.5886 88.985 28.4673 88.982C28.5007 88.8212 28.5371 88.6604 28.5735 88.4966C28.6372 88.5269 28.6766 88.5785 28.6584 88.6756H28.6554ZM30.3967 84.1221C30.4361 84.1221 30.4786 84.1282 30.518 84.1312C30.4543 84.1676 30.4088 84.1737 30.3967 84.1221ZM31.4099 84.3072L31.4159 84.1889C31.4159 84.1889 31.4463 84.1889 31.4614 84.1889L31.4099 84.3042V84.3072ZM35.1715 84.468C35.1715 84.468 35.1715 84.4164 35.1746 84.3466C35.2595 84.3466 35.3475 84.3527 35.4324 84.3557C35.3657 84.4225 35.2686 84.471 35.1715 84.468Z" fill="#FFCB42"/>
<path d="M37.8203 76.6953C37.8203 76.6953 37.8301 76.6986 37.8367 76.7018C37.8269 76.6986 37.8203 76.6953 37.8203 76.6953Z" fill="#FFCB42"/>
<path d="M37.8711 76.7168C37.8907 76.7233 37.8972 76.7266 37.8711 76.7168V76.7168Z" fill="#FFCB42"/>
<path d="M62.9621 66.2135C62.9075 66.2529 62.8498 66.2924 62.7861 66.3318C62.8407 66.3773 62.8984 66.4168 62.959 66.4592C63.1471 66.4653 63.132 66.3257 63.1229 66.2074C63.1229 66.2044 63.1229 66.2196 62.9621 66.2135Z" fill="#FFCB42"/>
<path d="M59.6738 39.8997C59.7376 39.9027 59.8013 39.9149 59.8619 39.924C59.8923 39.8026 59.6981 39.6509 59.6951 39.654C59.5859 39.6449 59.5282 39.6752 59.5009 39.7086C59.4736 39.7389 59.4767 39.7693 59.4767 39.7693C59.4767 39.7693 59.4767 39.7996 59.504 39.8299C59.5313 39.8603 59.5798 39.8906 59.6769 39.8967L59.6738 39.8997Z" fill="#FFCB42"/>
<path d="M72.1386 52.502C72.0395 52.5808 72.0385 52.6223 72.1355 52.6263C72.4207 52.7568 72.5693 52.6385 72.4268 52.5111C72.4268 52.5111 72.2842 52.508 72.1386 52.502Z" fill="#FFCB42"/>
<path d="M48.9681 48.5696L48.8286 48.5332C48.7952 48.6515 48.9044 48.8093 48.9044 48.8093C49.044 48.8457 49.0743 48.7274 49.0743 48.7274C49.0743 48.7274 49.1047 48.609 48.9681 48.5726V48.5696Z" fill="#FFCB42"/>
<path d="M74.8115 45.4023C74.8115 45.4023 74.833 45.4116 74.8422 45.4146C74.8361 45.4146 74.8238 45.4085 74.8115 45.4023Z" fill="#FFCB42"/>
<path d="M83.9969 50.0591C83.8088 49.4797 83.6814 49.3583 83.6996 49.1156C83.648 49.146 83.5661 49.0823 83.4721 48.9761C83.4296 48.9185 83.3629 48.8699 83.2992 48.8062C83.2355 48.7455 83.1687 48.6788 83.0929 48.6303C82.8714 48.4573 82.6864 48.427 82.5923 48.43C82.4953 48.4361 82.4771 48.4938 82.5256 48.5848C82.4983 48.6545 82.5195 48.7455 82.5529 48.8426C82.5013 48.8153 82.4498 48.788 82.3921 48.7637C82.292 48.7243 82.1919 48.6879 82.0888 48.6485C82.1525 48.6545 82.2192 48.6485 82.2981 48.6242C82.6105 48.6121 82.5195 48.4452 81.9401 47.9629C81.4032 47.7596 81.1362 47.6595 81.3607 47.8749C81.4517 48.0387 81.4062 48.154 81.3607 48.2693C81.3486 48.2996 81.3486 48.333 81.3516 48.3663C81.2394 48.3239 81.1271 48.2814 81.0179 48.2389C81.024 48.1813 81.0179 48.1055 81.0027 48.0053C81.0027 47.611 80.5993 47.4593 80.3778 47.6383C80.1564 47.8173 79.8894 47.7172 80.1109 47.5382C80.1695 47.3845 80.1098 47.2743 79.9319 47.2075C79.5739 47.072 79.3808 47.0427 79.3525 47.1195C79.3241 47.1964 79.399 47.2682 79.577 47.3349C79.8894 47.3198 79.8014 47.5503 79.489 47.5655C79.4222 47.5412 79.3767 47.5564 79.3434 47.5958C79.1826 47.5351 79.0218 47.4714 78.861 47.4108C78.7791 47.3016 78.6851 47.2621 78.6851 47.2621C78.676 47.2864 78.6669 47.3107 78.6608 47.3349C78.5243 47.2833 78.3848 47.2318 78.2482 47.1772C78.2543 47.1286 78.2482 47.0498 78.1936 46.9466C78.1026 46.7798 77.9692 46.7312 77.8812 46.9618C77.8721 46.9891 77.863 47.0103 77.8539 47.0316C77.8326 47.0225 77.8144 47.0164 77.7932 47.0073C77.7932 46.9557 77.7932 46.889 77.7932 46.7949C77.8812 46.5644 77.7477 46.5159 77.6142 46.4643C77.4059 46.4744 77.3766 46.5512 77.5262 46.6948C77.5808 46.798 77.5869 46.8769 77.5808 46.9254C77.4929 46.892 77.4049 46.8587 77.3169 46.8253C77.326 46.7191 77.2593 46.5947 77.2593 46.5947C77.144 46.5523 77.0955 46.6311 77.056 46.7282C76.962 46.6918 76.868 46.6584 76.7739 46.622C76.7345 46.5887 76.7011 46.5523 76.6799 46.5098C76.4554 46.2944 76.3219 46.2428 76.0094 46.258C75.876 46.2064 75.7425 46.1579 75.7425 46.1579C75.609 46.1063 75.785 46.0426 75.785 46.0426C76.0974 46.0274 76.1399 45.9122 75.7819 45.6482C75.604 45.5815 75.4998 45.5866 75.4695 45.6634C75.5605 45.8303 75.3815 45.894 75.2935 45.7271C75.16 45.6756 75.0266 45.627 74.8476 45.6907C74.7141 45.6391 74.5806 45.5906 74.5806 45.5906C74.6231 45.4753 74.6686 45.3601 74.8021 45.4116C74.8021 45.4116 74.6686 45.3601 74.5351 45.3115C74.2227 45.3267 74.0892 45.2751 73.9982 45.1083C73.8202 45.0415 73.7161 45.0466 73.6857 45.1234C73.6008 45.354 73.3308 45.2539 73.2853 44.9718C73.3278 44.8565 72.5239 44.5531 72.2144 44.5683C72.081 44.5167 72.0385 44.632 71.996 44.7473C71.9869 44.7746 71.9717 44.7988 71.9566 44.817C71.817 44.7655 71.6745 44.7139 71.5349 44.6593C71.5106 44.6259 71.4864 44.5865 71.4621 44.544C71.3711 44.3772 71.4136 44.2619 71.5046 44.4287C71.6381 44.4803 71.7715 44.5289 71.814 44.4136C71.8989 44.183 71.095 43.8797 70.9191 43.9434C70.8766 44.0587 70.6097 43.9585 70.3397 43.8554C69.9817 43.7199 69.7744 43.729 69.7178 43.8827C69.7057 43.913 69.6996 43.9434 69.6905 43.9737C69.6359 43.9525 69.5813 43.9343 69.5297 43.913C69.554 43.8888 69.5752 43.8645 69.5873 43.8342C69.6298 43.7189 69.6359 43.6218 69.6268 43.5702C69.6147 43.5156 69.5813 43.5035 69.4994 43.5399C69.3325 43.6097 69.2082 43.5611 69.3234 43.4732C69.3295 43.4428 69.3113 43.4125 69.281 43.3852C69.3477 43.1728 69.3477 42.912 69.2628 42.83C69.2628 42.83 69.2719 42.7117 69.284 42.5934C69.4296 42.3174 69.3052 42.3083 69.1626 42.5843C69.0959 42.6511 69.0625 42.6844 69.0443 42.6966L69.0261 42.7117C69.0383 42.5752 69.1717 42.4387 69.3052 42.3052C69.4832 42.1273 69.5358 41.9867 69.463 41.8836C69.2294 41.7228 69.2385 41.5802 69.4842 41.5984C69.6056 41.6075 69.6177 41.4649 69.6359 41.1767C69.645 41.0342 69.554 40.5943 69.5691 40.3091C69.5843 40.0209 69.6116 39.5902 69.6116 39.5902C69.4903 39.5841 69.5024 39.2959 69.5085 39.1533C69.645 38.8712 69.5236 38.8652 69.3993 38.8621C69.3052 38.8591 69.2112 38.853 69.1717 38.9167C69.1748 38.8318 69.1778 38.7468 69.1839 38.6619C69.2446 38.671 69.3143 38.6862 69.4084 38.7195L69.7785 38.7347L69.6905 37.8671C69.5964 37.0025 69.5995 36.8599 69.7299 36.5748C69.8543 36.4352 69.8573 36.2896 69.7421 35.9984C69.7421 35.8558 69.7481 35.7102 69.7481 35.7102C69.8664 35.5737 69.4326 35.3037 69.281 35.2764C69.281 35.1793 69.281 35.0853 69.281 34.9882C69.3113 34.9882 69.3447 34.9882 69.3841 34.9882C69.5479 34.9882 69.5894 34.9407 69.5085 34.8456C69.5085 34.7941 69.5085 34.7395 69.5085 34.7031C69.7542 34.7031 69.8786 34.5605 69.7542 34.4179C69.5085 34.2753 69.6298 34.1297 69.7542 34.1297C69.8371 34.1297 69.7957 34.0822 69.6298 33.9871C69.5054 33.8446 69.5085 33.702 69.6298 33.5564C69.7087 33.3642 69.6662 33.2692 69.5024 33.2712C69.4084 33.2712 69.3174 33.1923 69.2749 33.0892C69.2749 33.0164 69.2749 32.9436 69.2719 32.8708C69.2961 32.8435 69.3568 32.8404 69.4963 32.8404C69.7451 32.98 69.8664 32.98 69.7421 32.6918C69.6146 32.4066 69.6116 32.2641 69.733 32.261C69.733 32.1185 69.8482 31.8272 69.8422 31.6816C69.83 31.2508 69.7026 31.1113 69.5782 31.1143C69.3265 30.9778 69.2051 30.9839 69.3356 31.266C69.4144 31.4359 69.3538 31.4511 69.2385 31.3479C69.2324 31.178 69.2263 31.0082 69.2203 30.8413C69.6935 30.8201 69.8118 30.6745 69.6753 30.3954C69.5863 30.2073 69.5823 30.1112 69.6632 30.1072C69.9089 30.0981 69.8907 29.6643 69.6389 29.5338C69.5085 29.3973 69.5024 29.2517 69.4933 29.1091C69.4893 29.0141 69.4458 28.9686 69.3629 28.9726C69.1232 29.1273 69.105 28.6996 69.4539 28.3932C69.5782 28.3871 69.5691 28.2415 69.5691 28.2415C69.4387 28.105 69.4296 27.9624 69.4205 27.8199C69.4296 27.744 69.4448 27.6651 69.4387 27.5377C69.4266 27.4103 69.4357 27.2647 69.3841 27.11C69.3204 26.7975 69.1141 26.4547 68.8441 26.2272C68.5741 25.9936 68.2556 25.8723 68.022 25.848C67.9644 25.8389 67.9098 25.8329 67.8643 25.8298C67.8157 25.8298 67.7763 25.8359 67.7429 25.8389C67.6762 25.848 67.6398 25.8602 67.6398 25.8753C67.8097 26.0088 67.8036 25.9967 67.9674 26.0331C67.9674 26.0331 68.1312 26.0664 68.0918 26.1878C68.0918 26.1878 68.0463 26.203 67.9856 26.2242C67.9583 26.2333 67.928 26.2394 67.8946 26.2454C67.7733 26.2242 67.6459 26.2181 67.5215 26.2272C67.4972 26.2121 67.4942 26.1878 67.4881 26.1302C67.482 26.0118 67.294 25.8935 67.121 25.9512C67.121 25.9512 67.1574 26.0695 67.1908 26.1878C67.3637 26.2697 67.2302 26.297 67.0452 26.2363C66.8602 26.1878 66.7813 26.0877 66.9057 25.8935C66.8602 25.7783 66.8147 25.666 66.8147 25.666C66.6205 25.757 66.6812 25.8662 66.7358 25.9754C66.7358 25.9754 66.7054 26.0209 66.6569 26.0695C66.6084 26.1211 66.5356 26.1726 66.4203 26.1787C66.3444 26.2333 66.2504 26.3395 66.1776 26.4305C66.1139 26.5276 66.0927 26.6216 66.1412 26.658C66.2413 26.7308 66.1351 26.8643 66.1867 27.0615C66.1169 27.198 66.0957 27.2647 66.0532 27.2859C66.0108 27.3072 65.9531 27.286 65.8409 27.2404L65.7256 27.1949C65.8409 27.2374 65.8833 27.113 65.9652 26.9492C66.0411 26.7945 66.0411 26.7975 65.9349 26.7338C65.8621 26.7429 65.7893 26.7824 65.7256 26.8461C65.6649 26.9037 65.5982 27.0038 65.58 27.0615C65.5284 27.1949 65.5375 27.3527 65.6255 27.4619L65.5739 27.5954C65.4586 27.5499 65.3585 27.8199 65.3221 28.2658C65.2342 28.8452 65.2493 29.1577 65.401 28.7572C65.401 28.7572 65.495 28.7936 65.5982 28.8331C65.5921 28.8452 65.5891 28.8573 65.583 28.8695C65.5587 28.8816 65.5223 28.9029 65.4647 28.9332C64.9672 29.2032 64.9187 29.3367 65.313 29.3336C65.3403 29.3427 65.3676 29.3549 65.3919 29.367C65.3555 29.4641 65.3191 29.5581 65.2797 29.6552C65.1765 29.6886 65.0643 29.7007 64.9308 29.6491C64.8671 29.4701 64.7002 29.5611 64.7639 29.7401C64.7124 29.8736 64.6638 30.0071 64.6638 30.0071C64.6123 30.1406 64.7275 30.1861 64.9581 30.274C64.9945 30.2528 65.0279 30.2407 65.0582 30.2346C65.0248 30.3195 64.9915 30.4045 64.9611 30.4894C64.8064 30.5926 64.6305 30.7594 64.5273 30.72C64.1967 30.899 64.0966 31.1689 64.224 31.5239C64.2664 31.6432 64.2492 31.6877 64.1724 31.6573C64.0571 31.6149 63.957 31.8818 63.8539 32.1488C63.7528 32.4157 63.779 32.5785 63.9327 32.6372C64.1188 32.6069 64.1016 32.6514 63.8812 32.7707C63.5505 32.9527 63.4474 33.2196 63.6294 33.4411C63.5808 33.4229 63.6142 33.435 63.5141 33.3986C63.2836 33.3107 63.1683 33.2682 63.232 33.4441C63.2957 33.6231 63.2472 33.7566 63.0955 34.157C62.8801 34.3815 62.7769 34.6485 62.7769 34.6485C62.8922 34.6909 62.8407 34.8244 62.7921 34.9609C62.7405 35.0944 62.692 35.2279 62.7557 35.4069C62.871 35.4493 62.8194 35.5828 62.7041 35.5403C62.5889 35.4979 62.5373 35.6313 62.4888 35.7648L62.3735 35.7224C62.2582 35.6799 62.0914 35.7709 62.1581 35.9468C62.2218 36.1228 62.237 36.4352 61.97 36.7932C61.6667 37.5971 61.6151 37.7306 61.8456 37.8155C61.9609 37.858 62.0246 38.0339 62.0246 38.0339C61.9902 38.1229 61.9346 38.1533 61.8578 38.125C61.7425 38.0825 61.6272 38.04 61.5756 38.1735L61.5241 38.307C61.6394 38.3494 61.5392 38.6164 61.3724 38.7074C61.0539 39.2019 61.069 39.5113 61.2844 39.2868C61.3957 39.2261 61.4725 39.2545 61.515 39.3718C61.4149 39.6387 61.4149 39.6417 61.2996 39.5962C61.2207 39.5689 61.1115 39.6266 61.0235 39.6751C60.9811 39.6994 60.9386 39.7297 60.9083 39.757C60.8931 39.7722 60.8779 39.7874 60.8658 39.8025C60.8628 39.8177 60.8446 39.7995 60.8324 39.7934C60.8203 39.7874 60.8081 39.7813 60.796 39.7752C60.705 39.7388 60.6474 39.7661 60.5837 39.8511C60.4927 39.9178 60.4107 39.9633 60.3258 39.9967C60.2864 40.0118 60.2378 40.03 60.2075 40.0391L60.1317 40.0634C60.1317 40.0634 60.1226 40.0664 60.1195 40.0695C60.0467 40.1059 60.0467 40.2272 60.0528 40.3455L60.159 40.3122L60.1772 40.3061C60.2894 40.2697 60.3076 40.2727 60.3319 40.3637C60.3015 40.3728 60.2712 40.3789 60.2409 40.388C60.1711 40.4092 60.1013 40.4305 60.0316 40.4547C60.0316 40.4547 60.0316 40.4547 60.0285 40.4547C59.9072 40.4123 59.7949 40.391 59.6857 40.3789C59.804 40.3395 59.8738 40.3 59.8647 40.2424C59.8647 40.1817 59.7707 40.0816 59.4916 40.0209C59.3065 40.027 59.2155 40.0543 59.1761 40.0786C59.1336 40.1029 59.1427 40.1362 59.1609 40.1939L59.1943 40.3122C59.258 40.297 59.3005 40.3304 59.3308 40.3819C59.2428 40.3971 59.1609 40.4244 59.082 40.4608C59.0487 40.4244 58.9819 40.4244 58.9152 40.4456C58.8424 40.473 58.7787 40.5185 58.7787 40.5185C58.7392 40.7065 58.6634 40.6186 58.5754 40.5306C58.5572 40.4123 58.533 40.3546 58.4723 40.3759C58.442 40.3819 58.3964 40.4214 58.3631 40.4578C58.3509 40.476 58.3267 40.5154 58.3085 40.567C58.2781 40.6034 58.2266 40.6307 58.1659 40.6762C58.1416 40.749 58.0294 40.8127 57.9535 40.8521C57.8716 40.8916 57.8049 40.9128 57.8049 40.9128C57.7685 40.7945 57.359 40.9159 57.0859 40.9978C56.8129 41.0797 56.4003 41.1949 56.367 41.0766C56.367 41.0766 56.094 41.1555 55.8179 41.2313C55.4053 41.3466 55.2688 41.383 55.2688 41.383C55.3416 41.11 54.6136 41.6894 54.5074 41.8441C54.5377 41.9533 54.5408 41.9624 54.6742 42.0261C54.6105 42.0443 54.5438 42.0595 54.4771 42.0777C54.4316 41.923 54.2526 41.7501 54.0281 41.7167C53.8582 41.6348 53.5821 41.7046 53.752 41.7895C53.7824 41.9078 53.3698 42.0201 52.5386 42.2264C52.399 42.2628 52.3717 42.1414 52.3111 41.9018C52.3434 41.6389 52.2878 41.6105 52.1442 41.8168C51.8985 42.0049 51.9258 42.1232 52.2625 42.2931C52.399 42.3629 52.4628 42.5297 52.4081 42.6086C52.3869 42.6147 52.3657 42.6177 52.3444 42.6238C52.3414 42.6056 52.3323 42.5813 52.3202 42.5297C52.3202 42.5297 52.1503 42.4448 52.0138 42.4782C51.8773 42.5115 51.8742 42.5115 51.9046 42.6329C51.9137 42.6662 51.9106 42.6996 51.9046 42.733C51.8227 42.7542 51.7377 42.7754 51.6558 42.7936C51.6467 42.7633 51.6376 42.7299 51.6285 42.6996C51.5982 42.5813 51.5709 42.46 51.4313 42.4933C51.4313 42.4933 51.2918 42.5267 51.1249 42.4387C50.8185 42.3841 50.682 42.4175 50.4303 42.6025C50.1815 42.7845 49.9024 42.8513 49.7629 42.8816C49.7629 42.8816 49.4565 42.824 49.0409 42.915C48.7618 42.9757 48.3189 42.9453 48.1793 42.9757L47.9002 43.0333C47.9245 43.1546 47.785 43.1819 47.4816 43.1213C47.3421 43.1516 47.2025 43.1789 47.2025 43.1789C46.972 43.4762 46.5746 43.6795 46.4108 43.5884C46.4108 43.5884 46.1074 43.5217 45.9678 43.549C45.8283 43.5763 45.8495 43.6977 46.1772 43.8857C46.2591 43.9039 46.3288 43.9252 46.3865 43.9464C46.0922 44.004 45.7949 44.0586 45.4976 44.1133C45.534 43.7462 44.9546 43.6188 44.7028 43.7856C44.5876 43.9312 44.5815 43.9343 44.4086 43.9798C44.3995 43.9494 44.3509 43.9403 44.266 43.9464C44.1841 43.9616 44.0688 44.0071 43.9353 44.0678C43.6745 44.2134 43.3832 44.5349 43.2649 44.9081C43.1072 45.3692 43.1496 45.7908 43.2224 46.1215C43.2983 46.4552 43.4136 46.713 43.4833 46.9042C43.7078 47.2166 44.0658 47.4987 44.4844 47.5018C44.812 47.4805 44.9364 47.5169 45.076 47.5624C45.0396 47.6807 45.2125 47.6049 45.1124 47.4441C45.1609 47.2884 45.2064 47.3026 45.2489 47.4866C45.349 47.6474 45.4855 47.6899 45.8981 47.8142C46.1741 47.8961 46.3106 47.9386 46.3106 47.9386L46.2409 48.1752L46.3774 48.2147C46.4138 48.0964 46.6898 48.1783 46.9993 48.1419C47.3673 48.247 47.4937 48.3259 47.3785 48.3785C47.3451 48.4968 47.3117 48.6151 47.3117 48.6151C47.4846 48.5362 47.6211 48.5757 47.6545 48.4574C47.6879 48.339 47.9639 48.4179 48.24 48.4938C48.5161 48.5696 48.6556 48.609 48.5494 48.4513C48.5828 48.333 48.7193 48.3724 48.9954 48.4452C49.1794 48.4938 49.2613 48.5585 49.2411 48.6394C49.2108 48.7577 49.3169 48.9154 49.4565 48.9518C49.8751 49.061 50.321 49.0489 50.4909 48.964C50.7154 48.8507 50.7619 48.8618 50.6305 48.9973C50.6001 49.1156 50.5698 49.237 50.5698 49.237C51.4071 49.4463 51.4071 49.4402 51.6042 49.237C51.6427 49.0772 51.7357 49.0995 51.8833 49.3037C52.2443 49.6404 52.2201 49.7618 52.4142 49.5525L52.4415 49.4311C52.5265 49.7042 53.0877 49.8316 53.4214 49.6526L53.7005 49.7133C53.84 49.7436 53.6732 49.8346 53.6732 49.8346L53.5336 49.8043C53.5063 49.9256 53.7884 49.9863 53.928 50.0166C54.2344 49.959 54.5165 50.0166 55.2173 50.1622C55.4994 50.2168 55.6147 50.3655 55.4266 50.5809C55.4023 50.7022 55.378 50.8235 55.5206 50.8509C55.6632 50.8782 55.6875 50.7568 55.7087 50.6385C55.733 50.5172 55.8968 50.4261 56.0151 50.5748C56.1577 50.6021 56.2972 50.6294 56.3215 50.5081L56.6036 50.5627C56.6461 50.6142 56.8372 50.6355 57.0768 50.6294C57.1072 50.6294 57.1375 50.6294 57.1678 50.6294C57.2012 50.6294 57.2103 50.6233 57.2316 50.6203C57.274 50.6112 57.3195 50.6051 57.362 50.596C57.4136 50.5869 57.4621 50.5778 57.5106 50.5687C57.5379 50.5657 57.5652 50.5596 57.5895 50.5566C57.6198 50.5475 57.6168 50.5748 57.632 50.5839C57.7109 50.6719 57.8201 50.7447 57.8807 50.7689C57.8231 50.8053 57.8352 50.7993 57.7776 50.8357C57.6745 50.8994 57.6472 50.9752 57.7048 51.0541C57.7594 51.1299 57.9232 51.2118 58.081 51.1754C58.1174 51.1785 58.1538 51.1815 58.1841 51.1845C58.3267 51.2513 58.3813 51.3332 58.3813 51.3514C58.3813 51.3757 58.3115 51.3575 58.1902 51.3544C58.1022 51.2725 58.0446 51.2968 58.0264 51.3423C58.0172 51.3666 58.0203 51.3999 58.0354 51.4363C58.0446 51.4576 58.0537 51.4758 58.0719 51.5031C58.0931 51.5425 58.1174 51.588 58.1477 51.6335C58.2296 51.9065 58.3509 52.3161 58.2721 52.489C58.1932 52.6589 58.3509 52.762 58.5117 52.8652C58.6958 52.9117 58.7089 52.9572 58.5512 53.0017C58.3145 53.0714 58.354 53.2049 58.5876 54.03C58.7028 54.4426 58.7392 54.5791 58.9759 54.5124C59.0396 54.4942 59.0305 54.4972 59.0942 54.479C59.0153 54.6489 59.0517 54.7854 59.0517 54.7854C59.076 54.8764 59.0487 54.933 58.9698 54.9553C58.8515 54.9887 58.7696 55.1555 58.7696 55.1555C58.806 55.292 58.9243 55.2617 59.0456 55.2283C59.0456 55.2283 59.082 55.3648 59.1184 55.5044C59.0729 55.8108 59.1063 55.9503 59.2277 55.9169C59.3308 55.9877 59.4218 56.013 59.5007 55.9928L59.4188 56.1627C59.2185 56.3629 59.2519 56.4994 59.3702 56.469C59.5249 56.5752 59.5583 56.7148 59.5583 56.7148C59.5947 56.8543 59.6281 56.9908 59.7828 57.1C59.8192 57.2396 59.8526 57.3761 59.7312 57.4064C59.528 57.6036 59.6979 58.2953 59.9678 58.3772C59.8799 58.544 59.9132 58.6836 59.9132 58.6836C60.0144 58.7564 60.1054 58.7837 60.1863 58.7655C60.1559 58.6381 60.2287 58.4894 60.3349 58.4439C60.344 58.4803 60.3501 58.5167 60.3592 58.5501C60.3531 58.6017 60.341 58.6654 60.3046 58.7351C60.0103 59.0961 60.074 59.3752 60.3137 59.3206C60.435 59.2933 60.4654 59.4329 60.4654 59.4329C60.4987 59.5724 60.3774 59.5997 60.2591 59.627C60.1074 59.5148 60.1377 59.6543 60.1711 59.7939C60.1135 60.1003 60.2318 60.073 60.3531 60.0457C60.4441 60.0244 60.5897 60.079 60.7293 60.1609C60.7657 60.3187 60.799 60.4764 60.8324 60.6342C60.7899 60.5826 60.7414 60.5098 60.6838 60.4097C60.4714 60.0183 60.3834 60.1852 60.5048 60.7403C60.5655 61.0194 60.5958 61.159 60.7141 61.1317C60.7141 61.1317 60.8355 61.1044 60.8658 61.2469C60.8961 61.3865 60.9871 61.2227 60.8658 61.2469C60.5958 61.159 60.5958 61.7414 60.7414 61.8567C60.7717 61.9962 60.8901 61.972 61.0114 61.9477C61.0599 61.9386 61.0933 61.9538 61.1176 61.978C61.1297 62.0357 61.1418 62.0964 61.154 62.154C61.1236 62.2147 61.0357 62.2329 60.9507 62.2511C60.8294 62.2753 60.7111 62.2996 60.7111 62.2996L60.7384 62.4392C60.8597 62.4149 60.887 62.5544 60.9143 62.694C60.8506 62.9973 61.0144 63.8376 61.1873 64.0955C61.2055 64.1885 61.1823 64.2896 61.1176 64.3988C60.9962 64.4201 61.0235 64.5627 61.1691 64.6779C61.3471 64.7427 61.3552 64.7892 61.1934 64.8175C61.1327 64.8296 61.1085 64.8691 61.1267 64.957C61.1358 64.9995 61.1509 65.0511 61.1934 65.1542C61.242 65.2483 61.2753 65.3605 61.3754 65.4788C61.4391 65.6639 61.697 65.9884 61.8669 66.1007C61.7971 66.2038 62.0246 66.219 61.9427 66.0036C62.0974 65.8186 62.1975 65.8883 62.2582 66.1917C62.3189 66.2766 62.4463 66.3616 62.5373 66.3767C62.6313 66.3949 62.6768 66.3707 62.601 66.2948C62.6253 66.1796 62.7891 66.1007 62.9256 65.9854C63.3078 65.9945 63.7022 65.8701 64.0116 65.6274C64.0723 65.7215 64.1148 65.8307 64.0238 65.8944C64.0238 65.8944 63.8842 65.9763 63.9418 66.0825C63.957 66.1098 63.9965 66.1128 64.0571 66.0946C64.1178 66.0764 64.1967 66.034 64.2786 65.952C64.4485 65.8095 64.6396 65.5061 64.6517 65.1481C64.6942 64.9783 64.6911 64.8721 64.7093 64.778C64.7215 64.687 64.7336 64.6264 64.7427 64.593C64.7639 64.5232 64.7822 64.5687 64.7973 64.7234C64.8701 64.8964 65.0309 64.7962 65.0764 64.6597C65.0764 64.6597 65.2038 64.2472 65.2888 63.9741C65.3737 63.6981 65.4131 63.5616 65.2979 63.5252C65.2979 63.5252 65.3403 63.3887 65.3798 63.2491C65.5405 63.149 65.941 61.7657 65.8196 61.7323L65.8591 61.5928C65.8854 61.4997 65.8591 61.4431 65.7802 61.4229C65.5436 61.3562 65.6194 61.0801 65.8955 61.0073C66.0138 61.0407 66.0896 60.7616 66.126 60.6251C66.2747 60.0699 66.3111 59.9304 66.1169 60.1761C66.0077 60.1458 65.9956 60.1427 65.9015 60.1185C65.9197 60.0487 65.9379 59.9789 65.9592 59.9061C65.9865 59.8727 66.0199 59.8515 66.0714 59.8667C66.2261 59.7605 66.3444 59.7908 66.308 59.9273L66.4264 59.9577C66.5841 59.8515 66.7843 58.5622 66.6084 58.2255L66.6417 58.086C66.76 58.1163 66.7934 57.9737 66.8268 57.8342L66.8602 57.6946C66.9785 57.7219 67.0149 57.5824 67.0452 57.4428C66.9603 57.279 66.8753 57.1182 66.6508 57.0576C66.663 57.0121 66.6721 56.9635 66.6842 56.918L66.7813 56.9393L66.9026 56.9666C67.0037 56.8917 67.0654 56.8078 67.0877 56.7148C67.029 56.6035 67.0503 56.5105 67.1514 56.4357C67.1514 56.4357 67.3364 56.1839 67.4547 55.6196C67.6337 54.1878 67.8279 53.7904 67.9795 53.6721L68.0068 53.5295C67.8885 53.5052 67.9674 53.0836 68.0463 52.6589C68.0797 52.4769 68.0918 52.4162 68.0979 52.2888C68.1039 52.1735 68.0948 52.0461 68.0524 51.9369C68.0524 51.9247 68.0524 51.9126 68.0584 51.9035H68.0918C68.113 51.9065 68.1343 51.9096 68.1525 51.9096C68.1889 51.9096 68.2101 51.9126 68.2101 51.9126C68.3739 52.0461 68.4316 52.0522 68.5135 52.0582L68.6894 52.0704C68.6803 52.1917 68.8259 52.2008 69.1202 52.0977C69.2719 51.9824 69.557 52.0036 69.8452 52.0157C70.1334 52.0309 70.276 52.04 70.4246 51.9247C70.5278 51.765 70.5753 51.767 70.5672 51.9308C70.5611 52.0522 70.8493 52.0673 71.2801 52.0855C71.8413 52.1068 71.8534 52.1037 71.999 51.764C72.0749 51.764 72.1538 51.77 72.2326 51.77C72.1507 51.9884 72.1629 52.216 72.2842 52.1189H72.4268C72.5663 52.2493 72.8545 52.2584 73.1427 52.2645C73.4299 52.2706 73.5745 52.2321 73.5765 52.1492C73.4703 51.9611 73.4491 51.8459 73.5644 51.8034C73.619 51.8034 73.6736 51.8034 73.7252 51.8034L73.7191 52.1492C73.8586 52.401 74.5806 52.2827 74.5806 52.037C74.6777 51.9561 74.7738 51.9156 74.8688 51.9156V52.04C74.8688 52.1644 74.8688 52.2857 75.0114 52.2857C75.0114 52.2857 75.154 52.1614 75.157 52.04C75.2996 52.1644 75.4452 52.2857 75.5878 52.1644H75.876C75.876 52.2888 77.7447 52.2675 78.315 52.1219C78.7427 51.9854 78.7457 52.1068 78.7457 52.1068C78.8448 52.1856 78.9419 52.223 79.037 52.219C79.1765 52.0977 81.0391 52.0066 81.3334 52.1098L81.476 52.1007C81.3243 51.9854 81.4699 51.9793 81.7551 51.9611C81.7915 51.9884 81.8491 52.0097 81.9128 52.0218C81.9462 52.0279 81.9826 52.0309 82.019 52.0339C82.0615 52.0339 82.113 52.0279 82.1616 52.0218C82.3587 52.0066 82.5741 51.9035 82.7106 51.7822C82.9503 51.6669 83.1293 51.5334 83.2658 51.4121C83.3325 51.3484 83.3932 51.2968 83.4508 51.2543C83.5054 51.2088 83.5509 51.1694 83.6025 51.1451C83.6784 51.0784 83.7421 51.0147 83.7845 50.9419C83.83 50.869 83.8755 50.7993 83.9028 50.7174C83.9301 50.6355 83.9514 50.5414 83.9726 50.4352C83.9787 50.326 83.9938 50.2017 83.9817 50.053L83.9969 50.0591ZM69.4933 34.6606C69.4933 34.6242 69.4933 34.6303 69.4933 34.6606V34.6606ZM81.8582 48.5605C81.84 48.5544 81.8218 48.5453 81.8036 48.5393C81.8127 48.518 81.8612 48.512 81.8582 48.5605ZM80.1564 47.8142C80.3353 47.7505 80.4688 47.7991 80.6023 47.8506C80.7297 47.975 80.7661 48.063 80.7206 48.1206C80.4992 48.0357 80.2777 47.9507 80.0563 47.8658C80.0836 47.8476 80.1169 47.8294 80.1594 47.8142H80.1564ZM79.489 47.6474C79.4677 47.6383 79.4465 47.6322 79.4283 47.6231C79.4586 47.611 79.4768 47.617 79.489 47.6474ZM76.4068 46.4006C76.3977 46.4218 76.4038 46.4491 76.4129 46.4795C76.3371 46.4522 76.2612 46.4218 76.1884 46.3945C76.3158 46.3733 76.4068 46.4036 76.4068 46.4036V46.4006ZM75.603 46.0972L75.5544 46.1518C75.5362 46.1458 75.521 46.1397 75.5028 46.1336L75.603 46.0972ZM74.7991 45.7939C74.9113 45.8363 74.9295 45.8454 74.9841 45.9395C74.9143 45.9122 74.8446 45.8879 74.7748 45.8606C74.7808 45.8394 74.79 45.8151 74.7991 45.7939ZM69.8786 43.9373C69.9999 43.9828 70.1152 44.0162 70.1546 43.91C70.1546 43.91 70.2729 43.9585 70.2123 44.1588C70.1152 44.1224 70.0151 44.086 69.918 44.0496C69.8968 44.004 69.8877 43.9646 69.8786 43.9373ZM69.0716 41.9897C69.0383 41.9442 69.0049 41.9291 68.9746 41.9321C68.9867 41.7622 69.0019 41.5893 69.014 41.4194C69.0716 41.559 69.1293 41.741 69.196 41.9988C69.1293 41.9928 69.1414 41.9958 69.0747 41.9897H69.0716ZM69.284 40.7126L69.4053 40.7217L69.5176 40.8734L69.3841 41.0099C69.2628 41.0008 69.2719 40.8582 69.281 40.7156L69.284 40.7126ZM69.0959 40.1059C69.108 39.9057 69.1202 39.7085 69.1323 39.5083C69.2506 39.7297 69.2476 40.0027 69.0959 40.1059ZM69.287 38.2736C69.2233 38.404 69.193 38.4738 69.1748 38.4951C69.1808 38.3737 69.1869 38.2493 69.1899 38.128C69.287 38.131 69.2901 38.1432 69.287 38.2736ZM69.2294 36.9055C69.2294 36.8539 69.2294 36.7993 69.2324 36.7477C69.2719 36.8691 69.2628 36.9206 69.2294 36.9055ZM69.3659 33.6899C69.3659 33.6899 69.3234 33.7354 69.2658 33.7778C69.2658 33.705 69.2658 33.6352 69.2658 33.5624C69.3234 33.5776 69.3659 33.611 69.3659 33.6929V33.6899ZM69.2931 30.3954H69.1899C69.1899 30.3256 69.1839 30.2558 69.1808 30.183C69.2415 30.2346 69.2901 30.3135 69.2931 30.3954ZM69.0989 28.5206C69.0929 28.4417 69.0898 28.3598 69.0868 28.281L69.196 28.3932L69.0989 28.5206ZM69.1141 27.383C69.2355 27.3618 69.2355 27.3618 69.2597 27.5195C69.2597 27.5195 69.2355 27.562 69.193 27.6045C69.1535 27.6378 69.105 27.6682 69.0504 27.6803C69.0504 27.656 69.0504 27.6348 69.0474 27.6105C69.0443 27.562 69.0322 27.5165 69.0261 27.468C69.0504 27.4407 69.0777 27.4134 69.1141 27.383ZM66.4051 26.6064C66.4324 26.5943 66.4719 26.6246 66.5204 26.6974C66.481 26.7399 66.4476 26.7854 66.4142 26.8309C66.3687 26.7156 66.3657 26.6186 66.4051 26.6064ZM63.8903 33.2469C63.8872 33.2227 63.8963 33.2014 63.9145 33.1802C63.9054 33.2014 63.8963 33.2257 63.8903 33.2469ZM63.2229 34.8153L63.32 34.7607C63.2957 34.8244 63.2714 34.8912 63.2472 34.9549C63.2138 34.9215 63.1986 34.879 63.2229 34.8153ZM62.9772 35.6769C62.9468 35.7618 62.9135 35.8467 62.8831 35.9317C62.692 35.9347 62.7618 35.7436 62.9772 35.6769ZM62.5646 36.5536L62.6677 36.4959C62.6435 36.5627 62.6162 36.6294 62.5919 36.6961C62.5555 36.6628 62.5373 36.6203 62.5646 36.5505V36.5536ZM62.3128 37.224C62.3128 37.224 62.3553 37.1997 62.4129 37.1845C62.3917 37.2391 62.3704 37.2968 62.3522 37.3514C62.3158 37.315 62.2976 37.2725 62.3158 37.224H62.3128ZM61.6394 39.2686C61.6242 39.3111 61.609 39.3505 61.5938 39.393C61.5969 39.3232 61.5969 39.2686 61.6394 39.2686ZM61.0812 40.3668C61.0812 40.3668 61.0903 40.3759 61.0963 40.3789C61.0326 40.3577 60.9689 40.3395 60.8992 40.3304C60.8992 40.3304 60.8992 40.3304 60.9022 40.3304C60.9507 40.3122 61.0084 40.3243 61.0812 40.3698V40.3668ZM56.731 41.3497C56.731 41.3497 56.7886 41.377 56.8433 41.4194C56.7704 41.4407 56.6946 41.4619 56.6218 41.4831C56.5975 41.3921 56.6066 41.3861 56.731 41.3497ZM56.2851 41.3497C56.4125 41.3133 56.4489 41.4134 56.37 41.5559C56.3154 41.5711 56.2608 41.5863 56.2062 41.6014C56.1759 41.4922 56.1546 41.3861 56.282 41.3497H56.2851ZM53.0058 42.3598C53.0604 42.281 53.1847 42.3174 53.297 42.3871C53.1665 42.4205 53.0361 42.4508 52.9057 42.4842C52.9057 42.4266 52.9299 42.378 53.0088 42.3568L53.0058 42.3598ZM51.0612 42.8361L51.1947 42.9059C51.1158 42.9241 51.037 42.9423 50.9581 42.9605C50.9429 42.9453 50.9338 42.9211 50.9217 42.8695L51.0612 42.8361ZM50.1997 42.912L50.3665 42.9999L50.2786 43.1213C50.224 43.1334 50.1663 43.1486 50.1117 43.1607C50.0875 43.0485 50.0723 42.9423 50.2027 42.912H50.1997ZM44.2478 44.274C44.2569 44.2012 44.2842 44.1527 44.2842 44.1527C44.36 44.1163 44.3934 44.2134 44.4116 44.3165C44.4116 44.3226 44.4116 44.3317 44.4147 44.3377C44.357 44.359 44.3085 44.3863 44.2569 44.4105C44.2448 44.359 44.2417 44.3104 44.2478 44.271V44.274ZM43.9384 44.5137C43.9899 44.4712 44.0415 44.4834 44.087 44.5228C44.0021 44.5895 43.9262 44.6623 43.8656 44.7442C43.8534 44.6684 43.8747 44.5774 43.9384 44.5137ZM43.5652 45.178C43.5652 45.178 43.6168 45.1386 43.6866 45.1174C43.6654 45.1871 43.6502 45.2569 43.6411 45.3297C43.5865 45.3055 43.5531 45.266 43.5683 45.178H43.5652ZM43.8777 46.44C43.9475 46.5523 44.0294 46.6554 44.1234 46.7464C43.9535 46.7373 43.8504 46.6736 43.8019 46.619C43.7564 46.5614 43.7897 46.4977 43.8777 46.437V46.44ZM45.8344 47.5412C45.8495 47.4957 45.8556 47.4684 45.8708 47.4472C45.9587 47.4745 46.0467 47.5018 46.1317 47.5291C46.0862 47.617 45.9587 47.5806 45.8313 47.5412H45.8344ZM51.131 48.8972C51.1492 48.9003 51.1674 48.9063 51.1856 48.9124C51.2068 49.0004 51.1917 48.9852 51.131 48.8972ZM57.6229 50.3715C57.5865 50.4261 57.5197 50.4777 57.453 50.4959C57.3832 50.5141 57.3195 50.502 57.2194 50.4231C57.0829 50.3321 57.0313 50.2229 57.0738 50.1683C57.2528 50.2017 57.4348 50.235 57.6138 50.2684C57.6472 50.2927 57.6563 50.323 57.6229 50.3715ZM58.7332 52.3707C58.7453 52.4162 58.7605 52.4587 58.7726 52.5042C58.6027 52.668 58.5694 52.5557 58.7332 52.3707ZM58.988 54.0634C58.804 54.0149 58.7787 53.9229 58.9122 53.7874C58.9647 53.6741 58.9253 53.5366 58.7938 53.3748L58.9516 53.4779C58.9941 53.4901 59.0274 53.4961 59.0578 53.5052C59.1033 53.663 59.1488 53.8238 59.1912 53.9815C59.17 54.0088 59.1124 54.027 58.985 54.0604L58.988 54.0634ZM59.3702 54.9947C59.3369 54.8673 59.3035 54.7399 59.3915 54.6974C59.4157 54.7884 59.44 54.8825 59.4643 54.9735C59.4218 54.9978 59.4552 55.0372 59.4794 55.0281C59.4855 55.0554 59.4946 55.0797 59.5007 55.107C59.4127 55.1282 59.4036 55.1191 59.3702 54.9947ZM60.0224 57.1304C60.0316 57.1637 60.0407 57.1971 60.0467 57.2305C59.9587 57.273 59.9587 57.2305 60.0224 57.1304ZM65.0643 63.9044L64.9035 64.0045L64.946 63.868C64.9743 63.777 65.0279 63.7436 65.1067 63.7679L65.0643 63.9044ZM64.9915 63.3826C65.04 63.2218 65.0855 63.061 65.134 62.9003C65.2402 63.0762 65.1583 63.2552 64.9915 63.3826ZM66.2565 59.1811L66.2201 59.3206C66.1867 59.3115 66.1564 59.2903 66.1291 59.2691C66.1503 59.1902 66.1685 59.1083 66.1897 59.0294C66.2443 59.0567 66.2777 59.1022 66.2565 59.1811ZM66.666 57.5126C66.666 57.5126 66.7843 57.5399 66.7509 57.6795C66.7176 57.819 66.5659 57.9282 66.5659 57.9282C66.5143 57.9161 66.4901 57.8827 66.481 57.8463C66.5052 57.7492 66.5265 57.6552 66.5477 57.5581C66.575 57.5187 66.6114 57.4974 66.663 57.5096L66.666 57.5126ZM67.1362 55.4164C67.1089 55.5468 67.0786 55.6773 66.9785 55.6712C67.0088 55.5377 67.0391 55.4012 67.0664 55.2678C67.121 55.2951 67.1544 55.3375 67.1362 55.4164ZM68.5923 51.6062C68.6257 51.6062 68.6591 51.6092 68.6955 51.6123C68.6409 51.6426 68.6045 51.6487 68.5923 51.6062ZM69.4387 51.7609L69.4448 51.6608C69.4448 51.6608 69.469 51.6608 69.4842 51.6608L69.4417 51.7579L69.4387 51.7609ZM72.5876 51.8944C72.5876 51.8944 72.5876 51.8519 72.5876 51.7943C72.6604 51.7943 72.7301 51.8004 72.803 51.8004C72.7453 51.855 72.6664 51.8974 72.5845 51.8944H72.5876Z" fill="#FFCB42"/>
<path d="M74.7959 45.3965C74.7959 45.3965 74.8057 45.3998 74.8122 45.403C74.8024 45.403 74.7959 45.3965 74.7959 45.3965Z" fill="#FFCB42"/>
<path d="M74.8418 45.4141C74.8576 45.4204 74.8639 45.4235 74.8418 45.4141V45.4141Z" fill="#FFCB42"/>
<path d="M22.9582 40.5631C22.9036 40.6026 22.8459 40.642 22.7822 40.6814C22.8368 40.7269 22.8945 40.7664 22.9551 40.8088C23.1432 40.8149 23.1281 40.6754 23.119 40.557C23.119 40.554 23.119 40.5692 22.9582 40.5631Z" fill="#FFCB42"/>
<path d="M19.667 14.2474C19.7307 14.2504 19.7944 14.2625 19.8551 14.2716C19.8854 14.1503 19.6913 13.9986 19.6882 14.0016C19.579 13.9925 19.5214 14.0229 19.4941 14.0562C19.4668 14.0866 19.4698 14.1199 19.4698 14.1199C19.4698 14.1199 19.4698 14.1503 19.4971 14.1806C19.5244 14.211 19.573 14.2413 19.67 14.2474H19.667Z" fill="#FFCB42"/>
<path d="M32.1317 26.8496C32.0326 26.9285 32.0316 26.9699 32.1287 26.974C32.4139 27.1044 32.5625 26.9861 32.4199 26.8587C32.4199 26.8587 32.2773 26.8557 32.1317 26.8496Z" fill="#FFCB42"/>
<path d="M8.96132 22.9173L8.82177 22.8809C8.7884 22.9992 8.89761 23.1569 8.89761 23.1569C9.03715 23.1933 9.06749 23.075 9.06749 23.075C9.06749 23.075 9.09783 22.9567 8.96132 22.9203V22.9173Z" fill="#FFCB42"/>
<path d="M34.8047 19.7539C34.8047 19.7539 34.8262 19.7631 34.8354 19.7662C34.8292 19.7662 34.817 19.76 34.8047 19.7539Z" fill="#FFCB42"/>
<path d="M43.99 24.4067C43.802 23.8273 43.6746 23.706 43.6928 23.4633C43.6412 23.4936 43.5593 23.4299 43.4652 23.3237C43.4228 23.2661 43.356 23.2176 43.2923 23.1539C43.2286 23.0932 43.1619 23.0265 43.086 22.9779C42.8646 22.805 42.6795 22.7747 42.5855 22.7777C42.4884 22.7838 42.4702 22.8414 42.5188 22.9324C42.4915 23.0022 42.5127 23.0932 42.5461 23.1903C42.4945 23.163 42.4429 23.1357 42.3853 23.1114C42.2852 23.072 42.1851 23.0356 42.0819 22.9961C42.1456 23.0022 42.2124 22.9961 42.2912 22.9719C42.6037 22.9597 42.5127 22.7929 41.9333 22.3105C41.3963 22.1073 41.1294 22.0072 41.3539 22.2226C41.4449 22.3864 41.3994 22.5016 41.3539 22.6169C41.3417 22.6473 41.3417 22.6806 41.3448 22.714C41.2325 22.6715 41.1203 22.6291 41.0111 22.5866C41.0171 22.5289 41.0111 22.4531 40.9959 22.353C40.9959 21.9586 40.5924 21.807 40.371 21.9859C40.1495 22.1649 39.8826 22.0648 40.104 21.8858C40.1627 21.7321 40.103 21.6219 39.925 21.5552C39.5671 21.4197 39.3739 21.3903 39.3456 21.4672C39.3173 21.544 39.3921 21.6158 39.5701 21.6826C39.8826 21.6674 39.7946 21.898 39.4821 21.9131C39.4154 21.8889 39.3699 21.904 39.3365 21.9435C39.1757 21.8828 39.015 21.8191 38.8542 21.7584C38.7723 21.6492 38.6782 21.6098 38.6782 21.6098C38.6691 21.634 38.66 21.6583 38.654 21.6826C38.5175 21.631 38.3779 21.5794 38.2414 21.5248C38.2475 21.4763 38.2414 21.3974 38.1868 21.2943C38.0958 21.1274 37.9623 21.0789 37.8743 21.3094C37.8652 21.3367 37.8561 21.358 37.847 21.3792C37.8258 21.3701 37.8076 21.364 37.7864 21.3549C37.7864 21.3034 37.7864 21.2366 37.7864 21.1426C37.8743 20.912 37.7409 20.8635 37.6074 20.8119C37.3991 20.8221 37.3698 20.8989 37.5194 21.0425C37.574 21.1456 37.5801 21.2245 37.574 21.273C37.486 21.2397 37.3981 21.2063 37.3101 21.1729C37.3192 21.0668 37.2525 20.9424 37.2525 20.9424C37.1372 20.8999 37.0886 20.9788 37.0492 21.0759C36.9552 21.0395 36.8611 21.0061 36.7671 20.9697C36.7276 20.9363 36.6943 20.8999 36.673 20.8574C36.4486 20.6421 36.3151 20.5905 36.0026 20.6057C35.8691 20.5541 35.7357 20.5055 35.7357 20.5055C35.6022 20.454 35.7781 20.3903 35.7781 20.3903C36.0906 20.3751 36.1331 20.2598 35.7751 19.9959C35.5971 19.9292 35.493 19.9342 35.4626 20.0111C35.5536 20.1779 35.3747 20.2416 35.2867 20.0748C35.1532 20.0232 35.0197 19.9747 34.8407 20.0384C34.7073 19.9868 34.5738 19.9383 34.5738 19.9383C34.6163 19.823 34.6618 19.7077 34.7952 19.7593C34.7952 19.7593 34.6618 19.7077 34.5283 19.6592C34.2158 19.6743 34.0824 19.6228 33.9913 19.4559C33.8134 19.3892 33.7092 19.3942 33.6789 19.4711C33.5939 19.7016 33.324 19.6015 33.2785 19.3194C33.3209 19.2041 32.517 18.9008 32.2076 18.9159C32.0741 18.8644 32.0316 18.9797 31.9892 19.0949C31.9801 19.1222 31.9649 19.1465 31.9497 19.1647C31.8102 19.1131 31.6676 19.0616 31.5281 19.007C31.5038 18.9736 31.4795 18.9341 31.4553 18.8917C31.3643 18.7248 31.4067 18.6096 31.4977 18.7764C31.6312 18.828 31.7647 18.8765 31.8072 18.7612C31.8921 18.5307 31.0882 18.2273 30.9123 18.291C30.8698 18.4063 30.6028 18.3062 30.3328 18.2031C29.9749 18.0676 29.7676 18.0767 29.711 18.2304C29.6988 18.2607 29.6928 18.291 29.6837 18.3214C29.629 18.3001 29.5744 18.2819 29.5229 18.2607C29.5471 18.2364 29.5684 18.2122 29.5805 18.1818C29.623 18.0665 29.629 17.9695 29.6199 17.9179C29.6078 17.8633 29.5744 17.8512 29.4925 17.8876C29.3257 17.9573 29.2013 17.9088 29.3166 17.8208C29.3227 17.7905 29.3045 17.7602 29.2741 17.7328C29.3409 17.5205 29.3409 17.2596 29.2559 17.1777C29.2559 17.1777 29.265 17.0594 29.2772 16.9411C29.4228 16.665 29.2984 16.6559 29.1558 16.932C29.0891 16.9987 29.0557 17.0321 29.0375 17.0442L29.0193 17.0594C29.0314 16.9229 29.1649 16.7864 29.2984 16.6529C29.4764 16.4749 29.5289 16.3344 29.4561 16.2312C29.2225 16.0704 29.2316 15.9279 29.4774 15.9461C29.5987 15.9552 29.6108 15.8126 29.629 15.5244C29.6381 15.3818 29.5471 14.9419 29.5623 14.6568C29.5775 14.3686 29.6048 13.9378 29.6048 13.9378C29.4834 13.9318 29.4956 13.6436 29.5016 13.501C29.6381 13.2189 29.5168 13.2128 29.3924 13.2098C29.2984 13.2067 29.2043 13.2007 29.1649 13.2644C29.1679 13.1794 29.171 13.0945 29.177 13.0096C29.2377 13.0187 29.3075 13.0338 29.4015 13.0672L29.7716 13.0824L29.6837 12.2148C29.5896 11.3502 29.5926 11.2076 29.7231 10.9224C29.8475 10.7829 29.8505 10.6373 29.7352 10.3461C29.7352 10.2035 29.7413 10.0579 29.7413 10.0579C29.8596 9.92136 29.4258 9.65137 29.2741 9.62407C29.2741 9.527 29.2741 9.43296 29.2741 9.33588C29.3045 9.33588 29.3378 9.33588 29.3773 9.33588C29.5411 9.33588 29.5825 9.28836 29.5016 9.1933C29.5016 9.14173 29.5016 9.08713 29.5016 9.05072C29.7474 9.05072 29.8717 8.90815 29.7474 8.76557C29.5016 8.62299 29.623 8.47738 29.7474 8.47738C29.8303 8.47738 29.7888 8.42985 29.623 8.3348C29.4986 8.19222 29.5016 8.04964 29.623 7.90403C29.7019 7.7119 29.6594 7.61685 29.4956 7.61887C29.4015 7.61887 29.3105 7.54 29.2681 7.43686C29.2681 7.36405 29.2681 7.29124 29.265 7.21844C29.2893 7.19114 29.35 7.1881 29.4895 7.1881C29.7383 7.32765 29.8596 7.32765 29.7352 7.03946C29.6078 6.7543 29.6048 6.61172 29.7261 6.60869C29.7261 6.46611 29.8414 6.17489 29.8353 6.02927C29.8232 5.5985 29.6958 5.45896 29.5714 5.46199C29.3196 5.32548 29.1983 5.33155 29.3287 5.61367C29.4076 5.78355 29.3469 5.79872 29.2316 5.69558C29.2256 5.5257 29.2195 5.35582 29.2134 5.18897C29.6867 5.16773 29.805 5.02212 29.6685 4.74303C29.5795 4.55495 29.5755 4.45889 29.6564 4.45484C29.9021 4.44574 29.8839 4.01194 29.6321 3.88149C29.5016 3.74498 29.4956 3.59937 29.4865 3.45679C29.4824 3.36174 29.4389 3.31624 29.356 3.32028C29.1164 3.47499 29.0982 3.04726 29.447 2.74087C29.5684 2.7348 29.5623 2.58919 29.5623 2.58919C29.4319 2.45268 29.4228 2.3101 29.4137 2.16752C29.4228 2.09168 29.4379 2.01281 29.4319 1.88539C29.4197 1.75798 29.4288 1.61237 29.3773 1.45766C29.3136 1.1452 29.1073 0.802404 28.8373 0.574885C28.5673 0.341299 28.2488 0.219956 28.0152 0.195687C27.9575 0.186586 27.9029 0.180519 27.8574 0.177486C27.8089 0.177486 27.7695 0.183553 27.7361 0.186586C27.6694 0.195687 27.6329 0.207821 27.6329 0.222989C27.8028 0.356467 27.7968 0.344333 27.9606 0.380736C27.9606 0.380736 28.1244 0.414105 28.085 0.535449C28.085 0.535449 28.0395 0.550617 27.9788 0.571852C27.9515 0.580952 27.9211 0.58702 27.8878 0.593087C27.7664 0.571852 27.639 0.565785 27.5146 0.574885C27.4904 0.559717 27.4873 0.535449 27.4813 0.477811C27.4752 0.359501 27.2871 0.241191 27.1142 0.298829C27.1142 0.298829 27.1506 0.417139 27.184 0.535449C27.3569 0.617356 27.2234 0.644658 27.0384 0.583986C26.8533 0.535449 26.7744 0.43534 26.8988 0.241191C26.8533 0.125915 26.8078 0.0136719 26.8078 0.0136719C26.6137 0.104679 26.6743 0.213889 26.7289 0.323098C26.7289 0.323098 26.6986 0.368601 26.6501 0.417139C26.6015 0.46871 26.5287 0.520281 26.4134 0.526348C26.3376 0.580953 26.2436 0.687128 26.1708 0.778136C26.1071 0.87521 26.0858 0.969252 26.1344 1.00565C26.2345 1.07846 26.1283 1.21194 26.1799 1.40912C26.1101 1.54563 26.0889 1.61237 26.0464 1.63361C26.0039 1.65484 25.9463 1.63361 25.834 1.5881L25.7188 1.5426C25.834 1.58507 25.8765 1.46069 25.9584 1.29688C26.0342 1.14217 26.0343 1.1452 25.9281 1.08149C25.8553 1.0906 25.7825 1.13003 25.7188 1.19374C25.6581 1.25138 25.5913 1.35148 25.5731 1.40912C25.5216 1.5426 25.5307 1.70035 25.6186 1.80955L25.5671 1.94303C25.4518 1.89753 25.3517 2.16752 25.3153 2.61346C25.2273 3.19287 25.2425 3.50533 25.3942 3.1049C25.3942 3.1049 25.4882 3.1413 25.5913 3.18074C25.5853 3.19287 25.5822 3.205 25.5762 3.21714C25.5519 3.22927 25.5155 3.25051 25.4579 3.28084C24.9604 3.55083 24.9118 3.68431 25.3062 3.68128C25.3335 3.69038 25.3608 3.70251 25.3851 3.71465C25.3487 3.81172 25.3123 3.90576 25.2728 4.00284C25.1697 4.03621 25.0574 4.04834 24.924 3.99677C24.8603 3.81779 24.6934 3.9088 24.7571 4.08778C24.7055 4.22126 24.657 4.35473 24.657 4.35473C24.6054 4.48821 24.7207 4.53372 24.9513 4.62169C24.9877 4.60045 25.021 4.58832 25.0514 4.58225C25.018 4.66719 24.9846 4.75213 24.9543 4.83707C24.7996 4.94022 24.6236 5.10706 24.5205 5.06763C24.1898 5.24661 24.0897 5.5166 24.2171 5.87153C24.2596 5.99085 24.2424 6.03534 24.1656 6.005C24.0503 5.96253 23.9502 6.22949 23.847 6.49645C23.7459 6.7634 23.7722 6.9262 23.9259 6.98485C24.112 6.95452 24.0948 6.99901 23.8743 7.11833C23.5437 7.30035 23.4405 7.5673 23.6225 7.78875C23.574 7.77055 23.6074 7.78269 23.5073 7.74628C23.2767 7.65831 23.1614 7.61584 23.2251 7.79179C23.2889 7.96773 23.2403 8.10425 23.0886 8.50468C22.8733 8.72917 22.7701 8.99612 22.7701 8.99612C22.8854 9.03859 22.8338 9.17207 22.7853 9.30858C22.7337 9.44206 22.6852 9.57554 22.7489 9.75452C22.8642 9.79699 22.8126 9.93046 22.6973 9.88799C22.582 9.84552 22.5305 9.979 22.4819 10.1125L22.3666 10.07C22.2514 10.0275 22.0845 10.1185 22.1513 10.2945C22.215 10.4704 22.2301 10.7829 21.9632 11.1409C21.6598 11.9448 21.6082 12.0782 21.8388 12.1632C21.9541 12.2057 22.0178 12.3816 22.0178 12.3816C21.9834 12.4706 21.9278 12.5009 21.8509 12.4726C21.7357 12.4301 21.6204 12.3877 21.5688 12.5211L21.5172 12.6546C21.6325 12.6971 21.5324 12.9641 21.3656 13.0551C21.047 13.5495 21.0622 13.859 21.2776 13.6345C21.3888 13.5738 21.4657 13.6021 21.5081 13.7194C21.408 13.9864 21.408 13.9894 21.2928 13.9439C21.2139 13.9166 21.1047 13.9742 21.0167 14.0228C20.9742 14.047 20.9318 14.0774 20.9014 14.1047C20.8863 14.1198 20.8711 14.135 20.859 14.1502C20.8559 14.1654 20.8377 14.1472 20.8256 14.1411C20.8134 14.135 20.8013 14.1289 20.7892 14.1229C20.6982 14.0865 20.6405 14.1138 20.5768 14.1987C20.4858 14.2655 20.4039 14.311 20.319 14.3443C20.2795 14.3595 20.231 14.3777 20.2007 14.3868L20.1248 14.4111C20.1248 14.4111 20.1157 14.4141 20.1127 14.4171C20.0399 14.4535 20.0399 14.5749 20.046 14.6932L20.1521 14.6598L20.1703 14.6538C20.2826 14.6174 20.3008 14.6204 20.325 14.7114C20.2947 14.7205 20.2644 14.7266 20.234 14.7357C20.1643 14.7569 20.0945 14.7781 20.0247 14.8024C20.0247 14.8024 20.0247 14.8024 20.0217 14.8024C19.9003 14.7599 19.7881 14.7387 19.6789 14.7266C19.7972 14.6871 19.867 14.6477 19.8579 14.5901C19.8579 14.5294 19.7638 14.4293 19.4847 14.3686C19.2997 14.3747 19.2087 14.402 19.1692 14.4262C19.1268 14.4505 19.1359 14.4839 19.1541 14.5415L19.1874 14.6598C19.2512 14.6447 19.2936 14.678 19.324 14.7296C19.236 14.7448 19.1541 14.7721 19.0752 14.8085C19.0418 14.7721 18.9751 14.7721 18.9084 14.7933C18.8356 14.8206 18.7718 14.8661 18.7718 14.8661C18.7324 15.0542 18.6566 14.9662 18.5686 14.8782C18.5504 14.7599 18.5261 14.7023 18.4655 14.7235C18.4351 14.7296 18.3896 14.769 18.3562 14.8054C18.3441 14.8236 18.3198 14.8631 18.3016 14.9146C18.2713 14.951 18.2197 14.9784 18.1591 15.0239C18.1348 15.0967 18.0225 15.1604 17.9467 15.1998C17.8648 15.2392 17.7981 15.2605 17.7981 15.2605C17.7617 15.1422 17.3521 15.2635 17.0791 15.3454C16.8061 15.4273 16.3935 15.5426 16.3601 15.4243C16.3601 15.4243 16.0871 15.5032 15.8111 15.579C15.3985 15.6943 15.262 15.7307 15.262 15.7307C15.3348 15.4577 14.6067 16.0371 14.5006 16.1918C14.5309 16.301 14.5339 16.3101 14.6674 16.3738C14.6037 16.392 14.537 16.4072 14.4702 16.4254C14.4247 16.2707 14.2427 16.0977 14.0212 16.0644C13.8514 15.9825 13.5753 16.0522 13.7452 16.1372C13.7755 16.2555 13.363 16.3677 12.5318 16.574C12.3922 16.6104 12.3649 16.4891 12.3042 16.2494C12.3366 15.9865 12.281 15.9582 12.1374 16.1645C11.8917 16.3526 11.919 16.4709 12.2557 16.6408C12.3922 16.7105 12.4559 16.8774 12.4013 16.9562C12.3801 16.9623 12.3588 16.9654 12.3376 16.9714C12.3346 16.9532 12.3255 16.9289 12.3133 16.8774C12.3133 16.8774 12.1435 16.7924 12.0069 16.8258C11.8704 16.8592 11.8674 16.8592 11.8977 16.9805C11.9068 17.0139 11.9038 17.0473 11.8977 17.0806C11.8158 17.1019 11.7309 17.1231 11.649 17.1413C11.6399 17.111 11.6308 17.0776 11.6217 17.0473C11.5913 16.9289 11.564 16.8076 11.4245 16.841C11.4245 16.841 11.285 16.8743 11.1181 16.7864C10.8117 16.7318 10.6752 16.7651 10.4234 16.9502C10.1747 17.1322 9.89557 17.1989 9.75602 17.2293C9.75602 17.2293 9.44963 17.1716 9.03403 17.2626C8.75494 17.3233 8.31204 17.293 8.17249 17.3233C8.03295 17.3536 7.8934 17.381 7.8934 17.381C7.91767 17.5023 7.77813 17.5296 7.47477 17.4689C7.33522 17.4993 7.19568 17.5266 7.19568 17.5266C6.96513 17.8239 6.56773 18.0271 6.40391 17.9361C6.40391 17.9361 6.10055 17.8694 5.96101 17.8967C5.82146 17.924 5.8427 18.0453 6.17033 18.2334C6.25223 18.2516 6.32201 18.2728 6.37964 18.2941C6.08539 18.3517 5.78809 18.4063 5.4908 18.4609C5.52721 18.0938 4.94779 17.9664 4.696 18.1333C4.58073 18.2789 4.57466 18.2819 4.40175 18.3274C4.39264 18.2971 4.34411 18.288 4.25917 18.2941C4.17726 18.3092 4.06198 18.3547 3.92851 18.4154C3.66762 18.561 3.37639 18.8826 3.25808 19.2557C3.10034 19.7168 3.14281 20.1385 3.21561 20.4691C3.29145 20.8028 3.40673 21.0607 3.4765 21.2518C3.70099 21.5643 4.05895 21.8464 4.47758 21.8494C4.80521 21.8282 4.92959 21.8646 5.06913 21.9101C5.03273 22.0284 5.20565 21.9526 5.10554 21.7918C5.15407 21.6361 5.19958 21.6502 5.24205 21.8343C5.34216 21.995 5.47867 22.0375 5.89124 22.1619C6.16729 22.2438 6.3038 22.2863 6.3038 22.2863L6.23403 22.5229L6.37054 22.5623C6.40695 22.444 6.683 22.5259 6.99243 22.4895C7.3605 22.5947 7.4869 22.6735 7.37163 22.7261C7.33826 22.8444 7.30489 22.9628 7.30489 22.9628C7.4778 22.8839 7.61431 22.9233 7.64768 22.805C7.68105 22.6867 7.95711 22.7656 8.23316 22.8414C8.50922 22.9172 8.64877 22.9567 8.54259 22.7989C8.57596 22.6806 8.71247 22.7201 8.98853 22.7929C9.17256 22.8414 9.25447 22.9061 9.23425 22.987C9.20391 23.1053 9.31009 23.2631 9.44963 23.2995C9.86827 23.4087 10.3142 23.3966 10.4841 23.3116C10.7086 23.1984 10.7551 23.2095 10.6236 23.345C10.5933 23.4633 10.563 23.5846 10.563 23.5846C11.4002 23.794 11.4002 23.7879 11.5974 23.5846C11.6358 23.4249 11.7289 23.4471 11.8765 23.6514C12.2375 23.9881 12.2132 24.1094 12.4074 23.9001L12.4347 23.7788C12.5196 24.0518 13.0808 24.1792 13.4145 24.0002C13.5541 24.0306 13.6936 24.0609 13.6936 24.0609C13.8332 24.0912 13.6663 24.1823 13.6663 24.1823L13.5268 24.1519C13.4995 24.2733 13.7816 24.3339 13.9211 24.3643C14.2275 24.3066 14.5097 24.3643 15.2104 24.5099C15.4925 24.5645 15.6078 24.7131 15.4197 24.9285C15.3955 25.0499 15.3712 25.1712 15.5138 25.1985C15.6564 25.2258 15.6806 25.1045 15.7019 24.9862C15.7261 24.8648 15.8899 24.7738 16.0082 24.9224C16.1508 24.9498 16.2904 24.9771 16.3146 24.8557L16.5968 24.9103C16.6392 24.9619 16.8303 24.9831 17.07 24.9771C17.1003 24.9771 17.1307 24.9771 17.161 24.9771C17.1944 24.9771 17.2035 24.971 17.2247 24.968C17.2672 24.9589 17.3127 24.9528 17.3552 24.9437C17.4067 24.9346 17.4553 24.9255 17.5038 24.9164C17.5311 24.9133 17.5584 24.9073 17.5827 24.9042C17.613 24.8951 17.61 24.9224 17.6251 24.9315C17.704 25.0195 17.8132 25.0923 17.8739 25.1166C17.8163 25.153 17.8284 25.1469 17.7708 25.1833C17.6676 25.247 17.6403 25.3229 17.698 25.4018C17.7526 25.4776 17.9164 25.5595 18.0741 25.5231C18.1105 25.5261 18.1469 25.5292 18.1773 25.5322C18.3198 25.5989 18.3744 25.6808 18.3744 25.699C18.3744 25.7233 18.3047 25.7051 18.1833 25.7021C18.0954 25.6202 18.0377 25.6444 18.0195 25.6899C18.0104 25.7142 18.0134 25.7476 18.0286 25.784C18.0377 25.8052 18.0468 25.8234 18.065 25.8507C18.0863 25.8902 18.1105 25.9357 18.1409 25.9812C18.2228 26.2542 18.3441 26.6637 18.2652 26.8366C18.1864 27.0065 18.3441 27.1097 18.5049 27.2128C18.6889 27.2593 18.7021 27.3048 18.5443 27.3493C18.3077 27.4191 18.3471 27.5526 18.5807 28.3777C18.696 28.7903 18.7324 28.9268 18.969 28.86C19.0327 28.8418 19.0236 28.8449 19.0873 28.8267C19.0085 28.9966 19.0449 29.1331 19.0449 29.1331C19.0691 29.2241 19.0418 29.2807 18.963 29.3029C18.8447 29.3363 18.7627 29.5032 18.7627 29.5032C18.7991 29.6397 18.9175 29.6093 19.0388 29.576C19.0388 29.576 19.0752 29.7125 19.1116 29.852C19.0661 30.1584 19.0995 30.298 19.2208 30.2646C19.324 30.3354 19.415 30.3607 19.4938 30.3404L19.4119 30.5103C19.2117 30.7105 19.2451 30.847 19.3634 30.8167C19.5181 30.9229 19.5515 31.0624 19.5515 31.0624C19.5879 31.202 19.6213 31.3385 19.776 31.4477C19.8124 31.5872 19.8457 31.7237 19.7244 31.7541C19.5211 31.9513 19.691 32.6429 19.961 32.7248C19.873 32.8917 19.9064 33.0312 19.9064 33.0312C20.0075 33.104 20.0985 33.1313 20.1794 33.1131C20.1491 32.9857 20.2219 32.834 20.3281 32.7916C20.3372 32.828 20.3432 32.8644 20.3523 32.8977C20.3463 32.9493 20.3341 33.013 20.2977 33.0828C20.0035 33.4438 20.0672 33.7229 20.3068 33.6683C20.4282 33.641 20.4585 33.7805 20.4585 33.7805C20.4919 33.9201 20.3705 33.9474 20.2492 33.9747C20.0975 33.8624 20.1279 34.002 20.1612 34.1415C20.1036 34.4479 20.2219 34.4206 20.3432 34.3933C20.4342 34.3721 20.5799 34.4267 20.7194 34.5086C20.7558 34.6663 20.7892 34.8241 20.8225 34.9818C20.7801 34.9302 20.7315 34.8574 20.6739 34.7573C20.4616 34.366 20.3736 34.5328 20.4949 35.088C20.5556 35.3671 20.5859 35.5066 20.7042 35.4793C20.7042 35.4793 20.8256 35.452 20.8559 35.5946C20.8863 35.7341 20.9773 35.5703 20.8559 35.5946C20.5859 35.5066 20.5859 36.0891 20.7315 36.2044C20.7619 36.3439 20.8802 36.3196 21.0015 36.2954C21.0501 36.2863 21.0834 36.3014 21.1077 36.3257C21.1198 36.3833 21.132 36.444 21.1441 36.5016C21.1138 36.5623 21.0258 36.5805 20.9409 36.5987C20.8195 36.623 20.7012 36.6473 20.7012 36.6473L20.7285 36.7868C20.8499 36.7625 20.8772 36.9021 20.9045 37.0416C20.8408 37.345 21.0046 38.1853 21.1775 38.4431C21.1957 38.5362 21.1724 38.6373 21.1077 38.7465C20.9864 38.7677 21.0137 38.9103 21.1593 39.0256C21.3372 39.0903 21.3453 39.1368 21.1835 39.1651C21.1229 39.1773 21.0986 39.2167 21.1168 39.3047C21.1259 39.3472 21.1411 39.3987 21.1835 39.5019C21.2321 39.5959 21.2655 39.7081 21.3656 39.8265C21.4293 40.0115 21.6871 40.3361 21.857 40.4483C21.7872 40.5515 22.0147 40.5667 21.9328 40.3513C22.0876 40.1662 22.1877 40.236 22.2483 40.5394C22.309 40.6243 22.4364 40.7092 22.5274 40.7244C22.6215 40.7426 22.667 40.7183 22.5911 40.6425C22.6154 40.5272 22.7792 40.4483 22.9157 40.3331C23.298 40.3422 23.6923 40.2178 24.0017 39.9751C24.0624 40.0691 24.1049 40.1784 24.0139 40.2421C24.0139 40.2421 23.8743 40.324 23.932 40.4301C23.9471 40.4574 23.9866 40.4605 24.0472 40.4423C24.1079 40.4241 24.1868 40.3816 24.2687 40.2997C24.4386 40.1571 24.6297 39.8538 24.6418 39.4958C24.6843 39.3259 24.6813 39.2197 24.6995 39.1257C24.7116 39.0347 24.7237 38.974 24.7328 38.9407C24.7541 38.8709 24.7723 38.9164 24.7874 39.0711C24.8603 39.244 25.021 39.1439 25.0665 39.0074C25.0665 39.0074 25.1939 38.5948 25.2789 38.3218C25.3638 38.0457 25.4033 37.9092 25.288 37.8728C25.288 37.8728 25.3305 37.7363 25.3699 37.5968C25.5307 37.4967 25.9311 36.1133 25.8098 36.08L25.8492 35.9404C25.8755 35.8474 25.8492 35.7908 25.7703 35.7706C25.5337 35.7038 25.6095 35.4278 25.8856 35.3549C26.0039 35.3883 26.0798 35.1092 26.1162 34.9727C26.2648 34.4176 26.3012 34.278 26.1071 34.5238C25.9978 34.4964 25.9857 34.4904 25.8917 34.4661C25.9099 34.3963 25.9281 34.3266 25.9493 34.2538C25.9766 34.2204 26.01 34.1992 26.0616 34.2143C26.2163 34.1081 26.3346 34.1385 26.2982 34.275L26.4165 34.3053C26.5742 34.1992 26.7744 32.9099 26.5985 32.5732L26.6319 32.4336C26.7502 32.4639 26.7835 32.3214 26.8169 32.1818L26.8503 32.0423C26.9686 32.0696 27.005 31.93 27.0353 31.7905C26.9504 31.6267 26.8655 31.4659 26.641 31.4052C26.6531 31.3597 26.6622 31.3112 26.6743 31.2657L26.7714 31.2869L26.8928 31.3142C26.9939 31.2394 27.0556 31.1555 27.0778 31.0624C27.0192 30.9512 27.0404 30.8582 27.1415 30.7833C27.1415 30.7833 27.3266 30.5315 27.4449 29.9673C27.6238 28.5354 27.818 28.138 27.9697 28.0197L27.997 27.8772C27.8787 27.8529 27.9575 27.4312 28.0364 27.0065C28.0698 26.8245 28.0819 26.7638 28.088 26.6364C28.0941 26.5211 28.085 26.3937 28.0425 26.2845C28.0425 26.2724 28.0425 26.2603 28.0485 26.2512H28.0819C28.1032 26.2542 28.1244 26.2572 28.1426 26.2572C28.179 26.2572 28.2002 26.2603 28.2002 26.2603C28.364 26.3937 28.4217 26.3998 28.5036 26.4059L28.6795 26.418C28.6704 26.5393 28.816 26.5484 29.1103 26.4453C29.262 26.33 29.5471 26.3513 29.8353 26.3634C30.1235 26.3786 30.2661 26.3877 30.4147 26.2724C30.5179 26.1126 30.5654 26.1146 30.5573 26.2785C30.5513 26.3998 30.8395 26.415 31.2702 26.4332C31.8314 26.4544 31.8436 26.4514 31.9892 26.1116C32.065 26.1116 32.1439 26.1177 32.2228 26.1177C32.1409 26.3361 32.153 26.5636 32.2743 26.4665H32.4169C32.5565 26.597 32.8447 26.6061 33.1328 26.6122C33.42 26.6182 33.5646 26.5798 33.5666 26.4969C33.4605 26.3088 33.4392 26.1935 33.5545 26.151C33.6091 26.151 33.6637 26.151 33.7153 26.151L33.7092 26.4969C33.8488 26.7487 34.5708 26.6304 34.5708 26.3846C34.6678 26.3037 34.7639 26.2633 34.859 26.2633V26.3877C34.859 26.512 34.859 26.6334 35.0015 26.6334C35.0015 26.6334 35.1441 26.509 35.1471 26.3877C35.2897 26.512 35.4353 26.6334 35.5779 26.512H35.8661C35.8661 26.6364 37.7378 26.6152 38.3051 26.4696C38.7328 26.3331 38.7359 26.4544 38.7359 26.4544C38.835 26.5333 38.932 26.5707 39.0271 26.5667C39.1666 26.4453 41.0293 26.3543 41.3235 26.4574L41.4661 26.4483C41.3144 26.3331 41.46 26.327 41.7452 26.3088C41.7816 26.3361 41.8392 26.3573 41.9029 26.3695C41.9363 26.3755 41.9727 26.3786 42.0091 26.3816C42.0516 26.3816 42.1032 26.3755 42.1517 26.3695C42.3489 26.3543 42.5643 26.2512 42.7008 26.1298C42.9404 26.0145 43.1194 25.8811 43.2559 25.7597C43.3227 25.696 43.3833 25.6444 43.441 25.602C43.4956 25.5565 43.5411 25.517 43.5926 25.4928C43.6715 25.426 43.7322 25.3623 43.7747 25.2895C43.8202 25.2167 43.8657 25.1469 43.893 25.065C43.9203 24.9831 43.9415 24.8891 43.9627 24.7829C43.9688 24.6737 43.984 24.5493 43.9718 24.3976L43.99 24.4067ZM29.4865 9.00826C29.4865 8.97185 29.4865 8.97792 29.4865 9.00826V9.00826ZM41.8514 22.9081C41.8332 22.9021 41.815 22.893 41.7968 22.8869C41.8059 22.8657 41.8544 22.8596 41.8514 22.9081ZM40.1495 22.1619C40.3285 22.0982 40.462 22.1467 40.5955 22.1983C40.7229 22.3227 40.7593 22.4106 40.7138 22.4683C40.4923 22.3833 40.2709 22.2984 40.0494 22.2135C40.0767 22.1953 40.1101 22.1771 40.1526 22.1619H40.1495ZM39.4821 21.995C39.4609 21.9859 39.4397 21.9799 39.4215 21.9708C39.4518 21.9586 39.47 21.9647 39.4821 21.995ZM36.4 20.7452C36.3909 20.7664 36.397 20.7937 36.4061 20.8241C36.3302 20.7968 36.2544 20.7664 36.1816 20.7391C36.312 20.7179 36.4 20.7482 36.4 20.7482V20.7452ZM35.5961 20.4418L35.5476 20.4964C35.5294 20.4904 35.5142 20.4843 35.496 20.4782L35.5961 20.4418ZM34.7922 20.1385C34.9014 20.181 34.9227 20.1901 34.9773 20.2841C34.9075 20.2568 34.8377 20.2325 34.7679 20.2052C34.774 20.184 34.7831 20.1597 34.7922 20.1385ZM29.8717 18.2819C29.9931 18.3274 30.1084 18.3608 30.1478 18.2546C30.1478 18.2546 30.2661 18.3032 30.2054 18.5034C30.1084 18.467 30.0082 18.4306 29.9112 18.3942C29.8899 18.3487 29.8808 18.3092 29.8717 18.2819ZM29.0648 16.3344C29.0314 16.2889 28.9981 16.2737 28.9677 16.2767C28.9799 16.1068 28.995 15.9339 29.0072 15.7641C29.0648 15.9036 29.1224 16.0856 29.1892 16.3435C29.1224 16.3374 29.1346 16.3404 29.0678 16.3344H29.0648ZM29.2772 15.0572L29.3985 15.0663L29.5107 15.218L29.3773 15.3545C29.2559 15.3454 29.265 15.2028 29.2741 15.0603L29.2772 15.0572ZM29.0891 14.4505C29.1012 14.2503 29.1133 14.0531 29.1255 13.8529C29.2438 14.0713 29.2407 14.3474 29.0891 14.4505ZM29.2802 12.6182C29.2165 12.7487 29.1861 12.8184 29.1679 12.8397C29.174 12.7183 29.1801 12.594 29.1831 12.4726C29.2802 12.4756 29.2832 12.4878 29.2802 12.6182ZM29.2225 11.2501C29.2225 11.1985 29.2225 11.1439 29.2256 11.0923C29.265 11.2137 29.2559 11.2652 29.2225 11.2501ZM29.3591 8.03447C29.3591 8.03447 29.3166 8.07998 29.259 8.12245C29.259 8.04964 29.259 7.97987 29.259 7.90706C29.3166 7.92223 29.3591 7.9556 29.3591 8.03751V8.03447ZM29.2863 4.74H29.1831C29.1831 4.67023 29.177 4.60045 29.174 4.52765C29.2347 4.57922 29.2832 4.65809 29.2863 4.74ZM29.0921 2.86524C29.0891 2.78637 29.083 2.70446 29.08 2.62559L29.1892 2.73783L29.0921 2.86524ZM29.1073 1.72765C29.2286 1.70641 29.2286 1.70641 29.2529 1.86416C29.2529 1.86416 29.2286 1.90663 29.1861 1.9491C29.1467 1.98247 29.0982 2.01281 29.0436 2.02494C29.0436 2.00067 29.0436 1.97944 29.0405 1.95517C29.0375 1.90663 29.0254 1.86113 29.0193 1.81259C29.0436 1.78529 29.0709 1.75798 29.1073 1.72765ZM26.3983 0.95105C26.4256 0.938916 26.465 0.969252 26.5136 1.04206C26.4741 1.08453 26.4408 1.13003 26.4074 1.17554C26.3619 1.06026 26.3588 0.963184 26.3983 0.95105ZM23.8834 7.59157C23.8804 7.5673 23.8895 7.54607 23.9077 7.52483C23.8986 7.54607 23.8895 7.57033 23.8834 7.59157ZM23.216 9.15993L23.3131 9.10533C23.2889 9.16903 23.2646 9.23577 23.2403 9.29948C23.2069 9.26611 23.1918 9.22364 23.216 9.15993ZM22.9703 10.0215C22.94 10.1064 22.9066 10.1914 22.8763 10.2763C22.6852 10.2793 22.7549 10.0882 22.9703 10.0215ZM22.5578 10.8982L22.6609 10.8405C22.6366 10.9073 22.6093 10.974 22.5851 11.0408C22.5487 11.0074 22.5305 10.9649 22.5578 10.8951V10.8982ZM22.306 11.5686C22.306 11.5686 22.3484 11.5443 22.4061 11.5292C22.3848 11.5838 22.3636 11.6414 22.3454 11.696C22.309 11.6596 22.2908 11.6171 22.309 11.5686H22.306ZM21.6325 13.6132C21.6173 13.6557 21.6022 13.6951 21.587 13.7376C21.59 13.6678 21.59 13.6132 21.6325 13.6132ZM21.0743 14.7114C21.0743 14.7114 21.0834 14.7205 21.0895 14.7235C21.0258 14.7023 20.9621 14.6871 20.8923 14.675C20.8923 14.675 20.8923 14.675 20.8954 14.675C20.9439 14.6568 21.0015 14.6689 21.0743 14.7144V14.7114ZM16.7242 15.6943C16.7242 15.6943 16.7818 15.7216 16.8364 15.7641C16.7636 15.7853 16.6878 15.8065 16.615 15.8278C16.5907 15.7367 16.5998 15.7307 16.7242 15.6943ZM16.2782 15.6943C16.4056 15.6579 16.442 15.758 16.3632 15.9006C16.3086 15.9157 16.254 15.9309 16.1994 15.9461C16.169 15.8369 16.1478 15.7307 16.2752 15.6943H16.2782ZM12.9989 16.7045C13.0535 16.6256 13.1779 16.662 13.2902 16.7318C13.1597 16.7651 13.0293 16.7955 12.8988 16.8288C12.8988 16.7712 12.9231 16.7227 13.002 16.7014L12.9989 16.7045ZM11.0544 17.1807L11.1879 17.2505C11.109 17.2687 11.0301 17.2869 10.9513 17.3051C10.9361 17.2899 10.927 17.2657 10.9149 17.2141L11.0544 17.1807ZM10.1929 17.2566L10.3597 17.3445L10.2717 17.4659C10.2171 17.478 10.1595 17.4932 10.1049 17.5053C10.0806 17.3931 10.0655 17.2869 10.1959 17.2566H10.1929ZM4.24096 18.6187C4.25007 18.5458 4.27737 18.4973 4.27737 18.4973C4.35321 18.4609 4.38658 18.558 4.40478 18.6611C4.40478 18.6672 4.40478 18.6763 4.40781 18.6824C4.35017 18.7036 4.30164 18.7309 4.2531 18.7552C4.24097 18.7036 4.23793 18.6551 4.244 18.6156L4.24096 18.6187ZM3.93154 18.8583C3.98311 18.8158 4.03468 18.828 4.08018 18.8674C3.99524 18.9341 3.9194 19.007 3.85873 19.0889C3.8466 19.013 3.86783 18.922 3.93154 18.8583ZM3.55841 19.5227C3.55841 19.5227 3.60998 19.4832 3.67975 19.462C3.65852 19.5318 3.64335 19.6015 3.63425 19.6743C3.57964 19.6501 3.54627 19.6106 3.56144 19.5227H3.55841ZM3.87087 20.7846C3.94064 20.8969 4.02255 21 4.11659 21.091C3.94671 21.0819 3.84357 21.0182 3.79503 20.9636C3.74952 20.906 3.78289 20.8423 3.87087 20.7816V20.7846ZM5.82753 21.8858C5.83966 21.8403 5.84877 21.813 5.86393 21.7918C5.95191 21.8191 6.03988 21.8464 6.12482 21.8737C6.07932 21.9617 5.95191 21.9253 5.8245 21.8858H5.82753ZM11.1242 23.2418C11.1424 23.2449 11.1606 23.2509 11.1788 23.257C11.2 23.345 11.1848 23.3298 11.1242 23.2418ZM17.616 24.7162C17.5796 24.7708 17.5129 24.8223 17.4462 24.8405C17.3764 24.8587 17.3127 24.8466 17.2126 24.7677C17.0761 24.6767 17.0245 24.5675 17.067 24.5129C17.2459 24.5463 17.428 24.5797 17.6069 24.613C17.6403 24.6373 17.6494 24.6676 17.616 24.7162ZM18.7263 26.7153C18.7385 26.7608 18.7536 26.8033 18.7658 26.8488C18.5959 27.0126 18.5625 26.9003 18.7263 26.7153ZM18.9812 28.408C18.7971 28.3595 18.7718 28.2675 18.9053 28.132C18.9579 28.0187 18.9185 27.8812 18.787 27.7194L18.9448 27.8226C18.9872 27.8347 19.0206 27.8408 19.0509 27.8499C19.0964 28.0076 19.1419 28.1684 19.1844 28.3261C19.1632 28.3534 19.1055 28.3716 18.9781 28.405L18.9812 28.408ZM19.3634 29.3393C19.33 29.2119 19.2967 29.0845 19.3846 29.0421C19.4089 29.1331 19.4332 29.2271 19.4574 29.3181C19.415 29.3424 19.4483 29.3818 19.4726 29.3727C19.4787 29.4 19.4878 29.4243 19.4938 29.4516C19.4059 29.4728 19.3968 29.4637 19.3634 29.3393ZM20.0156 31.475C20.0247 31.5084 20.0338 31.5417 20.0399 31.5751C19.9519 31.6176 19.9519 31.5751 20.0156 31.475ZM25.0574 38.249L24.8967 38.3491L24.9391 38.2126C24.9674 38.1216 25.021 38.0882 25.0999 38.1125L25.0574 38.249ZM24.9846 37.7272C25.0332 37.5664 25.0787 37.4057 25.1272 37.2449C25.2334 37.4208 25.1515 37.5998 24.9846 37.7272ZM26.2496 33.5257L26.2132 33.6652C26.1799 33.6561 26.1495 33.6349 26.1222 33.6137C26.1435 33.5348 26.1617 33.4529 26.1829 33.374C26.2375 33.4013 26.2709 33.4468 26.2496 33.5257ZM26.6592 31.8572C26.6592 31.8572 26.7775 31.8845 26.7441 32.0241C26.7107 32.1636 26.5591 32.2728 26.5591 32.2728C26.5075 32.2607 26.4832 32.2273 26.4741 32.1909C26.4984 32.0938 26.5196 31.9998 26.5409 31.9027C26.5682 31.8633 26.6046 31.8421 26.6561 31.8542L26.6592 31.8572ZM27.1294 29.761C27.1021 29.8915 27.0717 30.0219 26.9716 30.0158C27.002 29.8824 27.0323 29.7458 27.0596 29.6124C27.1142 29.6397 27.1476 29.6821 27.1294 29.761ZM28.5855 25.9508C28.6189 25.9508 28.6522 25.9539 28.6886 25.9569C28.634 25.9872 28.5976 25.9933 28.5855 25.9508ZM29.4319 26.1055L29.4379 26.0054C29.4379 26.0054 29.4622 26.0054 29.4774 26.0054L29.4349 26.1025L29.4319 26.1055ZM32.5807 26.239C32.5807 26.239 32.5807 26.1966 32.5807 26.1389C32.6535 26.1389 32.7233 26.145 32.7961 26.145C32.7385 26.1996 32.6596 26.2421 32.5777 26.239H32.5807Z" fill="#FFCB42"/>
<path d="M34.792 19.748C34.792 19.748 34.8018 19.7513 34.8083 19.7546C34.8018 19.7546 34.792 19.748 34.792 19.748Z" fill="#FFCB42"/>
<path d="M34.835 19.7617C34.8508 19.768 34.8571 19.7712 34.835 19.7617V19.7617Z" fill="#FFCB42"/>
</g>
<defs>
<clipPath id="clip0_295_281">
<rect width="84" height="101.868" fill="white"/>
</clipPath>
</defs>
</svg>
