<svg width="109" height="86" viewBox="0 0 109 86" fill="none" xmlns="http://www.w3.org/2000/svg">
<g clip-path="url(#clip0_295_1708)">
<path fill-rule="evenodd" clip-rule="evenodd" d="M35.9991 69.6865C36.6249 69.8952 35.8408 70.3798 35.7125 70.6964C35.2396 70.3497 35.8953 69.9306 35.9991 69.6865Z" fill="#BCDB79"/>
<path fill-rule="evenodd" clip-rule="evenodd" d="M34.2794 85.9895C33.8276 86.0585 33.7186 85.7843 33.418 85.7012C33.4795 85.2096 34.4658 85.3776 34.2794 85.9895Z" fill="#BCDB79"/>
<path fill-rule="evenodd" clip-rule="evenodd" d="M65.1138 57.8553C65.5428 58.2232 64.6321 58.3912 64.6849 59.1534C63.4384 59.1711 62.155 60.7186 61.5291 61.6064C61.0861 61.9548 60.1332 61.8293 59.6656 62.4713C61.443 63.9179 58.6037 65.3027 57.3713 65.9341C57.7458 66.2454 57.9532 66.9457 58.5193 66.6557C58.2644 67.3047 58.0271 68.1024 57.802 68.3871C57.7036 68.7762 58.0992 68.6665 58.2328 68.8204C57.5963 69.9116 56.334 70.3714 55.7943 71.5617C54.6692 71.6784 54.4178 72.0374 53.5001 72.14C53.3541 72.8138 54.0749 72.6193 53.9308 73.2931C53.5141 73.2648 53.5581 73.0685 52.9269 73.0048C52.6193 73.898 51.1724 73.6433 51.0616 74.7363C49.7694 74.5417 49.4706 75.3482 48.6232 75.6011C48.7849 76.6534 48.1643 77.5854 47.0444 77.7658C47.1148 78.2221 46.786 78.2752 46.902 78.7757C46.2164 79.0303 45.1932 79.6122 44.7502 79.6405C44.6007 79.9712 44.6587 80.5106 44.4636 80.7954C44.1067 80.7228 43.8746 80.523 43.6039 80.3621C43.0167 81.119 42.0674 81.5081 41.1655 81.9502C40.457 80.8802 39.1314 81.9255 39.3002 83.3934C38.4528 83.3545 38.2752 83.4341 37.8656 83.1051C37.4278 83.2501 37.0393 83.3421 37.2907 83.8267C36.6965 83.9434 37.2186 82.9371 36.8617 82.8168C36.4328 83.2413 36.7105 83.3085 36.7176 83.9717C36.1989 84.5482 35.6276 84.2105 35.1406 84.26C34.4163 84.7888 32.4806 85.6288 31.4117 85.8464C31.2834 85.5899 31.0109 85.4803 31.1252 84.9798C30.5432 85.1053 29.3812 84.7782 28.8309 84.115C28.8344 83.4871 28.917 82.7797 28.5443 82.5286C27.5932 83.6162 25.4167 83.0786 23.8116 82.8168C23.5989 82.8805 23.8679 83.0008 23.8116 83.2501C23.2754 83.2148 23.0099 82.9035 22.5212 82.8168C22.4526 82.3641 22.908 82.4348 22.9502 82.0953C21.7248 81.7115 21.3081 83.6993 20.0828 83.8267C18.8785 83.9505 17.5459 82.5551 17.3578 81.9502C17.1661 82.0457 17.0905 82.258 17.0712 82.5268C16.5367 82.0988 15.8089 83.1139 15.6366 82.2385C14.8789 82.4896 14.4816 82.5586 13.9155 82.2385C13.6395 82.4242 14.2548 82.5374 13.9155 82.9601C13.6606 82.5356 12.7024 82.3092 12.3385 82.8151C10.6121 80.9475 7.71653 83.4942 6.31536 81.3719C5.71058 81.3648 5.55412 81.7274 4.59421 81.6602C4.54499 81.2287 3.90857 81.3878 4.16349 80.6503C4.39555 80.6097 4.41137 80.7883 4.59421 80.7954C4.58191 80.5902 4.5696 80.3868 4.73662 80.3621C4.59773 80.1657 4.25315 80.1746 4.16349 79.9288C3.98592 80.026 3.85231 80.8024 3.73452 81.3719C3.3706 81.4373 1.49475 81.1049 1.15192 81.6602C1.006 81.5665 1.00424 81.3277 0.721197 81.3719C1.1695 79.9854 0.432874 79.9199 0.00390625 78.7739C0.519019 78.6554 0.698342 79.0993 1.00776 78.7739C1.03237 78.4591 0.889971 78.3158 0.577035 78.3424C1.57386 77.9975 1.67407 76.7506 3.01547 76.7542C4.10723 75.4702 5.26404 74.4179 6.45776 73.5796C6.55973 72.7166 5.72465 71.9295 6.74433 71.7049C6.99221 71.7916 6.73378 72.3894 7.03089 72.4247C7.73587 71.2204 9.57129 69.7471 8.89444 68.0971C9.19155 67.6761 9.6926 67.1809 10.1849 67.3755C10.5013 67.3578 10.2464 66.7636 10.3273 66.5107C12.3016 66.6521 12.8395 64.4043 13.912 63.1928C14.5097 63.5377 14.6029 62.8126 14.7734 62.3262C15.4889 62.3758 15.5065 63.1274 16.4946 62.9028C16.651 61.4667 19.0455 60.9291 18.3599 59.585C18.8679 59.0845 19.4516 58.6635 19.6503 57.8535C20.1039 57.7828 20.1566 58.1135 20.6541 57.9968C20.9512 57.9596 20.6928 57.3619 20.9407 57.2752C22.4896 57.2115 23.1629 55.8391 24.383 56.8419C25.6646 55.5544 27.8727 56.52 29.4023 55.687C30.8474 54.9 31.4821 50.8306 30.1196 49.4829C29.8681 45.134 27.9694 42.0408 28.2542 37.9395C27.0992 37.0552 28.4107 35.4175 27.2504 34.6199C28.0661 33.2457 26.3485 31.845 26.9638 30.7255C26.686 29.3266 26.4663 27.3228 27.1062 26.1096C27.0834 25.9398 26.8443 25.9875 26.6755 25.9645C26.737 25.7877 26.8583 25.6692 27.1062 25.6763C28.0749 24.4878 27.9958 22.2417 28.9715 21.0585C28.9715 20.772 28.5795 20.8764 28.685 20.482C29.7873 17.5992 30.3991 14.223 31.6965 11.5366C32.1237 11.5348 32.1853 11.1617 32.558 11.1033C32.1132 10.5144 32.6248 9.89182 32.9887 9.66014C32.6793 8.35494 33.1206 6.8605 32.7021 5.18744C33.1381 5.04419 33.6937 4.26779 34.2809 4.75414C34.5499 4.15813 35.5572 4.30846 35.5713 3.45601C36.9584 3.36051 37.0006 1.91206 38.2963 1.72459C39.0048 1.42747 38.604 0.0143868 39.5867 -0.00683594C39.3177 1.2736 39.9419 1.65562 40.5906 2.01287C40.6609 2.9502 40.1018 3.2544 39.8733 3.88754C40.0139 4.0361 40.1581 4.17936 40.304 4.32084C40.9193 7.70411 41.0582 11.0891 43.029 13.4113C44.5058 14.2336 44.7484 16.2976 46.6137 16.7291C47.7178 18.6002 49.1541 20.1371 50.9175 21.3468C51.1073 22.5919 52.8179 22.9368 52.6386 24.0881C54.1435 24.4506 55.0507 25.4127 55.7943 26.5411C56.3745 26.1308 55.4691 26.0176 55.5078 25.6763C55.6959 25.6409 56.8316 24.4719 55.7943 24.2331C55.884 23.6017 56.4993 23.5009 56.7982 23.0782C56.4765 22.2753 57.2307 20.6571 57.802 19.9037C58.0411 19.5889 58.02 18.747 58.2328 18.4605C58.3804 18.2589 58.8182 18.342 58.9501 18.1722C59.4282 17.555 59.2278 16.9555 60.2405 16.7291C60.8224 16.6 60.6958 16.0889 61.5309 16.1525C61.9229 16.1826 62.2411 16.4921 62.5347 16.4408C62.6631 16.3771 62.7914 16.3135 62.8213 16.1525C62.7246 15.8165 62.5629 15.5459 62.104 15.5742C62.475 15.0348 62.6033 14.2478 63.5386 14.2761V15.2859C62.8248 15.2665 63.0674 15.6626 63.1079 16.1508C63.9939 15.8713 65.0083 14.7342 64.3983 13.841C64.175 14.17 64.0994 14.1134 63.6828 13.986C63.3435 12.7304 64.6286 13.1106 65.2598 12.8312C65.3441 12.6968 64.9275 12.0229 65.4022 11.6781C65.9366 11.6692 66.3093 11.8231 66.6926 11.9663C66.6469 11.6286 66.4658 11.4252 66.5502 10.9565C67.5716 10.7248 67.8968 9.84407 68.7003 9.80162C69.1292 9.77863 69.2259 10.2455 69.7041 10.0899C70.1718 9.93604 70.4478 8.61845 71.5677 8.50173C71.5835 6.71725 72.8792 6.0222 74.5792 6.33878C75.1612 5.52877 77.2181 5.43681 77.1618 4.4641C79.2592 4.05909 77.5574 0.72535 80.46 1.1445C80.947 3.05809 80.7518 5.65965 81.4638 7.34863C81.4867 7.51664 81.7258 7.47066 81.8946 7.49188C81.6941 8.59723 81.826 9.25337 82.1811 9.80162C81.5799 9.72558 81.6115 10.288 81.4638 10.6665C81.4849 10.9813 81.826 10.976 82.1811 10.9547C82.2057 11.3633 82.0581 11.9434 82.4677 11.9646C82.2462 12.3625 81.608 11.9787 81.4638 11.8213C81.2493 13.3635 81.5113 14.6404 81.608 15.5725C81.9719 15.4433 81.6853 16.0783 82.1811 16.1508C81.9385 16.5239 81.55 15.8342 81.4638 15.5725C81.165 15.9509 81.0349 16.7397 81.7504 16.7273C81.6361 17.1907 81.23 17.3569 81.0331 17.7372C81.0489 18.105 81.2968 18.2412 81.4638 18.4587C81.172 18.6444 81.1017 19.0548 80.7465 19.1803C80.6657 21.7996 79.8341 23.1596 79.7409 26.8276C80.8872 26.3448 82.4413 26.274 82.6101 24.8079C84.3752 24.1235 84.6371 22.3991 85.7658 21.345C85.9416 21.6705 86.5939 21.4618 87.0562 21.0568C88.5383 19.7569 90.6638 16.8158 92.0755 15.5742C91.8259 18.5012 89.8744 20.956 88.3466 23.0765C88.5453 23.2604 88.4345 23.7574 88.6332 23.9431C86.9806 26.4668 86.1983 29.8607 83.1832 31.012C82.9283 31.4294 82.8017 31.9741 82.1794 32.0219V32.8867H81.4621C81.8137 34.443 80.2455 34.0663 80.314 35.3397C79.1045 35.9675 78.6667 36.7351 78.0198 38.081C77.4783 38.1623 77.0985 38.4064 77.1583 39.0908C77.1337 39.4039 77.6664 39.1563 77.8756 39.2359C78.2694 38.7654 78.4224 38.0544 79.0236 37.7927C79.6495 37.7396 79.9097 38.0544 80.1699 38.3693C80.3756 38.1906 80.4424 37.8723 80.4565 37.5027C81.6924 38.0244 81.7486 36.0613 83.0373 36.6378C84.9079 34.9612 86.9824 33.488 89.4911 32.4534C89.6986 32.2765 89.7092 31.9016 89.9219 31.7318C91.0787 31.8185 91.7626 30.8882 92.7893 31.2985C92.9967 31.1217 93.0073 30.7485 93.22 30.577C94.1641 30.8935 95.2576 30.0075 95.3719 29.5671C96.5462 28.8473 97.9896 27.7154 99.3873 27.6907C99.985 26.7215 101.028 26.7763 102.112 26.5358C102.205 26.9708 102.675 27.0274 102.83 27.4024C103.448 27.3511 103.373 26.6048 104.264 26.8258C104.64 26.2917 104.853 25.5896 105.555 25.3827C105.553 25.8655 105.917 25.9787 106.128 26.2493C107.181 26.1326 108.149 25.2341 108.997 25.3827C108.897 26.3501 108.508 26.3253 107.849 26.5358C107.939 27.8304 106.917 28.0037 105.985 28.2672C106.112 28.6209 106.414 28.7978 106.272 29.4221C105.618 29.293 105.692 29.8961 105.555 30.2869C103.881 31.5426 101.979 31.8521 99.9604 32.8849C99.5877 33.1042 99.222 33.8771 98.67 33.4615C97.1141 34.0964 96.4285 35.246 94.6528 35.1929C94.0973 35.8384 93.1655 36.8677 92.072 36.491C90.5354 37.2533 89.2028 39.296 87.4817 37.9342C87.0721 37.9554 87.2197 38.5355 87.1951 38.944C86.5112 38.8326 86.3477 39.2447 86.3337 39.8106C85.0257 39.6833 84.8235 40.8205 84.1818 40.9637C83.4663 40.2457 84.6002 40.8169 84.4684 39.9539C83.7757 39.2695 83.4504 40.7745 82.7472 40.0989C82.1319 41.2113 80.6481 41.4501 79.4473 41.9754C79.3454 42.4157 79.595 42.5006 79.5915 42.8402C79.1871 43.2982 78.2782 43.2505 78.3011 44.1383C77.6031 44.2639 77.35 43.9402 76.8665 43.85C76.7821 44.1878 75.9945 44.9572 75.7185 44.4266C75.6481 44.9801 74.9361 44.89 75.0012 45.5815C74.5089 44.9218 74.0079 45.8644 73.7108 45.2932C73.5947 45.3215 73.5684 45.4382 73.4242 45.4364C73.4312 45.914 74.0096 46.2482 73.5684 46.7346C73.3609 46.7027 73.5174 46.3048 73.2818 46.3013C72.9759 46.5223 72.8669 46.9415 72.7087 47.3111C72.2568 47.4721 72.3834 47.3235 71.8472 47.3111C71.4833 47.4756 71.4305 47.9513 71.4165 48.4642C70.6043 48.1972 70.6289 49.2954 70.2685 49.6191C68.5649 49.7005 69.2523 51.2232 68.6915 51.9271C68.855 52.0226 69.4457 52.0615 69.1222 52.6486C68.7653 52.6716 68.6774 52.4223 68.4049 52.3604C67.7333 52.967 68.3328 53.6603 68.4049 54.0918C66.8402 54.923 65.9823 56.4634 64.6761 57.5546C64.5495 57.8518 65.0488 58.2019 65.105 57.8429L65.1138 57.8553ZM57.3696 20.7756V21.3521C58.1501 21.4158 58.4244 20.9701 58.66 20.4855C57.6104 20.581 58.384 21.3344 57.3696 20.7738V20.7756ZM39.2984 3.60634C38.9046 3.20665 38.6989 3.73545 38.2946 3.7496C38.2119 3.49669 38.4686 2.90245 38.1504 2.88477C37.9693 3.23141 37.9658 3.75844 37.7214 4.03964C38.2858 3.80796 37.7706 4.66218 38.1504 4.61619C38.2805 4.36152 38.4721 4.16875 38.7253 4.03964C38.8659 4.18643 39.0083 4.33145 39.156 4.47294C39.1876 4.35975 39.2756 4.30493 39.4426 4.32792C39.5762 3.93706 38.5583 3.99012 39.156 3.60634C39.156 3.68593 39.272 3.77082 39.3002 3.60634H39.2984ZM59.6638 24.67C59.3403 25.8354 58.9448 26.9284 58.2292 27.6995C57.6227 27.3953 56.8175 27.2927 56.7947 26.4014C56.6663 26.6578 56.3938 26.7692 56.5081 27.268C56.7226 27.2927 57.0373 27.2167 57.0812 27.4112C57.4539 28.4794 58.3154 29.056 58.5158 30.2975C60.4005 33.3554 63.5808 37.1259 63.6792 41.9842C63.6564 42.2513 63.1923 42.0726 63.1044 42.2725C63.2591 42.9604 63.4788 43.0277 63.5351 43.5706C63.8058 43.3159 63.3382 43.1249 63.8216 42.994C63.7285 44.8263 64.3737 45.7566 64.5389 47.61C65.9999 47.9496 65.6518 46.112 66.9774 46.7452C67.0987 46.2093 67.4995 45.7972 68.1236 46.1686C68.7056 45.035 67.9197 44.2338 67.6929 43.1391C68.5016 42.826 68.4172 42.2849 69.2716 42.5625C69.4879 41.8657 70.323 41.7932 70.1331 40.6861C70.3019 40.3271 71.0403 40.541 71.137 40.1095C70.5234 39.059 72.8423 38.7194 73.1447 37.6565C72.9144 37.2356 72.4063 37.8864 72.285 37.5133C72.0705 35.9445 74.9467 36.1975 73.8637 34.0504C76.863 31.6275 76.7294 25.6303 77.8791 21.7872C77.0317 17.8875 78.8056 14.5502 78.0233 10.8221C78.7089 9.98202 78.7582 8.72103 78.7406 7.50249C77.96 7.37515 78.0233 6.39714 76.8753 6.63766C76.6256 7.1081 76.4393 7.64221 75.8714 7.79254C75.7571 8.29304 76.0859 8.34787 76.0156 8.80239C75.3124 9.53811 74.3419 10.005 73.8637 10.9671C73.2291 11.0361 73.1517 10.769 72.7175 10.9671C72.5522 11.533 72.6858 11.503 72.5733 12.1202C71.7997 12.1591 71.8455 13.0239 71.2829 13.2751C71.0578 13.2132 71.1616 12.8223 70.7097 12.9868C69.5617 14.0444 68.5174 15.2064 67.554 16.4497C67.1145 16.554 67.1321 16.2003 66.6926 16.3064C66.566 18.2766 64.9749 18.4039 64.11 19.336C64.052 19.1556 63.9254 19.0424 63.681 19.0477C63.3329 19.8205 62.9831 21.1434 62.3888 21.2124C61.9599 22.2718 61.014 24.0598 59.6638 24.6753V24.67ZM37.7214 14.8597C39.4004 13.9206 36.7211 13.3405 36.1427 12.5517C36.3097 12.527 36.2991 12.3236 36.2851 12.1184C36.9514 12.2599 37.1518 11.9327 37.5755 11.8302C37.5034 11.1334 37.2626 10.6063 36.8582 10.242C37.1993 9.91304 37.5931 9.63538 37.7179 9.08889C37.3944 8.83599 37.3874 8.26651 36.8582 8.22406C36.5892 8.8183 36.162 9.25514 35.5678 9.52219C35.1195 10.8999 34.4426 12.0442 33.8466 13.2733C33.8097 15.3054 33.2507 16.8104 32.5562 18.1793C33.7253 19.4651 32.7988 21.651 32.2697 23.5186C32.4156 23.7078 32.4103 24.051 32.5562 24.2402C31.5664 27.1283 32.5668 30.982 32.1255 33.3288C32.2661 33.9567 32.6863 34.3033 32.5562 35.2053C32.3312 35.2177 32.0587 35.1858 32.1255 35.4936C32.1413 36.392 33.1452 36.2947 33.4159 36.9367C33.4089 37.1596 32.6617 36.889 32.4121 37.225C32.9078 37.6601 32.7742 37.9483 32.5562 38.5231C33.1856 39.1881 32.4824 39.8053 32.4121 40.5428C32.3875 40.7957 32.6723 41.1866 32.6986 41.5527C32.8428 43.5706 32.7215 47.4544 33.4159 46.7469C33.1452 47.9814 34.1525 47.9301 34.4198 48.6234C33.0116 51.2568 35.8438 55.0168 33.4159 56.704C33.7113 56.8879 34.1438 56.9339 34.1332 57.4238C33.3245 57.3336 32.4173 57.8235 31.5506 57.5688C31.2394 57.9137 31.1726 58.6635 31.4082 59.1552C26.1094 61.4508 22.2874 65.4584 17.7832 67.8123C17.465 67.7009 17.2241 67.5099 16.7794 67.524C17.0132 69.641 15.2059 68.8204 14.6275 70.1203C14.2548 69.7878 13.6781 70.1256 13.3371 70.2653C13.1261 70.9108 13.7572 70.7092 13.6236 71.2752C12.5196 72.1135 11.9746 74.0341 10.6121 74.1597C10.1198 75.8664 8.44965 76.8656 7.45634 77.6226C7.57237 78.1231 7.24362 78.1761 7.31394 78.6324C8.1121 78.9843 9.1476 79.094 9.75237 79.6423C9.83325 79.0816 12.0308 78.7226 11.9042 79.354C12.7481 78.7261 13.2333 79.9128 14.0561 79.354C14.2565 79.3911 14.2196 79.6706 14.3427 79.7873C17.1169 79.4123 20.8335 79.9765 23.0926 79.6423C23.5497 80.6663 24.8876 80.0968 25.6734 79.9305C25.531 80.6291 26.2395 80.9881 26.5349 80.7971C26.5806 80.1498 26.0567 80.1551 26.1059 79.209C26.5929 78.8605 27.4526 79.1329 27.827 79.354C28.5039 78.5422 29.6519 78.8181 30.552 79.209C31.0003 78.6501 31.4908 78.1337 31.9866 77.6226C31.9901 77.283 31.7387 77.1981 31.8425 76.756C32.4314 76.2413 33.4511 76.1617 33.9943 75.6011C33.7781 75.143 33.7781 74.4268 34.425 74.4462C34.3037 74.7398 34.5499 75.3429 34.7116 74.8795C34.6237 74.8707 34.5411 74.8583 34.5675 74.7363C35.6258 73.065 37.0534 72.2638 38.0097 69.9753C38.2559 69.9187 38.3772 70.1893 38.4405 69.9753C38.9978 68.1307 42.0269 67.524 43.1732 65.7909C42.8813 65.0799 43.509 63.7782 44.4636 63.4811C44.4601 63.1415 44.7115 63.0566 44.6078 62.6163C45.4077 61.3128 47.2449 61.5233 48.1925 60.8849C49.4477 60.0395 49.7325 57.4079 51.6347 57.9986C51.844 56.9127 53.428 56.4741 54.0732 55.4005C56.3534 54.7126 55.9807 51.3558 59.2366 51.6494C59.1188 52.2012 59.5425 52.2083 59.8097 52.371C61.7928 50.4026 61.8034 47.0016 60.6712 44.1472C62.3027 42.6952 58.5721 41.1954 59.3808 39.2412C58.3295 38.4241 57.1586 37.7255 57.2289 35.7783C56.545 35.7925 56.5731 35.0903 55.9385 35.0567C55.8436 34.1901 55.1333 33.9425 55.2212 32.892C53.6495 31.7336 52.2501 30.3966 51.6347 28.2743C50.768 27.9436 49.8204 27.696 49.9136 26.3978C48.247 25.625 46.4731 25.2129 46.3289 23.08C45.4059 23.3913 45.1106 22.1161 44.177 22.5035C43.7428 21.9481 43.5969 20.5987 43.4597 20.1937C43.3929 20.2521 42.4893 19.9267 42.7425 19.1839C41.4837 18.4305 40.4798 17.4206 39.4426 16.4426V15.2895C39.8944 15.454 39.7907 15.0631 40.0157 15.0012C39.7995 14.3734 39.5797 14.3079 39.2984 13.9914C39.1947 14.9322 38.7042 16.7167 37.7214 14.858V14.8597ZM37.8638 9.3754C38.284 9.1614 38.3965 9.53811 38.5811 9.08712C38.2822 8.77055 38.117 9.21446 37.8638 8.94387V9.3754ZM59.0907 23.3718H59.6638C59.6884 23.011 59.3439 23.0216 59.2349 22.7935C59.1891 22.9898 59.0309 23.0694 59.0907 23.3718ZM101.114 28.7094C101.077 28.2884 101.439 28.2672 101.4 27.8445C100.917 27.6606 100.808 28.5749 101.114 28.7094ZM86.6273 35.7801C87.2039 35.8349 86.9789 35.872 87.4887 36.0683C87.3516 35.437 87.2654 34.7525 86.6273 34.6252C86.3214 35.0726 86.9138 35.4211 86.6273 35.7801ZM85.0503 36.5016C85.2349 36.2063 85.8555 36.3496 85.91 35.9233C85.5601 35.4918 84.4631 36.0188 85.0503 36.5016ZM84.6196 39.3862C85.0221 39.4074 85.0327 39.0325 85.0503 38.6646C84.6072 38.6398 84.4051 39.1722 84.6196 39.3862ZM79.7427 40.541C79.4966 40.3554 79.1783 40.2422 79.1696 39.8195C79.2575 39.8124 79.3383 39.7965 79.312 39.6745C78.8302 39.5259 79.0887 40.1237 79.0254 40.396C79.2065 40.4261 79.7269 40.8152 79.7409 40.541H79.7427ZM66.406 54.3907C66.791 54.3818 67.0952 54.0617 66.835 53.8141C66.457 53.7699 66.4658 54.1148 66.406 54.3907ZM38.5829 69.9735C38.4668 70.474 38.7956 70.5288 38.7253 70.9834C39.1894 70.7764 39.4566 70.3732 39.5867 69.8285C39.4619 69.618 39.3722 69.3704 39.0118 69.397C39.1367 69.8586 38.7921 69.8479 38.5829 69.9735ZM53.2117 72.1382C53.1502 71.8623 53.159 71.5157 52.781 71.5599C52.7406 71.9366 52.7335 72.2833 53.2117 72.1382ZM34.5675 77.9091C35.5572 77.6013 35.5625 76.6109 35.4289 75.6011C35.0351 75.7815 34.7327 76.0556 34.7116 76.6109C34.7995 76.8108 35.2636 76.6322 35.2847 76.8992C34.7485 76.9363 34.7292 77.4934 34.5675 77.9091Z" fill="#BCDB79"/>
<path fill-rule="evenodd" clip-rule="evenodd" d="M36.5729 33.7599C37.1741 33.7794 36.5957 32.6616 36.7153 31.8835C35.1576 31.8905 35.4073 29.2784 35.7114 28.2774H36.4287C36.6168 27.7468 36.7522 27.1614 36.7153 26.4009C37.8545 27.3347 38.1832 25.6546 38.8671 25.2478C39.3875 25.4459 39.9079 25.644 40.3017 25.9694C40.6516 26.0507 41.2335 25.2549 41.3056 25.9694C41.4954 25.697 41.4269 25.3115 41.3056 24.8163C41.7591 24.5086 42.7278 24.1124 42.4518 24.8163C43.5155 24.7668 43.3572 24.5457 43.8864 24.6713C43.6702 25.2708 43.3045 25.7218 42.7401 25.9694C43.0425 25.5732 42.552 25.7483 42.3094 25.8261C42.8808 26.1162 42.5854 27.2799 42.8826 27.8458C43.2394 27.8671 43.4785 27.7716 43.5998 27.5576C43.2676 27.1614 43.635 26.9545 43.0267 26.836C43.243 26.668 43.3783 26.4186 43.744 26.4027C43.8003 28.3994 43.3291 29.1263 42.8843 30.4421C42.9019 30.7604 43.4926 30.504 43.744 30.5871C43.744 32.17 44.2468 33.0861 43.744 34.4833C43.4188 34.3294 43.6895 33.576 43.5998 33.1851C42.4852 33.8961 44.0271 35.3322 43.1709 36.0714C44.1062 39.2584 44.6863 43.8973 44.892 47.1798C44.449 46.1664 43.2078 47.7687 41.5921 47.3248C41.1157 46.4582 40.8766 45.0752 39.4403 45.5934C39.1959 43.1298 37.0387 40.7511 37.2884 37.8029C37.357 37.3501 36.928 37.3961 36.7153 37.2245C36.8876 35.9441 36.8366 34.9289 36.5729 33.7617V33.7599ZM38.5806 38.0894V37.5128C38.2237 37.7003 37.9846 37.0901 37.8633 37.5128C38.1498 37.6578 38.3661 37.8736 38.5806 38.0894Z" fill="#BCDB79"/>
<path fill-rule="evenodd" clip-rule="evenodd" d="M37.8626 53.3825C37.7202 53.1986 38.1334 52.9121 37.8626 52.3727C38.1158 52.6397 38.2811 52.3108 38.5799 52.2294C38.4973 51.5574 37.9048 52.2347 37.8626 51.6511C37.5462 51.6688 37.8011 52.263 37.7202 52.5159C37.1348 52.6238 37.2262 52.0508 36.5722 52.2277C36.1907 50.0965 33.7734 48.7171 35.8549 47.1766C36.2171 47.3111 36.9326 47.548 36.7164 46.7433C37.7976 46.715 38.5993 46.9662 39.0106 47.6082C39.5258 47.6453 39.5363 47.1749 40.0145 47.1749C40.1323 48.1158 40.4962 48.8073 41.0184 49.3396C41.4596 49.4475 41.1942 48.8426 41.7356 49.0513C41.806 50.5493 41.602 51.4884 41.4491 52.8025C40.0883 52.5389 39.6523 53.6107 38.2934 53.669C38.049 53.3065 38.1439 52.8697 37.8626 53.3808V53.3825Z" fill="#BCDB79"/>
<path fill-rule="evenodd" clip-rule="evenodd" d="M30.6926 66.0791C32.2239 66.4629 33.509 67.0943 34.9963 67.5223C35.7189 69.2148 34.323 70.4881 32.8445 70.8401C32.79 71.376 33.4264 71.2168 33.2752 71.8499C32.5526 72.094 32.7724 71.3919 32.5579 71.1284C31.8441 71.3636 31.5207 71.7686 31.5541 72.4265C31.4363 72.0639 30.9001 72.1241 30.406 72.1382C30.0984 72.5485 30.1722 73.3444 29.8329 73.7246C28.9609 74.4073 28.5109 74.1561 27.3945 74.4462C26.5084 74.6761 26.2201 75.5303 25.2444 75.1678C24.4761 75.64 23.6533 75.8416 22.8059 75.456C22.5229 75.5551 22.4244 75.8416 22.3752 76.1776C20.3622 76.8514 18.1348 74.425 19.6502 72.5715C19.7451 72.0427 19.339 72.0179 19.3636 71.5617C19.9667 70.7941 20.5873 70.8436 21.6597 70.6968C24.0999 68.7355 26.468 67.5665 30.552 67.234C30.726 66.6114 30.5203 66.7016 30.6944 66.0791H30.6926Z" fill="#BCDB79"/>
<path fill-rule="evenodd" clip-rule="evenodd" d="M69.8469 24.0949C69.9014 25.409 69.9999 27.6091 70.2776 29.1442C70.0526 29.2078 70.1546 29.5987 69.7045 29.4324C70.3515 29.9949 69.0786 30.7129 68.7007 31.1639C68.0836 31.0631 67.4313 30.7235 66.8371 31.0189C66.2833 28.8807 66.9742 25.7591 67.9851 23.6616H68.4159C68.7552 24.0206 69.1472 23.7978 69.8504 24.0949H69.8469Z" fill="#BCDB79"/>
<path fill-rule="evenodd" clip-rule="evenodd" d="M51.2013 33.0402C52.5849 33.9386 54.1057 36.1352 53.6398 37.9462C54.0195 38.4803 54.2217 39.1877 54.4995 39.8226C53.8841 39.8279 53.8929 40.4611 53.209 40.3992C53.1545 40.7564 53.9 41.0323 53.9263 40.8325C54.0406 41.7362 52.8856 41.3648 52.6359 42.1306C52.4197 42.7938 52.5005 43.786 52.6359 44.2953C52.6799 44.458 53.2196 45.0328 53.209 45.1602C53.1493 45.8534 51.9257 46.2708 51.9186 47.0348C50.644 46.9075 50.0621 47.4752 49.6244 48.1897C49.2042 47.7812 48.6521 47.9085 48.1898 48.1897C47.3125 46.7961 48.2671 45.3476 47.4725 44.4386C47.752 43.9505 47.4426 42.8681 48.0456 42.7072C48.3779 39.9482 45.8023 37.4899 47.1842 34.05C47.8874 34.0889 48.1757 34.2269 48.7629 34.6266C49.656 33.8573 49.0424 30.9126 51.0572 31.7421C51.1011 32.1807 51.5916 32.6051 51.2013 33.0402ZM51.3455 39.2443C51.2822 38.8835 51.3244 38.0293 50.9148 38.6678C51.5951 38.4785 50.5843 39.354 51.3455 39.2443Z" fill="#BCDB79"/>
</g>
<defs>
<clipPath id="clip0_295_1708">
<rect width="109" height="86" fill="white"/>
</clipPath>
</defs>
</svg>
