<?xml version="1.0" encoding="UTF-8"?><svg id="Layer_1" xmlns="http://www.w3.org/2000/svg" viewBox="0 0 150 150"><defs><style>.cls-1{fill:#d50000;}</style></defs><path class="cls-1" d="m54.62,74.31s-4.22,21.11-34.62,33.78c0,0,32.09-6.76,34.62-20.03,3.38,13.28,34.62,20.03,34.62,20.03-30.4-12.67-34.62-33.78-34.62-33.78Z"/><path class="cls-1" d="m90.93,54.05s-5.91,26.18-29.56,41.38c0,0,18.58-3.38,29.56-16.65,12.67,19.19,43.07,28.48,43.07,28.48-30.4-12.67-43.07-53.2-43.07-53.2Z"/><circle class="cls-1" cx="47.8" cy="62.18" r="4.12"/><path class="cls-1" d="m40.36,78.35c-.4.77.06,1.7.92,1.85l1.23.21c.57-.03,1.39.76,1.7,1.25l1.83,3.46c.52.83.78.6,1.76.59,3.61-.04-.11,3.16-1.76,4.12-1.35.78-2.8-3.62-3.54-5.41-.26-.64-.93-1.01-1.61-.92l-3.7-.41c-.2-.02-.41,0-.59.07-.47.2-.79.67-.8,1.2l-1.46,11.97c-.01.58.35,1.08.88,1.29,1.11.43,1.28.98,1.18,1.42s-.51.78-.97.88c-7.17,1.52-4.58-3.44-3.86-5.7.6-1.88.86-10.41.93-13.53,0-.23.07-.45.19-.64l8.58-13.88c.36-.59,1.12-.78,1.72-.44l1.98,1.13c.6.34.82,1.09.5,1.7l-5.11,9.79Z"/><rect class="cls-1" x="34.49" y="50.2" width="2.56" height="35.67" rx="1.16" ry="1.16" transform="translate(41.23 -8.64) rotate(31.8)"/><rect class="cls-1" x="33.56" y="45.46" width="2.56" height="36.72" rx="1" ry="1" transform="translate(38.86 -8.78) rotate(31.8)"/><rect class="cls-1" x="29.03" y="39.93" width="6.35" height="37.65" rx="2.59" ry="2.59" transform="translate(35.8 -8.15) rotate(31.8)"/><rect class="cls-1" x="32.62" y="65.76" width="5.29" height="14.95" transform="translate(43.89 -7.59) rotate(31.8)"/><path class="cls-1" d="m54.86,71c.57-.34,1.07.77-.59,1.76-2.94,1.77-5.62,1.65-5.62,1.65,0,0-6.14-1.06-6.73-4l1.79-1.85s2.92,3.03,5.27,3.62c0,0,2.94.59,5.88-1.18Z"/></svg>