<svg width="24" height="24" viewBox="0 0 24 24" fill="none" xmlns="http://www.w3.org/2000/svg">
<path fill-rule="evenodd" clip-rule="evenodd" d="M5.28003 9.76059V7.51995C5.28003 6.28301 6.28277 5.28027 7.51971 5.28027H16.4794C17.0735 5.28001 17.6435 5.51588 18.0637 5.93592C18.484 6.35597 18.72 6.92579 18.72 7.51995V9.76059H5.28003Z" stroke="#9393B0" stroke-width="1.44" stroke-linecap="round" stroke-linejoin="round"/>
<path d="M6.00006 9.76087C6.00006 9.36322 5.6777 9.04087 5.28006 9.04087C4.88242 9.04087 4.56006 9.36322 4.56006 9.76087H6.00006ZM19.4401 15.3605C19.4401 14.9629 19.1177 14.6405 18.7201 14.6405C18.3224 14.6405 18.0001 14.9629 18.0001 15.3605H19.4401ZM19.4401 9.76087C19.4401 9.36322 19.1177 9.04087 18.7201 9.04087C18.3224 9.04087 18.0001 9.36322 18.0001 9.76087H19.4401ZM18.0001 15.3605C18.0001 15.7582 18.3224 16.0805 18.7201 16.0805C19.1177 16.0805 19.4401 15.7582 19.4401 15.3605H18.0001ZM18.7201 16.0805C19.1177 16.0805 19.4401 15.7582 19.4401 15.3605C19.4401 14.9629 19.1177 14.6405 18.7201 14.6405V16.0805ZM12.0001 14.6405C11.6024 14.6405 11.2801 14.9629 11.2801 15.3605C11.2801 15.7582 11.6024 16.0805 12.0001 16.0805V14.6405ZM11.2801 9.76087C11.2801 10.1585 11.6024 10.4809 12.0001 10.4809C12.3977 10.4809 12.7201 10.1585 12.7201 9.76087H11.2801ZM12.7201 5.28055C12.7201 4.88291 12.3977 4.56055 12.0001 4.56055C11.6024 4.56055 11.2801 4.88291 11.2801 5.28055H12.7201ZM4.56006 9.76087V15.3605H6.00006V9.76087H4.56006ZM4.56006 15.3605C4.56006 17.6139 6.38674 19.4405 8.64006 19.4405V18.0005C7.18203 18.0005 6.00006 16.8186 6.00006 15.3605H4.56006ZM8.64006 19.4405H15.3601V18.0005H8.64006V19.4405ZM15.3601 19.4405C17.6134 19.4405 19.4401 17.6139 19.4401 15.3605H18.0001C18.0001 16.8186 16.8181 18.0005 15.3601 18.0005V19.4405ZM18.0001 9.76087V15.3605H19.4401V9.76087H18.0001ZM18.7201 14.6405H12.0001V16.0805H18.7201V14.6405ZM12.7201 9.76087V5.28055H11.2801V9.76087H12.7201Z" fill="#9393B0"/>
</svg>
