<svg width="24" height="24" viewBox="0 0 24 24" fill="none" xmlns="http://www.w3.org/2000/svg">
<path d="M15.0574 3.7998C16.3227 3.7998 17.3483 4.82547 17.3483 6.09069C17.3483 6.51242 17.0064 6.85431 16.5847 6.85431C16.1629 6.85431 15.8211 6.51242 15.8211 6.09069C15.8211 5.66895 15.4792 5.32706 15.0574 5.32706H5.89391C5.47217 5.32706 5.13028 5.66895 5.13028 6.09069V18.3087C5.13028 18.7305 5.47217 19.0724 5.89391 19.0724H15.0574C15.4792 19.0724 15.8211 18.7305 15.8211 18.3087V17.5451C15.8211 17.1233 16.1629 16.7815 16.5847 16.7815C17.0064 16.7815 17.3483 17.1233 17.3483 17.5451V18.3087C17.3483 19.574 16.3227 20.5996 15.0574 20.5996H5.89391C4.62869 20.5996 3.60303 19.574 3.60303 18.3087V6.09069C3.60303 4.82547 4.62869 3.7998 5.89391 3.7998H15.0574Z" fill="#9393B0"/>
<path fill-rule="evenodd" clip-rule="evenodd" d="M18.7219 9.29858C18.493 9.06963 18.1218 9.06963 17.8928 9.29858L11.939 15.2525C11.8264 15.3649 11.7518 15.5099 11.7257 15.6669L11.6001 16.4204L12.3536 16.2948C12.5106 16.2687 12.6556 16.1941 12.7681 16.0816L18.7219 10.1277C18.9509 9.89876 18.9509 9.52754 18.7219 9.29858ZM16.8128 8.21866C17.6382 7.39327 18.9765 7.39326 19.8019 8.21865C20.6272 9.04405 20.6272 10.3823 19.8019 11.2077L13.8481 17.1615C13.5104 17.4991 13.0757 17.7228 12.6047 17.8013L11.8512 17.9269C10.8175 18.0992 9.92133 17.2031 10.0936 16.1693L10.2192 15.4158C10.2977 14.9448 10.5214 14.5101 10.859 14.1725L16.8128 8.21866Z" fill="#9393B0"/>
<path d="M6.65723 8.38179C6.65723 7.96006 6.99912 7.61816 7.42085 7.61816H13.5299C13.9516 7.61816 14.2935 7.96006 14.2935 8.38179C14.2935 8.80353 13.9516 9.14542 13.5299 9.14542H7.42085C6.99912 9.14542 6.65723 8.80353 6.65723 8.38179Z" fill="#9393B0"/>
<path d="M6.65723 11.4365C6.65723 11.0147 6.99912 10.6729 7.42085 10.6729H10.4754C10.8971 10.6729 11.239 11.0147 11.239 11.4365C11.239 11.8582 10.8971 12.2001 10.4754 12.2001H7.42085C6.99912 12.2001 6.65723 11.8582 6.65723 11.4365Z" fill="#9393B0"/>
<path d="M6.65723 14.4902C6.65723 14.0684 6.99912 13.7266 7.42085 13.7266H8.18448C8.60622 13.7266 8.94811 14.0684 8.94811 14.4902C8.94811 14.9119 8.60622 15.2538 8.18448 15.2538H7.42085C6.99912 15.2538 6.65723 14.9119 6.65723 14.4902Z" fill="#9393B0"/>
</svg>
