<svg width="18" height="18" viewBox="0 0 18 18" fill="none" xmlns="http://www.w3.org/2000/svg">
<path fill-rule="evenodd" clip-rule="evenodd" d="M9.00089 13.909C11.7121 13.909 13.91 11.7111 13.91 8.99991C13.91 6.28869 11.7121 4.09082 9.00089 4.09082C6.28967 4.09082 4.0918 6.28869 4.0918 8.99991C4.0918 11.7111 6.28967 13.909 9.00089 13.909ZM9.00089 12.2726C10.8083 12.2726 12.2736 10.8074 12.2736 8.99991C12.2736 7.19243 10.8083 5.72718 9.00089 5.72718C7.19341 5.72718 5.72816 7.19243 5.72816 8.99991C5.72816 10.8074 7.19341 12.2726 9.00089 12.2726Z" fill="#9393B0"/>
<path d="M13.91 3.27295C13.4581 3.27295 13.0918 3.63927 13.0918 4.09113C13.0918 4.543 13.4581 4.90931 13.91 4.90931C14.3619 4.90931 14.7282 4.543 14.7282 4.09113C14.7282 3.63927 14.3619 3.27295 13.91 3.27295Z" fill="#9393B0"/>
<path fill-rule="evenodd" clip-rule="evenodd" d="M0.535058 2.68041C0 3.73052 0 5.1052 0 7.85455V10.1455C0 12.8948 0 14.2695 0.535058 15.3196C1.00571 16.2433 1.7567 16.9943 2.68041 17.4649C3.73052 18 5.1052 18 7.85455 18H10.1455C12.8948 18 14.2695 18 15.3196 17.4649C16.2433 16.9943 16.9943 16.2433 17.4649 15.3196C18 14.2695 18 12.8948 18 10.1455V7.85455C18 5.1052 18 3.73052 17.4649 2.68041C16.9943 1.7567 16.2433 1.00571 15.3196 0.535058C14.2695 0 12.8948 0 10.1455 0H7.85455C5.1052 0 3.73052 0 2.68041 0.535058C1.7567 1.00571 1.00571 1.7567 0.535058 2.68041ZM10.1455 1.63636H7.85455C6.45287 1.63636 5.50002 1.63764 4.76352 1.69781C4.04611 1.75642 3.67923 1.86266 3.42331 1.99307C2.8075 2.30684 2.30684 2.8075 1.99307 3.42331C1.86266 3.67923 1.75642 4.04611 1.69781 4.76352C1.63764 5.50002 1.63636 6.45287 1.63636 7.85455V10.1455C1.63636 11.5472 1.63764 12.4999 1.69781 13.2365C1.75642 13.9539 1.86266 14.3208 1.99307 14.5767C2.30684 15.1925 2.8075 15.6931 3.42331 16.0069C3.67923 16.1373 4.04611 16.2436 4.76352 16.3022C5.50002 16.3623 6.45287 16.3636 7.85455 16.3636H10.1455C11.5472 16.3636 12.4999 16.3623 13.2365 16.3022C13.9539 16.2436 14.3208 16.1373 14.5767 16.0069C15.1925 15.6931 15.6931 15.1925 16.0069 14.5767C16.1373 14.3208 16.2436 13.9539 16.3022 13.2365C16.3623 12.4999 16.3636 11.5472 16.3636 10.1455V7.85455C16.3636 6.45287 16.3623 5.50002 16.3022 4.76352C16.2436 4.04611 16.1373 3.67923 16.0069 3.42331C15.6931 2.8075 15.1925 2.30684 14.5767 1.99307C14.3208 1.86266 13.9539 1.75642 13.2365 1.69781C12.4999 1.63764 11.5472 1.63636 10.1455 1.63636Z" fill="#9393B0"/>
</svg>
