<svg width="197" height="135" viewBox="0 0 197 135" fill="none" xmlns="http://www.w3.org/2000/svg">
<path d="M157.045 65.5566C157.045 66.8587 157.696 68.1608 158.998 69.4629C160.3 70.765 161.602 71.416 162.904 71.416C174.298 71.416 182.68 73.6133 188.051 78.0078C193.422 82.4023 196.107 89.2383 196.107 98.5156C196.107 108.932 191.957 117.64 183.656 124.639C175.518 131.475 165.102 134.893 152.406 134.893C140.036 134.893 129.62 131.068 121.156 123.418C113.018 115.605 108.949 105.596 108.949 93.3887C108.949 74.1829 119.61 53.1868 140.932 30.4004C149.721 20.9603 157.94 13.6361 165.59 8.42773C173.24 3.2194 179.506 0.615234 184.389 0.615234C187.969 0.615234 190.818 1.51042 192.934 3.30078C195.049 5.09115 196.107 7.45117 196.107 10.3809C196.107 14.1243 192.12 19.9023 184.145 27.7148C182.842 29.0169 181.703 30.2376 180.727 31.377C179.75 32.3535 178.855 33.2487 178.041 34.0625C170.554 41.875 165.183 48.2227 161.928 53.1055C158.673 57.9883 157.045 62.1387 157.045 65.5566ZM48.4023 65.5566C48.4023 67.0215 48.972 68.4049 50.1113 69.707C51.4134 70.8464 52.7155 71.416 54.0176 71.416C76.3158 71.416 87.4648 80.4492 87.4648 98.5156C87.4648 108.77 83.2331 117.396 74.7695 124.395C66.6315 131.393 56.2148 134.893 43.5195 134.893C30.987 134.893 20.6517 131.068 12.5137 123.418C4.53841 115.605 0.550781 105.596 0.550781 93.3887C0.550781 83.9486 3.15495 73.9388 8.36328 63.3594C13.7344 52.7799 21.791 41.7936 32.5332 30.4004C41.485 20.6348 49.623 13.2292 56.9473 8.18359C64.4342 3.13802 70.6191 0.615234 75.502 0.615234C79.0827 0.615234 81.931 1.51042 84.0469 3.30078C86.3255 5.09115 87.4648 7.45117 87.4648 10.3809C87.4648 13.7988 83.64 19.3327 75.9902 26.9824C74.3626 28.4473 72.9792 29.8307 71.8398 31.1328C70.7005 32.2721 69.724 33.2487 68.9102 34.0625C61.5859 41.3867 56.2962 47.5716 53.041 52.6172C49.9486 57.6628 48.4023 61.9759 48.4023 65.5566Z" fill="#95AFBE" fill-opacity="0.15"/>
</svg>
