<svg width="109" height="16" viewBox="0 0 109 16" fill="none" xmlns="http://www.w3.org/2000/svg">
<path d="M7.88025 1.75635C8.0766 1.32521 8.17482 1.10964 8.31155 1.04326C8.43029 0.985581 8.56973 0.985581 8.68847 1.04326C8.8252 1.10964 8.92342 1.32521 9.11977 1.75635L10.6838 5.19041C10.7419 5.31786 10.7709 5.38159 10.8159 5.43039C10.8555 5.47357 10.9041 5.50811 10.9583 5.53175C11.0197 5.55848 11.0906 5.56581 11.2324 5.58045L15.0528 5.97509C15.5324 6.02463 15.7722 6.0494 15.879 6.15614C15.9717 6.24885 16.0148 6.37868 15.9955 6.50705C15.9732 6.65481 15.7941 6.81277 15.4358 7.12879L12.582 9.64582C12.4761 9.73921 12.4231 9.78594 12.3896 9.8428C12.3599 9.89319 12.3414 9.94906 12.3352 10.0068C12.3281 10.0722 12.3429 10.1404 12.3725 10.2769L13.1696 13.9549C13.2697 14.4167 13.3197 14.6475 13.249 14.7798C13.1875 14.8949 13.0747 14.9751 12.944 14.9967C12.7935 15.0216 12.5846 14.9038 12.1668 14.6679L8.83902 12.7894C8.71553 12.7197 8.65378 12.6849 8.58813 12.6712C8.53003 12.6592 8.46998 12.6592 8.41188 12.6712C8.34623 12.6849 8.28449 12.7197 8.16099 12.7894L4.83322 14.6679C4.41542 14.9038 4.20653 15.0216 4.05605 14.9967C3.92534 14.9751 3.8125 14.8949 3.75106 14.7798C3.68033 14.6475 3.73037 14.4167 3.83044 13.9549L4.62752 10.2769C4.6571 10.1404 4.67189 10.0722 4.66487 10.0068C4.65865 9.94906 4.6401 9.89319 4.61042 9.8428C4.57687 9.78594 4.52391 9.73921 4.418 9.64582L1.56423 7.12879C1.20596 6.81277 1.02681 6.65481 1.00454 6.50705C0.985203 6.37868 1.0283 6.24885 1.12104 6.15614C1.2278 6.0494 1.46762 6.02463 1.94727 5.97509L5.76767 5.58045C5.90947 5.56581 5.98036 5.55848 6.04166 5.53175C6.0959 5.50811 6.14447 5.47357 6.18421 5.43039C6.22913 5.38159 6.25815 5.31786 6.31621 5.19041L7.88025 1.75635Z" fill="#D33F3F" stroke="#D33F3F" stroke-linecap="round" stroke-linejoin="round"/>
<path d="M53.8803 1.75635C54.0766 1.32521 54.1748 1.10964 54.3115 1.04326C54.4303 0.985581 54.5697 0.985581 54.6885 1.04326C54.8252 1.10964 54.9234 1.32521 55.1198 1.75635L56.6838 5.19041C56.7419 5.31786 56.7709 5.38159 56.8159 5.43039C56.8555 5.47357 56.9041 5.50811 56.9583 5.53175C57.0197 5.55848 57.0906 5.56581 57.2324 5.58045L61.0528 5.97509C61.5324 6.02463 61.7722 6.0494 61.879 6.15614C61.9717 6.24885 62.0148 6.37868 61.9955 6.50705C61.9732 6.65481 61.7941 6.81277 61.4358 7.12879L58.582 9.64582C58.4761 9.73921 58.4231 9.78594 58.3896 9.8428C58.3599 9.89319 58.3414 9.94906 58.3352 10.0068C58.3281 10.0722 58.3429 10.1404 58.3725 10.2769L59.1696 13.9549C59.2697 14.4167 59.3197 14.6475 59.249 14.7798C59.1875 14.8949 59.0747 14.9751 58.944 14.9967C58.7935 15.0216 58.5846 14.9038 58.1668 14.6679L54.839 12.7894C54.7155 12.7197 54.6538 12.6849 54.5881 12.6712C54.53 12.6592 54.47 12.6592 54.4119 12.6712C54.3462 12.6849 54.2845 12.7197 54.161 12.7894L50.8332 14.6679C50.4154 14.9038 50.2065 15.0216 50.0561 14.9967C49.9253 14.9751 49.8125 14.8949 49.7511 14.7798C49.6803 14.6475 49.7304 14.4167 49.8304 13.9549L50.6275 10.2769C50.6571 10.1404 50.6719 10.0722 50.6649 10.0068C50.6587 9.94906 50.6401 9.89319 50.6104 9.8428C50.5769 9.78594 50.5239 9.73921 50.418 9.64582L47.5642 7.12879C47.206 6.81277 47.0268 6.65481 47.0045 6.50705C46.9852 6.37868 47.0283 6.24885 47.121 6.15614C47.2278 6.0494 47.4676 6.02463 47.9473 5.97509L51.7677 5.58045C51.9095 5.56581 51.9804 5.55848 52.0417 5.53175C52.0959 5.50811 52.1445 5.47357 52.1842 5.43039C52.2291 5.38159 52.2582 5.31786 52.3162 5.19041L53.8803 1.75635Z" fill="#D33F3F" stroke="#D33F3F" stroke-linecap="round" stroke-linejoin="round"/>
<path d="M30.8803 1.75635C31.0766 1.32521 31.1748 1.10964 31.3115 1.04326C31.4303 0.985581 31.5697 0.985581 31.6885 1.04326C31.8252 1.10964 31.9234 1.32521 32.1198 1.75635L33.6838 5.19041C33.7419 5.31786 33.7709 5.38159 33.8159 5.43039C33.8555 5.47357 33.9041 5.50811 33.9583 5.53175C34.0197 5.55848 34.0906 5.56581 34.2324 5.58045L38.0528 5.97509C38.5324 6.02463 38.7722 6.0494 38.879 6.15614C38.9717 6.24885 39.0148 6.37868 38.9955 6.50705C38.9732 6.65481 38.7941 6.81277 38.4358 7.12879L35.582 9.64582C35.4761 9.73921 35.4231 9.78594 35.3896 9.8428C35.3599 9.89319 35.3414 9.94906 35.3352 10.0068C35.3281 10.0722 35.3429 10.1404 35.3725 10.2769L36.1696 13.9549C36.2697 14.4167 36.3197 14.6475 36.249 14.7798C36.1875 14.8949 36.0747 14.9751 35.944 14.9967C35.7935 15.0216 35.5846 14.9038 35.1668 14.6679L31.839 12.7894C31.7155 12.7197 31.6538 12.6849 31.5881 12.6712C31.53 12.6592 31.47 12.6592 31.4119 12.6712C31.3462 12.6849 31.2845 12.7197 31.161 12.7894L27.8332 14.6679C27.4154 14.9038 27.2065 15.0216 27.0561 14.9967C26.9253 14.9751 26.8125 14.8949 26.7511 14.7798C26.6803 14.6475 26.7304 14.4167 26.8304 13.9549L27.6275 10.2769C27.6571 10.1404 27.6719 10.0722 27.6649 10.0068C27.6587 9.94906 27.6401 9.89319 27.6104 9.8428C27.5769 9.78594 27.5239 9.73921 27.418 9.64582L24.5642 7.12879C24.206 6.81277 24.0268 6.65481 24.0045 6.50705C23.9852 6.37868 24.0283 6.24885 24.121 6.15614C24.2278 6.0494 24.4676 6.02463 24.9473 5.97509L28.7677 5.58045C28.9095 5.56581 28.9804 5.55848 29.0417 5.53175C29.0959 5.50811 29.1445 5.47357 29.1842 5.43039C29.2291 5.38159 29.2582 5.31786 29.3162 5.19041L30.8803 1.75635Z" fill="#D33F3F" stroke="#D33F3F" stroke-linecap="round" stroke-linejoin="round"/>
<path d="M76.8803 1.75635C77.0766 1.32521 77.1748 1.10964 77.3115 1.04326C77.4303 0.985581 77.5697 0.985581 77.6885 1.04326C77.8252 1.10964 77.9234 1.32521 78.1198 1.75635L79.6838 5.19041C79.7419 5.31786 79.7709 5.38159 79.8159 5.43039C79.8555 5.47357 79.9041 5.50811 79.9583 5.53175C80.0197 5.55848 80.0906 5.56581 80.2324 5.58045L84.0528 5.97509C84.5324 6.02463 84.7722 6.0494 84.879 6.15614C84.9717 6.24885 85.0148 6.37868 84.9955 6.50705C84.9732 6.65481 84.7941 6.81277 84.4358 7.12879L81.582 9.64582C81.4761 9.73921 81.4231 9.78594 81.3896 9.8428C81.3599 9.89319 81.3414 9.94906 81.3352 10.0068C81.3281 10.0722 81.3429 10.1404 81.3725 10.2769L82.1696 13.9549C82.2697 14.4167 82.3197 14.6475 82.249 14.7798C82.1875 14.8949 82.0747 14.9751 81.944 14.9967C81.7935 15.0216 81.5846 14.9038 81.1668 14.6679L77.839 12.7894C77.7155 12.7197 77.6538 12.6849 77.5881 12.6712C77.53 12.6592 77.47 12.6592 77.4119 12.6712C77.3462 12.6849 77.2845 12.7197 77.161 12.7894L73.8332 14.6679C73.4154 14.9038 73.2065 15.0216 73.0561 14.9967C72.9253 14.9751 72.8125 14.8949 72.7511 14.7798C72.6803 14.6475 72.7304 14.4167 72.8304 13.9549L73.6275 10.2769C73.6571 10.1404 73.6719 10.0722 73.6649 10.0068C73.6587 9.94906 73.6401 9.89319 73.6104 9.8428C73.5769 9.78594 73.5239 9.73921 73.418 9.64582L70.5642 7.12879C70.206 6.81277 70.0268 6.65481 70.0045 6.50705C69.9852 6.37868 70.0283 6.24885 70.121 6.15614C70.2278 6.0494 70.4676 6.02463 70.9473 5.97509L74.7677 5.58045C74.9095 5.56581 74.9804 5.55848 75.0417 5.53175C75.0959 5.50811 75.1445 5.47357 75.1842 5.43039C75.2291 5.38159 75.2582 5.31786 75.3162 5.19041L76.8803 1.75635Z" fill="#D33F3F" stroke="#D33F3F" stroke-linecap="round" stroke-linejoin="round"/>
<path d="M99.8803 1.75635C100.077 1.32521 100.175 1.10964 100.312 1.04326C100.43 0.985581 100.57 0.985581 100.688 1.04326C100.825 1.10964 100.923 1.32521 101.12 1.75635L102.684 5.19041C102.742 5.31786 102.771 5.38159 102.816 5.43039C102.856 5.47357 102.904 5.50811 102.958 5.53175C103.02 5.55848 103.091 5.56581 103.232 5.58045L107.053 5.97509C107.532 6.02463 107.772 6.0494 107.879 6.15614C107.972 6.24885 108.015 6.37868 107.995 6.50705C107.973 6.65481 107.794 6.81277 107.436 7.12879L104.582 9.64582C104.476 9.73921 104.423 9.78594 104.39 9.8428C104.36 9.89319 104.341 9.94906 104.335 10.0068C104.328 10.0722 104.343 10.1404 104.372 10.2769L105.17 13.9549C105.27 14.4167 105.32 14.6475 105.249 14.7798C105.188 14.8949 105.075 14.9751 104.944 14.9967C104.794 15.0216 104.585 14.9038 104.167 14.6679L100.839 12.7894C100.716 12.7197 100.654 12.6849 100.588 12.6712C100.53 12.6592 100.47 12.6592 100.412 12.6712C100.346 12.6849 100.284 12.7197 100.161 12.7894L96.8332 14.6679C96.4154 14.9038 96.2065 15.0216 96.0561 14.9967C95.9253 14.9751 95.8125 14.8949 95.7511 14.7798C95.6803 14.6475 95.7304 14.4167 95.8304 13.9549L96.6275 10.2769C96.6571 10.1404 96.6719 10.0722 96.6649 10.0068C96.6587 9.94906 96.6401 9.89319 96.6104 9.8428C96.5769 9.78594 96.5239 9.73921 96.418 9.64582L93.5642 7.12879C93.206 6.81277 93.0268 6.65481 93.0045 6.50705C92.9852 6.37868 93.0283 6.24885 93.121 6.15614C93.2278 6.0494 93.4676 6.02463 93.9473 5.97509L97.7677 5.58045C97.9095 5.56581 97.9804 5.55848 98.0417 5.53175C98.0959 5.50811 98.1445 5.47357 98.1842 5.43039C98.2291 5.38159 98.2582 5.31786 98.3162 5.19041L99.8803 1.75635Z" fill="#D33F3F" stroke="#D33F3F" stroke-linecap="round" stroke-linejoin="round"/>
</svg>
