<svg width="24" height="24" viewBox="0 0 24 24" fill="none" xmlns="http://www.w3.org/2000/svg">
<path d="M6 18V20M10 18V20M14 18V20M18 18V20M17 11C17 10.7348 16.8946 10.4804 16.7071 10.2929C16.5196 10.1054 16.2652 10 16 10H8C7.73478 10 7.48043 10.1054 7.29289 10.2929C7.10536 10.4804 7 10.7348 7 11V14H17V11Z" stroke="#9393B0" stroke-width="2" stroke-linecap="round" stroke-linejoin="round"/>
<path d="M20 4H4C3.44772 4 3 4.44771 3 5V13C3 13.5523 3.44772 14 4 14H20C20.5523 14 21 13.5523 21 13V5C21 4.44771 20.5523 4 20 4Z" stroke="#9393B0" stroke-width="2" stroke-linecap="round" stroke-linejoin="round"/>
</svg>
