<svg width="24" height="24" viewBox="0 0 24 24" fill="none" xmlns="http://www.w3.org/2000/svg">
<g clip-path="url(#clip0_419_3203)">
<path d="M22.6815 14.1333C22.8487 13.3479 22.9334 12.5443 22.9334 11.7333C22.9334 8.6704 21.7406 5.79087 19.5749 3.6251C17.4091 1.45934 14.5296 0.266602 11.4667 0.266602C8.40375 0.266602 5.52427 1.45934 3.3585 3.6251C1.19273 5.79087 0 8.6704 0 11.7333C0 14.7961 1.19273 17.6757 3.3585 19.8414C5.52427 22.0072 8.4038 23.1999 11.4667 23.1999C12.0938 23.1999 12.7184 23.148 13.3333 23.0473V23.7333H21.3333V20.2666H21.3289C22.9497 19.0493 24 17.1117 24 14.9333V14.1333H22.6815ZM13.3333 20.2666V21.423C12.7209 21.54 12.0954 21.5999 11.4667 21.5999C6.02616 21.5999 1.59998 17.1738 1.59998 11.7333C1.59998 6.29276 6.0262 1.86659 11.4667 1.86659C16.9072 1.86659 21.3333 6.29276 21.3333 11.7333C21.3333 12.5474 21.2345 13.3522 21.0394 14.1333H19.3795C19.6141 13.3606 19.7333 12.5575 19.7333 11.7333C19.7333 7.17504 16.025 3.46657 11.4667 3.46657C6.90844 3.46657 3.19997 7.17499 3.19997 11.7333C3.19997 16.2915 6.90839 19.9999 11.4667 19.9999C11.9379 19.9999 12.4081 19.9598 12.8699 19.8808C13.02 20.0163 13.176 20.1451 13.3378 20.2666H13.3333ZM11.6394 18.3975C11.5818 18.399 11.5243 18.3999 11.4667 18.3999C7.79067 18.3999 4.8 15.4092 4.8 11.7333C4.8 8.05728 7.79067 5.0666 11.4667 5.0666C15.1426 5.0666 18.1333 8.05728 18.1333 11.7333C18.1333 12.5654 17.9835 13.3704 17.6882 14.1333H10.6667V14.9333C10.6667 16.2011 11.0225 17.3874 11.6394 18.3975ZM19.7333 22.1333H14.9333V21.1528C15.6785 21.4413 16.4877 21.5999 17.3333 21.5999C18.179 21.5999 18.9882 21.4413 19.7333 21.1528V22.1333ZM17.3333 19.9999C14.8118 19.9999 12.7144 18.1483 12.3298 15.7333H22.337C21.9522 18.1483 19.8549 19.9999 17.3333 19.9999Z" fill="#9393B0"/>
</g>
<defs>
<clipPath id="clip0_419_3203">
<rect width="24" height="24" fill="white"/>
</clipPath>
</defs>
</svg>
