<svg width="24" height="24" viewBox="0 0 24 24" fill="none" xmlns="http://www.w3.org/2000/svg">
<g clip-path="url(#clip0_419_3207)">
<path d="M20.3264 0H3.67332C2.45799 0 1.46924 0.988751 1.46924 2.20408V21.7959C1.46924 23.0113 2.45799 24 3.67332 24H20.3264C21.5417 24 22.5305 23.0113 22.5305 21.7959V2.20408C22.5305 0.988751 21.5417 0 20.3264 0ZM21.0611 21.7959C21.0611 22.201 20.7315 22.5306 20.3264 22.5306H3.67332C3.26821 22.5306 2.93863 22.201 2.93863 21.7959V16.6531H8.32638V16.898C8.32638 17.3037 8.65533 17.6327 9.06108 17.6327C9.46682 17.6327 9.79577 17.3037 9.79577 16.898V16.6531H11.2652V16.898C11.2652 17.3037 11.5941 17.6327 11.9999 17.6327C12.4056 17.6327 12.7345 17.3037 12.7345 16.898V16.6531H14.2039V16.898C14.2039 17.3037 14.5329 17.6327 14.9386 17.6327C15.3444 17.6327 15.6733 17.3037 15.6733 16.898V16.6531H21.0611V21.7959ZM21.0611 15.1837H2.93863V13.7143H21.0611V15.1837ZM2.95454 12.2449C3.11245 10.7033 4.42403 9.4966 6.01342 9.4966C6.78392 9.4966 7.51053 9.77824 8.07125 10.2826C7.72961 10.8667 7.51528 11.5336 7.46635 12.2449H2.95454ZM8.94098 12.2449C9.09889 10.7033 10.4105 9.4966 11.9999 9.4966C12.7707 9.4966 13.4971 9.77814 14.0577 10.2825C13.7161 10.8666 13.5017 11.5336 13.4527 12.2449H8.94098ZM14.9274 12.2449C15.0853 10.7033 16.3969 9.4966 17.9863 9.4966C19.5757 9.4966 20.8873 10.7034 21.0452 12.2449H14.9274ZM21.0611 9.22472C20.2513 8.48155 19.1711 8.02722 17.9863 8.02722C16.842 8.02722 15.7951 8.45109 14.9954 9.14958C14.1736 8.42875 13.1184 8.02722 11.9999 8.02722C10.8556 8.02722 9.80865 8.45118 9.00891 9.14968C8.18694 8.42885 7.13143 8.02722 6.01352 8.02722C4.82875 8.02722 3.7485 8.48155 2.93872 9.22472V4.40816H8.45236C8.75554 5.2634 9.57267 5.87755 10.5306 5.87755H13.4693C14.4272 5.87755 15.2443 5.2634 15.5475 4.40816H21.0611V9.22472ZM21.0611 2.93878H14.9386C14.5329 2.93878 14.2039 3.26772 14.2039 3.67347C14.2039 4.07858 13.8743 4.40816 13.4692 4.40816H10.5305C10.1254 4.40816 9.79577 4.07858 9.79577 3.67347C9.79577 3.26772 9.46682 2.93878 9.06108 2.93878H2.93863V2.20408C2.93863 1.79897 3.26821 1.46939 3.67332 1.46939H20.3264C20.7315 1.46939 21.0611 1.79897 21.0611 2.20408V2.93878ZM12.7345 19.8367V20.3265C12.7345 20.7323 12.4056 21.0612 11.9999 21.0612C11.5941 21.0612 11.2652 20.7323 11.2652 20.3265V19.8367C11.2652 19.431 11.5941 19.102 11.9999 19.102C12.4056 19.102 12.7345 19.431 12.7345 19.8367Z" fill="#9393B0"/>
</g>
<defs>
<clipPath id="clip0_419_3207">
<rect width="24" height="24" fill="white"/>
</clipPath>
</defs>
</svg>
