<svg width="24" height="24" viewBox="0 0 24 24" fill="none" xmlns="http://www.w3.org/2000/svg">
<path d="M20.2091 4.26367H3.79091C3.18332 4.26367 2.60062 4.50503 2.17099 4.93466C1.74136 5.36429 1.5 5.94699 1.5 6.55457V17.2455C1.5 17.853 1.74136 18.4357 2.17099 18.8654C2.60062 19.295 3.18332 19.5364 3.79091 19.5364H20.2091C20.8167 19.5364 21.3994 19.295 21.829 18.8654C22.2586 18.4357 22.5 17.853 22.5 17.2455V6.55457C22.5 5.94699 22.2586 5.36429 21.829 4.93466C21.3994 4.50503 20.8167 4.26367 20.2091 4.26367Z" stroke="#9393B0" stroke-width="1.43182" stroke-miterlimit="10"/>
<path d="M5.31836 14.7639H10.0911M5.31836 11.9002H10.0911M5.31836 9.03662H10.0911" stroke="#9393B0" stroke-width="1.43182" stroke-miterlimit="10" stroke-linecap="round"/>
<path d="M12.9551 11.8998L14.8642 13.8089L18.6824 9.99072" stroke="#9393B0" stroke-width="1.43182" stroke-linecap="round" stroke-linejoin="round"/>
</svg>
