<svg width="24" height="24" viewBox="0 0 24 24" fill="none" xmlns="http://www.w3.org/2000/svg">
<g clip-path="url(#clip0_419_3154)">
<path d="M4.88676 4.40355C5.26171 4.40355 5.56555 4.09955 5.56555 3.72469C5.56555 3.34974 5.26147 3.0459 4.8866 3.0459C3.53387 3.0459 2.43319 4.14667 2.43311 5.49939C2.43311 5.87434 2.73694 6.17826 3.11181 6.17826C3.48676 6.17826 3.79076 5.87434 3.79076 5.49956C3.79092 4.89527 4.28256 4.40364 4.88676 4.40355Z" fill="#9393B0"/>
<path d="M4.77081 2.33568C4.77113 2.33568 4.77113 2.33568 4.77129 2.33568C5.14616 2.33568 5.45008 2.03176 5.45008 1.65698C5.45016 1.28195 5.14624 0.978108 4.77138 0.978027C4.77113 0.978027 4.77105 0.978027 4.77081 0.978027C3.59408 0.978027 2.48782 1.43637 1.65566 2.26837C0.823497 3.10061 0.365154 4.20704 0.365234 5.38401C0.365234 5.75896 0.669154 6.06288 1.04402 6.06288C1.41897 6.06288 1.72289 5.75888 1.72289 5.38401C1.72289 4.5697 2.0399 3.80421 2.61566 3.22845C3.19142 2.65277 3.95675 2.33568 4.77081 2.33568Z" fill="#9393B0"/>
<path d="M18.0896 14.3331L12.7212 9.54823C12.4184 9.27817 11.9613 9.27825 11.6585 9.54815L6.28977 14.333C6.11975 14.4846 6.02246 14.7015 6.02246 14.9292V23.2006C6.02246 23.6416 6.38004 23.9993 6.82109 23.9993H17.5582C17.9993 23.9993 18.3569 23.6416 18.3569 23.2006V14.9292C18.3569 14.7014 18.2596 14.4846 18.0896 14.3331ZM16.7595 22.4019H7.61979V15.2872L12.19 11.2142L16.7596 15.2872L16.7595 22.4019Z" fill="#9393B0"/>
<path d="M23.5198 11.8688C23.1624 9.72459 22.0983 8.28637 22.0532 8.22625C21.8875 8.00548 21.6193 7.88677 21.3444 7.91101C21.0696 7.93493 20.8259 8.10019 20.7009 8.34617C20.6917 8.36427 19.9233 9.84871 18.6162 10.3497C18.877 6.61647 17.7251 4.11441 16.6579 2.63409C15.3728 0.851621 13.9255 0.114813 13.8646 0.0842677C13.6751 -0.0104394 13.4558 -0.0259545 13.2549 0.0409546C10.3426 1.01178 9.31506 3.75764 8.95264 5.60548L7.8349 4.43877C7.54084 4.13162 7.05753 4.10899 6.73559 4.3873C6.68702 4.42924 5.53825 5.43287 4.73324 6.97243C3.61648 9.10827 3.68654 11.2277 4.93599 13.1019C5.1806 13.4689 5.67644 13.5681 6.04347 13.3233C6.41058 13.0787 6.50965 12.5828 6.26496 12.2158C5.35361 10.8487 5.30779 9.34649 6.12888 7.75085C6.47587 7.07651 6.91272 6.51699 7.24993 6.1372L8.97712 7.94011C9.20234 8.17526 9.54771 8.24936 9.85026 8.12847C10.1526 8.00766 10.3513 7.71465 10.3526 7.38916C10.3527 7.34366 10.4047 2.98552 13.4293 1.68233C13.8482 1.95796 14.665 2.57954 15.4104 3.63578C16.8223 5.63667 17.3313 8.1831 16.9234 11.2044C16.8928 11.4311 16.9608 11.6599 17.1103 11.833C17.2598 12.0062 17.4761 12.107 17.7049 12.1098C17.722 12.1101 17.7389 12.1101 17.756 12.1101C19.4334 12.1101 20.6418 11.0732 21.3578 10.2083C22.1185 11.8554 22.9702 15.2446 19.5315 18.6832C19.2197 18.9951 19.2197 19.5008 19.5315 19.8128C19.6876 19.9687 19.8919 20.0467 20.0963 20.0467C20.3007 20.0467 20.5051 19.9687 20.6611 19.8128C23.6242 16.8495 23.8511 13.8571 23.5198 11.8688Z" fill="#9393B0"/>
<path d="M12.9884 7.38747C12.9884 6.96549 13.2057 6.49777 13.4552 6.10521C13.7357 6.67014 14.0266 7.53761 14.0266 8.70521C14.0266 9.14626 14.3842 9.50391 14.8253 9.50391C15.2663 9.50391 15.624 9.14626 15.624 8.70521C15.624 5.7726 14.1356 4.25042 14.0723 4.18706C13.9226 4.03725 13.7194 3.95312 13.5076 3.95312C13.2958 3.95312 13.0925 4.03725 12.9428 4.18706C12.784 4.34593 11.3911 5.78513 11.3911 7.38747C11.3911 7.82852 11.7488 8.18609 12.1898 8.18609C12.6309 8.18609 12.9884 7.82852 12.9884 7.38747Z" fill="#9393B0"/>
<path d="M11.3911 14.9945V18.1892C11.3911 18.6302 11.7488 18.9878 12.1898 18.9878C12.6309 18.9878 12.9884 18.6302 12.9884 18.1892V14.9945C12.9884 14.5535 12.6309 14.1958 12.1898 14.1958C11.7488 14.1959 11.3911 14.5535 11.3911 14.9945Z" fill="#9393B0"/>
<path d="M12.1898 19.6665C11.9797 19.6665 11.7737 19.7519 11.6251 19.9004C11.4765 20.049 11.3911 20.2551 11.3911 20.4651C11.3911 20.6751 11.4765 20.8812 11.6251 21.0297C11.7737 21.1783 11.9798 21.2637 12.1898 21.2637C12.4006 21.2637 12.6059 21.1782 12.7543 21.0297C12.9038 20.8811 12.9884 20.6751 12.9884 20.4651C12.9884 20.255 12.9037 20.049 12.7543 19.9004C12.6059 19.7518 12.4006 19.6665 12.1898 19.6665Z" fill="#9393B0"/>
</g>
<defs>
<clipPath id="clip0_419_3154">
<rect width="24" height="24" fill="white"/>
</clipPath>
</defs>
</svg>
