<svg width="24" height="24" viewBox="0 0 24 24" fill="none" xmlns="http://www.w3.org/2000/svg">
<g clip-path="url(#clip0_419_3258)">
<path d="M17.5086 12.5057C16.8484 11.3652 15.0218 11.3173 13.1672 12.3899C13.013 12.4784 12.8684 12.5765 12.7246 12.6754V12.1583L16.9243 7.49819C17.8118 6.68819 18.3658 5.52704 18.3658 4.23606C18.3658 3.8768 18.323 3.52786 18.2419 3.19368L18.2478 3.22393C17.8634 1.83409 16.7908 0.761468 15.429 0.384501L15.401 0.377862C15.0926 0.297452 14.7385 0.250977 14.3734 0.250977C13.3811 0.250977 12.4686 0.593272 11.7479 1.16647L11.7567 1.15983C11.1002 0.664829 10.271 0.367534 9.37246 0.367534C8.25115 0.367534 7.23828 0.830813 6.51459 1.57663L6.51385 1.57737C5.79828 2.28114 5.34311 3.24753 5.30549 4.32016V4.32753C5.30475 4.34893 5.30475 4.37401 5.30475 4.39909C5.30475 5.59934 5.81082 6.68081 6.62156 7.44212L6.62377 7.44434L10.8811 12.1597V14.9424C10.4141 14.572 9.88738 14.2371 9.32672 13.9605L9.27508 13.9376C6.69164 12.6798 4.19377 12.8598 3.4627 14.3581C3.34984 14.6392 3.28418 14.9645 3.28418 15.3061C3.28418 16.0179 3.56967 16.6627 4.03221 17.1326C4.75738 17.9965 5.65295 18.6921 6.67025 19.1731L6.71746 19.193C7.67057 19.6895 8.79262 19.9956 9.98328 20.034H9.99582H10.0017C10.0069 20.034 10.0135 20.034 10.0194 20.034C10.3248 20.034 10.6229 20.0016 10.9091 19.9396L10.8818 19.9447V22.1335C10.8818 22.6425 11.2949 23.0556 11.8039 23.0556C12.313 23.0556 12.7261 22.6425 12.7261 22.1335V17.0817C12.788 17.0854 12.8434 17.0994 12.9068 17.0994C13.8496 17.0611 14.7186 16.7785 15.4622 16.3145L15.4401 16.327C17.2961 15.2552 18.1659 13.6484 17.5108 12.5094L17.5086 12.5057ZM10.8707 17.9633C10.8346 18.037 10.5757 18.1883 10.0002 18.1883H9.99656C9.08697 18.1477 8.24229 17.9102 7.48984 17.5184L7.52303 17.5339C6.71746 17.1562 6.03729 16.6354 5.48844 15.9988L5.4818 15.9906C5.12549 15.537 5.08418 15.2375 5.12033 15.1637C5.17566 15.0501 5.48549 14.9372 5.98713 14.9372C6.89893 14.9719 7.74803 15.2102 8.49902 15.6078L8.46729 15.5923C9.27287 15.97 9.95303 16.4908 10.5019 17.1275L10.5085 17.1356C10.8648 17.5893 10.9061 17.8888 10.87 17.9625L10.8707 17.9633ZM7.81885 2.88016C8.21205 2.47589 8.75795 2.22139 9.36361 2.21253H9.36508C10.0585 2.23688 10.6752 2.54303 11.1083 3.02032L11.1098 3.02253C11.2765 3.18926 11.5074 3.29253 11.7619 3.29253C12.0164 3.29253 12.2473 3.18926 12.414 3.02253C12.8935 2.45893 13.6032 2.10335 14.3962 2.10335C14.5836 2.10335 14.7666 2.12327 14.9421 2.16089L14.9252 2.15794C15.6754 2.37114 16.2545 2.95024 16.4633 3.68573L16.467 3.70122C16.5016 3.86057 16.5216 4.04426 16.5216 4.23163C16.5216 5.02393 16.166 5.73286 15.6061 6.20794L15.6024 6.21089L15.5707 6.24557L11.8025 10.4269L7.96049 6.17253C7.46402 5.76458 7.14902 5.15081 7.14902 4.46327C7.14902 3.84286 7.405 3.28147 7.81811 2.88089L7.81885 2.88016ZM14.518 14.7284C14.0244 15.053 13.4188 15.2456 12.7681 15.2456C12.7666 15.2456 12.7652 15.2456 12.7637 15.2456C13.0802 14.7063 13.5309 14.277 14.0716 13.9952L14.0893 13.9863C14.5858 13.6661 15.1915 13.4736 15.8414 13.4677H15.8429C15.5264 14.007 15.0757 14.437 14.5349 14.7196L14.518 14.7284Z" fill="#9393B0"/>
</g>
<defs>
<clipPath id="clip0_419_3258">
<rect width="23.6066" height="23.6066" fill="white"/>
</clipPath>
</defs>
</svg>
