<svg width="24" height="24" viewBox="0 0 24 24" fill="none" xmlns="http://www.w3.org/2000/svg">
<g clip-path="url(#clip0_295_363)">
<path d="M4.57366 0.219727C2.26427 0.219727 0.530273 2.62108 0.530273 4.76814V6.68481C0.530273 8.62965 1.92016 10.2575 3.75443 10.6364V23.2083C3.75443 23.6461 4.10941 24.0011 4.54727 24.0011C4.98513 24.0011 5.34012 23.6461 5.34012 23.2083V10.6456C7.1988 10.2858 8.6171 8.647 8.6171 6.68481V4.76814C8.61705 2.62104 6.8831 0.219727 4.57366 0.219727ZM7.03141 6.68477C7.03141 8.03538 5.92427 9.13412 4.57366 9.13412C3.22305 9.13412 2.11591 8.03533 2.11591 6.68477V4.7681C2.11591 3.42611 3.21687 1.80532 4.57366 1.80532C5.93046 1.80532 7.03141 3.42611 7.03141 4.7681V6.68477Z" fill="#9393B0"/>
<path d="M16.5455 0C16.1076 0 15.7526 0.354984 15.7526 0.792843V7.6439C15.7526 8.17523 15.3411 8.61927 14.8098 8.61927H14.6427V0.792843C14.6427 0.354984 14.2877 0 13.8499 0C13.412 0 13.057 0.354984 13.057 0.792843V8.61927H12.8498C12.3185 8.61927 11.8942 8.17527 11.8942 7.6439V0.792843C11.8942 0.354984 11.5393 0 11.1014 0C10.6636 0 10.3086 0.354984 10.3086 0.792843V7.6439C10.3086 9.04958 11.4441 10.2049 12.8498 10.2049H13.057V23.1728C13.057 23.6107 13.412 23.9657 13.8499 23.9657C14.2877 23.9657 14.6427 23.6107 14.6427 23.1728V10.2049H14.8098C16.2155 10.2049 17.3383 9.04963 17.3383 7.6439V0.792843C17.3383 0.354984 16.9834 0 16.5455 0Z" fill="#9393B0"/>
<path d="M21.575 0.578759C21.1458 0.200853 20.555 0.112353 20.0338 0.3479C19.5126 0.583399 19.1885 1.08501 19.1885 1.65693V23.1733C19.1885 23.6112 19.5435 23.9662 19.9813 23.9662C20.4192 23.9662 20.7742 23.6112 20.7742 23.1733V15.1722L23.11 13.6403C23.3333 13.4937 23.4698 13.2446 23.4698 12.9775V4.76375C23.4696 3.16237 22.7769 1.63696 21.575 0.578759ZM21.884 12.5495L20.774 13.2754V2.00666C21.4611 2.74579 21.884 3.73279 21.884 4.76375V12.5495Z" fill="#9393B0"/>
</g>
<defs>
<clipPath id="clip0_295_363">
<rect width="24" height="24" fill="white"/>
</clipPath>
</defs>
</svg>
