<svg width="24" height="24" viewBox="0 0 24 24" fill="none" xmlns="http://www.w3.org/2000/svg">
<path d="M20 2H4C3.20435 2 2.44129 2.31607 1.87868 2.87868C1.31607 3.44129 1 4.20435 1 5V17C1.00256 17.6183 1.19608 18.2206 1.55409 18.7247C1.91209 19.2288 2.41709 19.6099 3 19.816V21C3 21.2652 3.10536 21.5196 3.29289 21.7071C3.48043 21.8946 3.73478 22 4 22C4.26522 22 4.51957 21.8946 4.70711 21.7071C4.89464 21.5196 5 21.2652 5 21V20H19V21C19 21.2652 19.1054 21.5196 19.2929 21.7071C19.4804 21.8946 19.7348 22 20 22C20.2652 22 20.5196 21.8946 20.7071 21.7071C20.8946 21.5196 21 21.2652 21 21V19.816C21.5829 19.6099 22.0879 19.2288 22.4459 18.7247C22.8039 18.2206 22.9974 17.6183 23 17V5C23 4.20435 22.6839 3.44129 22.1213 2.87868C21.5587 2.31607 20.7956 2 20 2ZM15 18H4C3.73478 18 3.48043 17.8946 3.29289 17.7071C3.10536 17.5196 3 17.2652 3 17V5C3 4.73478 3.10536 4.48043 3.29289 4.29289C3.48043 4.10536 3.73478 4 4 4H15V18ZM21 17C21 17.2652 20.8946 17.5196 20.7071 17.7071C20.5196 17.8946 20.2652 18 20 18H17V4H20C20.2652 4 20.5196 4.10536 20.7071 4.29289C20.8946 4.48043 21 4.73478 21 5V17ZM20 7C20 7.19778 19.9414 7.39112 19.8315 7.55557C19.7216 7.72002 19.5654 7.84819 19.3827 7.92388C19.2 7.99957 18.9989 8.01937 18.8049 7.98079C18.6109 7.9422 18.4327 7.84696 18.2929 7.70711C18.153 7.56725 18.0578 7.38907 18.0192 7.19509C17.9806 7.00111 18.0004 6.80004 18.0761 6.61732C18.1518 6.43459 18.28 6.27841 18.4444 6.16853C18.6089 6.05865 18.8022 6 19 6C19.2652 6 19.5196 6.10536 19.7071 6.29289C19.8946 6.48043 20 6.73478 20 7ZM20 10C20 10.1978 19.9414 10.3911 19.8315 10.5556C19.7216 10.72 19.5654 10.8482 19.3827 10.9239C19.2 10.9996 18.9989 11.0194 18.8049 10.9808C18.6109 10.9422 18.4327 10.847 18.2929 10.7071C18.153 10.5673 18.0578 10.3891 18.0192 10.1951C17.9806 10.0011 18.0004 9.80004 18.0761 9.61732C18.1518 9.43459 18.28 9.27841 18.4444 9.16853C18.6089 9.05865 18.8022 9 19 9C19.2652 9 19.5196 9.10536 19.7071 9.29289C19.8946 9.48043 20 9.73478 20 10ZM5 7C5 6.73478 5.10536 6.48043 5.29289 6.29289C5.48043 6.10536 5.73478 6 6 6H12C12.2652 6 12.5196 6.10536 12.7071 6.29289C12.8946 6.48043 13 6.73478 13 7C13 7.26522 12.8946 7.51957 12.7071 7.70711C12.5196 7.89464 12.2652 8 12 8H6C5.73478 8 5.48043 7.89464 5.29289 7.70711C5.10536 7.51957 5 7.26522 5 7Z" fill="#9393B0"/>
</svg>
