<svg width="24" height="24" viewBox="0 0 24 24" fill="none" xmlns="http://www.w3.org/2000/svg">
<g clip-path="url(#clip0_419_3260)">
<path d="M12 8.61942H18.3766M12.0655 0V2.20968V14.9306M12.0655 14.9306H18.3766V7.04164C18.3766 3.55632 15.5508 0.730513 12.0655 0.730513C12.0655 3.1958 12.0655 14.9306 12.0655 14.9306Z" stroke="#9393B0" stroke-width="1.57778"/>
<path d="M12.131 8.61942H5.75439M12.0655 0V2.20968V14.9306M12.0655 14.9306H5.75439V7.04164C5.75439 3.55632 8.5802 0.730513 12.0655 0.730513C12.0655 3.1958 12.0655 14.9306 12.0655 14.9306Z" stroke="#9393B0" stroke-width="1.57778"/>
<path d="M19.9546 14.9307V22.8196" stroke="#9393B0" stroke-width="1.57778"/>
<path d="M16.7988 14.9307V22.8196" stroke="#9393B0" stroke-width="1.57778"/>
<path d="M13.6436 14.9307V22.8196" stroke="#9393B0" stroke-width="1.57778"/>
<path d="M10.4878 14.9307V22.8196" stroke="#9393B0" stroke-width="1.57778"/>
<path d="M7.33203 14.9307V22.8196" stroke="#9393B0" stroke-width="1.57778"/>
<path d="M4.17676 14.9307V22.8196" stroke="#9393B0" stroke-width="1.57778"/>
<path d="M1.81006 22.8193H22.3212" stroke="#9393B0" stroke-width="1.57778"/>
<path d="M1.81006 14.9307H22.3212" stroke="#9393B0" stroke-width="1.57778"/>
</g>
<defs>
<clipPath id="clip0_419_3260">
<rect width="23.6066" height="23.6066" fill="white"/>
</clipPath>
</defs>
</svg>
