<svg width="24" height="24" viewBox="0 0 24 24" fill="none" xmlns="http://www.w3.org/2000/svg">
<g clip-path="url(#clip0_295_396)">
<path d="M12.2012 8.68786H18.6284M12.2672 0V2.22723V15.0491M12.2672 15.0491H18.6284V7.09755C18.6284 3.58456 15.7802 0.736313 12.2672 0.736313C12.2672 3.22117 12.2672 15.0491 12.2672 15.0491Z" stroke="#9393B0" stroke-width="2"/>
<path d="M12.3325 8.68786H5.90527M12.2665 0V2.22723V15.0491M12.2665 15.0491H5.90527V7.09755C5.90527 3.58456 8.75352 0.736313 12.2665 0.736313C12.2665 3.22117 12.2665 15.0491 12.2665 15.0491Z" stroke="#9393B0" stroke-width="2"/>
<path d="M20.2178 15.0488V23.0004" stroke="#9393B0" stroke-width="2"/>
<path d="M17.0371 15.0488V23.0004" stroke="#9393B0" stroke-width="2"/>
<path d="M13.8574 15.0488V23.0004" stroke="#9393B0" stroke-width="2"/>
<path d="M10.6758 15.0488V23.0004" stroke="#9393B0" stroke-width="2"/>
<path d="M7.49609 15.0488V23.0004" stroke="#9393B0" stroke-width="2"/>
<path d="M4.31543 15.0488V23.0004" stroke="#9393B0" stroke-width="2"/>
<path d="M1.92969 23H22.6037" stroke="#9393B0" stroke-width="2"/>
<path d="M1.92969 15.0488H22.6037" stroke="#9393B0" stroke-width="2"/>
</g>
<defs>
<clipPath id="clip0_295_396">
<rect width="24" height="24" fill="white"/>
</clipPath>
</defs>
</svg>
