<svg width="24" height="24" viewBox="0 0 24 24" fill="none" xmlns="http://www.w3.org/2000/svg">
<path d="M7.8999 9C8.55978 10.9456 8.55978 13.0544 7.8999 15" stroke="#9393B0" stroke-width="2" stroke-linecap="round" stroke-linejoin="round"/>
<path d="M20.7502 16.0001C20.9612 16.3965 21.0327 16.8523 20.9532 17.2943C20.8736 17.7363 20.6477 18.1386 20.3116 18.4365C19.9756 18.7344 19.5491 18.9106 19.1008 18.9366C18.6525 18.9627 18.2084 18.8371 17.8402 18.5801C13.9636 19.0901 10.0368 19.0901 6.16019 18.5801C5.79193 18.8371 5.3479 18.9627 4.89959 18.9366C4.45127 18.9106 4.02477 18.7344 3.68874 18.4365C3.35272 18.1386 3.12674 17.7363 3.04719 17.2943C2.96763 16.8523 3.03914 16.3965 3.25019 16.0001C2.94635 13.3421 2.94635 10.6581 3.25019 8.00007C3.01896 7.60298 2.93152 7.13839 3.00257 6.68441C3.07362 6.23044 3.29882 5.81477 3.64031 5.50732C3.98179 5.19987 4.41873 5.01937 4.87765 4.9962C5.33657 4.97302 5.78947 5.10858 6.16019 5.38007C10.0368 4.87002 13.9636 4.87002 17.8402 5.38007C18.2109 5.10858 18.6638 4.97302 19.1227 4.9962C19.5816 5.01937 20.0186 5.19987 20.3601 5.50732C20.7016 5.81477 20.9268 6.23044 20.9978 6.68441C21.0689 7.13839 20.9814 7.60298 20.7502 8.00007C21.054 10.6581 21.054 13.3421 20.7502 16.0001Z" stroke="#9393B0" stroke-width="2" stroke-linecap="round" stroke-linejoin="round"/>
</svg>
