<svg width="24" height="24" viewBox="0 0 24 24" fill="none" xmlns="http://www.w3.org/2000/svg">
<g clip-path="url(#clip0_419_3170)">
<path d="M22.2845 15.2902L20.2427 17.332C19.911 16.9112 19.4854 16.568 18.9967 16.3353C18.2733 15.1594 17.7491 14.092 17.3462 12.9849L22.5893 9.77145C24.2637 8.7456 24.3818 5.82535 23.291 4.04489L23.1773 3.85961C23.1783 3.30022 23.0298 2.7337 22.7159 2.2219L21.6506 0.484067C21.3622 0.0135377 20.7469 -0.134124 20.2763 0.154265L0.908 12.0251C0.0129442 12.5727 -0.267902 13.7435 0.279878 14.639L0.390858 14.8196C0.716021 15.3498 1.14369 15.7786 1.63244 16.0969L0.984828 17.3794C0.746659 17.8511 0.916807 18.4266 1.37314 18.693L5.37274 21.0276C5.81797 21.2875 6.38781 21.1661 6.68843 20.7473L8.61463 18.064C8.9768 18.0169 9.32197 17.903 9.63425 17.7116L11.6436 16.4801C12.4465 17.3526 13.1759 18.3297 13.9383 19.5565C13.9575 19.5875 13.9784 19.6169 14.0004 19.645C14.0791 21.5073 15.6127 22.9927 17.4945 22.9927C18.6098 22.9927 19.6022 22.4703 20.2427 21.6575L22.2845 23.6993C22.9141 24.3289 23.9906 23.883 23.9906 22.9927V15.9969C23.9906 15.1065 22.9141 14.6606 22.2845 15.2902ZM20.4688 2.38061L21.0119 3.26658C21.3375 3.79764 21.1714 4.49233 20.6411 4.81913L20.6395 4.82016L18.7147 5.99944L13.8771 8.9647L4.92259 14.4526C3.95403 15.0465 2.68841 14.7427 2.0943 13.7739L2.03556 13.6783L20.4688 2.38061ZM5.59502 18.843L3.193 17.4409L3.45651 16.9191C3.97248 17.0125 4.47089 16.9753 4.92127 16.7758L5.15504 16.8254C5.54312 17.1642 5.98179 17.4505 6.44089 17.6646L5.59502 18.843ZM8.58957 16.0075C8.48763 16.07 8.35083 16.0966 8.19263 16.0931C8.17657 16.0914 8.16059 16.0895 8.14424 16.0886C7.76403 16.0665 7.29678 15.8853 6.86687 15.6054L9.07631 14.2518L14.9289 10.6643L21.6837 6.52454C21.6844 6.52412 21.6851 6.52361 21.6858 6.52318L21.9745 6.34634C22.0506 7.10699 21.894 7.85331 21.545 8.06711L11.3614 14.3086L11.2838 14.3562C11.2837 14.3562 11.2836 14.3563 11.2835 14.3563L8.58957 16.0075ZM13.3771 15.4177L15.6108 14.0489C15.8804 14.7412 16.1948 15.4233 16.568 16.1218C15.872 16.3125 15.2629 16.7122 14.8124 17.2499C14.345 16.5819 13.8731 15.9798 13.3771 15.4177ZM17.4945 20.9939C16.6663 20.9939 15.9954 20.323 15.9954 19.4948C15.9954 19.3962 16.0052 19.3 16.0233 19.2068C16.0363 19.1735 16.048 19.1396 16.0575 19.1048C16.2167 18.5178 16.7068 18.0884 17.2967 18.0091C17.3036 18.0082 17.3107 18.0073 17.3177 18.0065C17.331 18.0049 17.3444 18.0035 17.3578 18.0022C17.3703 18.0011 17.3828 18.0001 17.3954 17.9993C17.4051 17.9987 17.4148 17.9979 17.4245 17.9975C17.4477 17.9964 17.471 17.9957 17.4945 17.9957C17.5944 17.9957 17.7008 18.0082 17.818 18.0334C17.8295 18.0358 17.8412 18.0371 17.8527 18.0391C18.5077 18.1997 18.9935 18.7902 18.9935 19.4948C18.9936 20.323 18.3227 20.9939 17.4945 20.9939ZM21.9918 20.5799L20.9903 19.5784C20.991 19.5505 20.9924 19.5228 20.9924 19.4948C20.9924 19.4667 20.991 19.439 20.9903 19.4112L21.9918 18.4097V20.5799Z" fill="#9393B0"/>
</g>
<defs>
<clipPath id="clip0_419_3170">
<rect width="24" height="24" fill="white"/>
</clipPath>
</defs>
</svg>
