<svg width="24" height="24" viewBox="0 0 24 24" fill="none" xmlns="http://www.w3.org/2000/svg">
<g clip-path="url(#clip0_419_3118)">
<path d="M9.9375 4.50606C9.9375 -0.671941 2.0625 -0.671941 2.0625 4.50606V14.2921C1.134 15.2656 0.5625 16.5871 0.5625 18.0421C0.5625 21.0451 2.997 23.4796 6 23.4796C9.003 23.4796 11.4375 21.0451 11.4375 18.0421C11.4375 16.5871 10.866 15.2656 9.93525 14.2898L9.9375 14.2921V4.50606ZM6 21.5626C4.03275 21.5626 2.4375 19.9673 2.4375 18.0001C2.4375 16.9463 2.895 15.9998 3.6225 15.3473L3.6255 15.3443C3.63225 15.3383 3.63525 15.3293 3.642 15.3226C3.68625 15.2753 3.726 15.2228 3.75975 15.1666L3.762 15.1621C3.79425 15.1223 3.825 15.0773 3.85125 15.0308L3.8535 15.0263C3.8685 14.9851 3.88125 14.9348 3.89025 14.8838L3.891 14.8786C3.91125 14.8178 3.92625 14.7473 3.933 14.6746V14.6708L3.93825 14.6461V4.50606C3.9375 4.48281 3.93675 4.45506 3.93675 4.42731C3.93675 3.28731 4.86075 2.36331 6.00075 2.36331C7.14075 2.36331 8.06475 3.28731 8.06475 4.42731C8.06475 4.45506 8.064 4.48281 8.06325 4.50981V4.50606V14.6461L8.0685 14.6708C8.07525 14.7473 8.09025 14.8178 8.11275 14.8846L8.1105 14.8778C8.12025 14.9348 8.133 14.9843 8.1495 15.0323L8.14725 15.0256C8.1765 15.0773 8.2065 15.1216 8.24025 15.1636L8.23875 15.1621C8.27475 15.2228 8.3145 15.2753 8.35875 15.3233L8.358 15.3226C8.36475 15.3293 8.367 15.3383 8.3745 15.3443C9.105 15.9998 9.5625 16.9463 9.5625 18.0001C9.5625 19.9673 7.96725 21.5626 6 21.5626ZM6.9375 15.7508V4.50006C6.9375 3.98256 6.5175 3.56256 6 3.56256C5.4825 3.56256 5.0625 3.98256 5.0625 4.50006V15.7508C4.1745 16.1281 3.5625 16.9928 3.5625 18.0008C3.5625 19.3471 4.65375 20.4383 6 20.4383C7.34625 20.4383 8.4375 19.3471 8.4375 18.0008C8.4375 16.9928 7.8255 16.1281 6.95325 15.7568L6.9375 15.7508ZM23.1637 6.83706L18.6637 2.33706C18.6548 2.32806 18.642 2.32506 18.633 2.31681C18.5557 2.24181 18.465 2.18031 18.3652 2.13606L18.3592 2.13381H18.357C18.2603 2.09631 18.1478 2.07456 18.03 2.07456C17.976 2.07456 17.9235 2.07906 17.8725 2.08806L17.8778 2.08731C17.835 2.09256 17.7975 2.10006 17.7607 2.11056L17.7668 2.10906C17.5987 2.14731 17.4525 2.22756 17.3363 2.33856L12.837 6.83856C12.6675 7.00806 12.5625 7.24281 12.5625 7.50156C12.5625 8.01906 12.9825 8.43906 13.5 8.43906C13.7587 8.43906 13.9935 8.33406 14.163 8.16456L17.0618 5.26506V21.0016C17.0618 21.5191 17.4818 21.9391 17.9993 21.9391C18.5168 21.9391 18.9368 21.5191 18.9368 21.0016V5.26581L21.8355 8.16456C22.005 8.33481 22.2397 8.43981 22.4993 8.43981C23.0175 8.43981 23.4375 8.01981 23.4375 7.50156C23.4375 7.24281 23.3325 7.00806 23.163 6.83856L23.1637 6.83706Z" fill="#9393B0"/>
</g>
<defs>
<clipPath id="clip0_419_3118">
<rect width="24" height="24" fill="white"/>
</clipPath>
</defs>
</svg>
