<svg width="24" height="25" viewBox="0 0 24 25" fill="none" xmlns="http://www.w3.org/2000/svg">
<path d="M21 1.2002H3C2.46957 1.2002 1.96086 1.41091 1.58579 1.78598C1.21071 2.16105 1 2.66976 1 3.20019V21.2002C1 21.7306 1.21071 22.2393 1.58579 22.6144C1.96086 22.9895 2.46957 23.2002 3 23.2002H21C21.5304 23.2002 22.0391 22.9895 22.4142 22.6144C22.7893 22.2393 23 21.7306 23 21.2002V3.20019C23 2.66976 22.7893 2.16105 22.4142 1.78598C22.0391 1.41091 21.5304 1.2002 21 1.2002ZM3 3.20019H21V6.75619H3V3.20019ZM21 21.2002H3V8.75619H21V21.2002ZM12 19.9772C12.9889 19.9772 13.9556 19.6839 14.7779 19.1345C15.6001 18.5851 16.241 17.8042 16.6194 16.8906C16.9978 15.977 17.0969 14.9716 16.9039 14.0017C16.711 13.0318 16.2348 12.1409 15.5355 11.4417C14.8363 10.7424 13.9454 10.2662 12.9755 10.0733C12.0055 9.88033 11.0002 9.97935 10.0866 10.3578C9.17295 10.7362 8.39206 11.3771 7.84265 12.1993C7.29324 13.0216 7 13.9883 7 14.9772C7.01912 16.2973 7.55204 17.558 8.48561 18.4916C9.41918 19.4251 10.6799 19.9581 12 19.9772ZM9.846 17.0482C10.7452 16.8274 11.6171 16.5078 12.446 16.0952C13.2516 15.681 14.1027 15.3618 14.982 15.1442C14.9515 15.7259 14.7513 16.2859 14.4062 16.7551C14.0611 17.2244 13.5862 17.5823 13.04 17.7848C12.4938 17.9872 11.9003 18.0254 11.3328 17.8945C10.7652 17.7636 10.2483 17.4694 9.846 17.0482ZM12 11.9772C12.4757 11.9781 12.9442 12.0924 13.3668 12.3107C13.7895 12.5289 14.1539 12.8448 14.43 13.2322C13.4337 13.4806 12.4686 13.8406 11.553 14.3052C10.7497 14.7046 9.89888 15.0003 9.021 15.1852C9.016 15.1152 9 15.0492 9 14.9772C9 14.1815 9.31607 13.4185 9.87868 12.8559C10.4413 12.2933 11.2044 11.9772 12 11.9772ZM20 5.20019C20 5.46541 19.8946 5.71976 19.7071 5.9073C19.5196 6.09483 19.2652 6.20019 19 6.20019H17C16.7348 6.20019 16.4804 6.09483 16.2929 5.9073C16.1054 5.71976 16 5.46541 16 5.20019C16 4.93498 16.1054 4.68062 16.2929 4.49309C16.4804 4.30555 16.7348 4.20019 17 4.20019H19C19.2652 4.20019 19.5196 4.30555 19.7071 4.49309C19.8946 4.68062 20 4.93498 20 5.20019Z" fill="#9393B0"/>
</svg>
