<svg width="24" height="24" viewBox="0 0 24 24" fill="none" xmlns="http://www.w3.org/2000/svg">
<path d="M21.0004 3.20798C21.0004 2.26692 20.5949 1.42031 19.9491 0.833437C19.6958 0.603234 19.4051 0.413718 19.0878 0.273375C18.6915 0.0981093 18.2535 0 17.7924 0H17.792H6.20897H6.20836C5.72653 0 5.26983 0.107016 4.85967 0.297469C3.76181 0.807093 3 1.9184 3 3.20798V20.792C3 22.5635 4.43695 23.9999 6.20902 23.9999H17.792C19.564 23.9999 21 22.5635 21 20.792V6H21.0004V3.20798H21.0004ZM18.2996 2.11181C18.305 2.1143 18.3105 2.11659 18.3159 2.11917C18.3195 2.1209 18.323 2.12283 18.3265 2.12461C18.4105 2.16614 18.4891 2.2169 18.5606 2.27597C18.829 2.49755 19 2.83279 19 3.20798V3.99998H16.0004V2.00001H17.792C17.9733 2.00001 18.1452 2.04023 18.2996 2.11181ZM10.0004 3.99998V2.00001H14.0004V4.00003L10.0004 3.99998ZM8.00039 2.00001V4.00003H5.00039V3.20798C5.00039 2.72006 5.2905 2.29959 5.70731 2.10905C5.86017 2.03925 6.02995 2.00001 6.20897 2.00001H8.00039ZM19 20.792C19 21.4591 18.4593 22 17.792 22H6.20897C5.54133 22 4.99997 21.4588 4.99997 20.792V6H19V20.792Z" fill="#9393B0"/>
<path d="M12 8C8.68927 8 6.00422 10.6826 6.00009 13.9924C6.00009 13.9936 6.00005 13.9948 6.00005 13.996C6.00005 13.9974 6 13.9987 6 14C6 17.3133 8.68673 20 12 20C15.3133 20 18 17.3133 18 14C18 13.9996 18 13.9992 18 13.9989C18 13.9983 18 13.9977 18 13.9971C17.9984 10.6851 15.3123 8 12 8ZM12 9.99997C14.0696 9.99997 15.7726 11.5728 15.9789 13.588C15.1313 14.2123 13.5086 14.114 12.7187 13.2975C12.6893 13.2672 12.6589 13.2392 12.6276 13.2136C11.5698 12.1929 9.93155 11.8063 8.48489 12.09C9.16294 10.8451 10.483 9.99997 12 9.99997ZM12 18C9.92808 18 8.22356 16.4237 8.02036 14.4052C8.86786 13.7804 10.4912 13.8785 11.2813 14.6952C11.3107 14.7256 11.3411 14.7536 11.3724 14.7792C12.4312 15.8008 14.0717 16.1873 15.5194 15.902C14.8427 17.1513 13.5203 18 12 18Z" fill="#9393B0"/>
</svg>
