<svg width="16" height="16" viewBox="0 0 16 16" fill="none" xmlns="http://www.w3.org/2000/svg">
<path d="M15.669 0.331144C15.4558 0.119048 15.1674 0 14.8668 0C14.5662 0 14.2777 0.119048 14.0645 0.331144L8.03341 6.36659L2.01365 0.331144C1.79596 0.144584 1.51594 0.0471 1.22954 0.0581701C0.943149 0.0692402 0.671476 0.188049 0.468814 0.390857C0.266151 0.593664 0.147425 0.865531 0.136363 1.15213C0.125301 1.43873 0.222717 1.71895 0.409143 1.9368L6.4289 7.97224L0.397763 13.9963C0.278641 14.0984 0.181892 14.224 0.113589 14.3653C0.045285 14.5066 0.00690129 14.6605 0.000847977 14.8173C-0.00520534 14.9741 0.0212018 15.1305 0.0784118 15.2766C0.135622 15.4228 0.2224 15.5555 0.333298 15.6665C0.444197 15.7774 0.576822 15.8643 0.722849 15.9215C0.868877 15.9788 1.02515 16.0052 1.18187 15.9992C1.33859 15.9931 1.49236 15.9547 1.63354 15.8863C1.77472 15.818 1.90026 15.7212 2.00227 15.602L8.03341 9.5779L14.0532 15.602C14.2708 15.7885 14.5509 15.886 14.8373 15.8749C15.1237 15.8639 15.3953 15.745 15.598 15.5422C15.8007 15.3394 15.9194 15.0676 15.9304 14.781C15.9415 14.4944 15.8441 14.2141 15.6577 13.9963L9.63791 7.97224L15.6577 1.94819C15.7651 1.84308 15.8506 1.71773 15.9094 1.57936C15.9681 1.441 15.9989 1.29237 16 1.14204C16.001 0.991706 15.9723 0.842653 15.9155 0.703477C15.8587 0.564301 15.775 0.437756 15.669 0.331144Z" fill="#272728"/>
</svg>
